999
dxfrw 0.6.3
  0
SECTION
  2
HEADER
  9
$ACADVER
  1
AC1021
  9
$DWGCODEPAGE
  3
ANSI_1252
  9
$INSBASE
 10
0
 20
0
 30
0
  9
$EXTMIN
 10
-266.0466055171592
 20
-871.0507432085959
 30
0
  9
$EXTMAX
 10
3354.57806503269
 20
871.0507432086109
 30
0
  9
$LIMMIN
 10
0
 20
0
  9
$LIMMAX
 10
420
 20
297
  9
$ORTHOMODE
 70
    0
  9
$REGENMODE
 70
    1
  9
$FILLMODE
 70
    1
  9
$QTEXTMODE
 70
    0
  9
$MIRRTEXT
 70
    0
  9
$LTSCALE
 40
1
  9
$ATTMODE
 70
    0
  9
$TEXTSIZE
 40
2.5
  9
$TRACEWID
 40
15.68
  9
$TEXTSTYLE
  7
STANDARD
  9
$CLAYER
  8
cotes-remorque
  9
$CELTYPE
  6
BYLAYER
  9
$CECOLOR
 62
  256
  9
$CELTSCALE
 40
1
  9
$DISPSILH
 70
    0
  9
$DIMSCALE
 40
2.5
  9
$DIMASZ
 40
5
  9
$DIMEXO
 40
0.625
  9
$DIMDLI
 40
3.75
  9
$DIMRND
 40
0
  9
$DIMDLE
 40
0
  9
$DIMEXE
 40
1.25
  9
$DIMTP
 40
0
  9
$DIMTM
 40
0
  9
$DIMTXT
 40
10
  9
$DIMCEN
 40
2.5
  9
$DIMTSZ
 40
0
  9
$DIMTOL
 70
    0
  9
$DIMLIM
 70
    0
  9
$DIMTIH
 70
    0
  9
$DIMTOH
 70
    0
  9
$DIMSE1
 70
    0
  9
$DIMSE2
 70
    0
  9
$DIMTAD
 70
    1
  9
$DIMZIN
 70
    8
  9
$DIMBLK
  1

  9
$DIMASO
 70
    1
  9
$DIMSHO
 70
    1
  9
$DIMPOST
  1

  9
$DIMAPOST
  1

  9
$DIMALT
 70
    0
  9
$DIMALTD
 70
    3
  9
$DIMALTF
 40
0.03937
  9
$DIMLFAC
 40
1
  9
$DIMTOFL
 70
    1
  9
$DIMTVP
 40
0
  9
$DIMTIX
 70
    0
  9
$DIMSOXD
 70
    0
  9
$DIMSAH
 70
    0
  9
$DIMBLK1
  1

  9
$DIMBLK2
  1

  9
$DIMSTYLE
  2
STANDARD
  9
$DIMCLRD
 70
    0
  9
$DIMCLRE
 70
    0
  9
$DIMCLRT
 70
    0
  9
$DIMTFAC
 40
1
  9
$DIMGAP
 40
0.625
  9
$DIMJUST
 70
    0
  9
$DIMSD1
 70
    0
  9
$DIMSD2
 70
    0
  9
$DIMTOLJ
 70
    0
  9
$DIMTZIN
 70
    8
  9
$DIMALTZ
 70
    0
  9
$DIMALTTZ
 70
    0
  9
$DIMUPT
 70
    0
  9
$DIMDEC
 70
    2
  9
$DIMTDEC
 70
    2
  9
$DIMALTU
 70
    2
  9
$DIMALTTD
 70
    3
  9
$DIMTXSTY
  7
standard
  9
$DIMAUNIT
 70
    0
  9
$DIMADEC
 70
    0
  9
$DIMALTRND
 40
0
  9
$DIMAZIN
 70
    0
  9
$DIMDSEP
 70
   44
  9
$DIMATFIT
 70
    3
  9
$DIMFRAC
 70
    0
  9
$DIMLDRBLK
  1
STANDARD
  9
$DIMLUNIT
 70
    2
  9
$DIMLWD
 70
   -2
  9
$DIMLWE
 70
   -2
  9
$DIMTMOVE
 70
    0
  9
$DIMFXL
 40
1
  9
$DIMFXLON
 70
    0
  9
$DIMJOGANG
 40
0.7854
  9
$DIMTFILL
 70
    0
  9
$DIMTFILLCLR
 70
    0
  9
$DIMARCSYM
 70
    0
  9
$DIMLTYPE
  6

  9
$DIMLTEX1
  6

  9
$DIMLTEX2
  6

  9
$LUNITS
 70
    2
  9
$LUPREC
 70
    4
  9
$SKETCHINC
 40
1
  9
$FILLETRAD
 40
0
  9
$AUNITS
 70
    0
  9
$AUPREC
 70
    2
  9
$MENU
  1
.
  9
$ELEVATION
 40
0
  9
$PELEVATION
 40
0
  9
$THICKNESS
 40
0
  9
$LIMCHECK
 70
    0
  9
$CHAMFERA
 40
0
  9
$CHAMFERB
 40
0
  9
$CHAMFERC
 40
0
  9
$CHAMFERD
 40
0
  9
$SKPOLY
 70
    0
  9
$USRTIMER
 70
    1
  9
$ANGBASE
 50
0
  9
$ANGDIR
 70
    0
  9
$PDMODE
 70
   34
  9
$PDSIZE
 40
0
  9
$PLINEWID
 40
0
  9
$SPLFRAME
 70
    0
  9
$SPLINETYPE
 70
    2
  9
$SPLINESEGS
 70
    8
  9
$HANDSEED
  5
20000
  9
$SURFTAB1
 70
    6
  9
$SURFTAB2
 70
    6
  9
$SURFTYPE
 70
    6
  9
$SURFU
 70
    6
  9
$SURFV
 70
    6
  9
$UCSBASE
  2

  9
$UCSNAME
  2

  9
$UCSORG
 10
0
 20
0
 30
0
  9
$UCSXDIR
 10
1
 20
0
 30
0
  9
$UCSYDIR
 10
0
 20
1
 30
0
  9
$UCSORTHOREF
  2

  9
$UCSORTHOVIEW
 70
    0
  9
$UCSORGTOP
 10
0
 20
0
 30
0
  9
$UCSORGBOTTOM
 10
0
 20
0
 30
0
  9
$UCSORGLEFT
 10
0
 20
0
 30
0
  9
$UCSORGRIGHT
 10
0
 20
0
 30
0
  9
$UCSORGFRONT
 10
0
 20
0
 30
0
  9
$UCSORGBACK
 10
0
 20
0
 30
0
  9
$PUCSBASE
  2

  9
$PUCSNAME
  2

  9
$PUCSORG
 10
0
 20
0
 30
0
  9
$PUCSXDIR
 10
1
 20
0
 30
0
  9
$PUCSYDIR
 10
0
 20
1
 30
0
  9
$PUCSORTHOREF
  2

  9
$PUCSORTHOVIEW
 70
    0
  9
$PUCSORGTOP
 10
0
 20
0
 30
0
  9
$PUCSORGBOTTOM
 10
0
 20
0
 30
0
  9
$PUCSORGLEFT
 10
0
 20
0
 30
0
  9
$PUCSORGRIGHT
 10
0
 20
0
 30
0
  9
$PUCSORGFRONT
 10
0
 20
0
 30
0
  9
$PUCSORGBACK
 10
0
 20
0
 30
0
  9
$USERI1
 70
    0
  9
$USERI2
 70
    0
  9
$USERI3
 70
    0
  9
$USERI4
 70
    0
  9
$USERI5
 70
    0
  9
$USERR1
 40
0
  9
$USERR2
 40
0
  9
$USERR3
 40
0
  9
$USERR4
 40
0
  9
$USERR5
 40
0
  9
$WORLDVIEW
 70
    1
  9
$SHADEDGE
 70
    3
  9
$SHADEDIF
 70
   70
  9
$TILEMODE
 70
    1
  9
$MAXACTVP
 70
   64
  9
$PINSBASE
 10
-5760.441378342786
 20
104.8849358289654
 30
0
  9
$PLIMCHECK
 70
    0
  9
$PEXTMIN
 10
0
 20
0
 30
0
  9
$PEXTMAX
 10
0
 20
0
 30
0
  9
$GRIDMODE
 70
    1
  9
$SNAPSTYLE
 70
    0
  9
$GRIDUNIT
 10
0
 20
0
  9
$PLIMMIN
 10
0
 20
0
  9
$PLIMMAX
 10
297
 20
210
  9
$UNITMODE
 70
    0
  9
$VISRETAIN
 70
    1
  9
$PLINEGEN
 70
    0
  9
$PSLTSCALE
 70
    1
  9
$TREEDEPTH
 70
 3020
  9
$CMLSTYLE
  2
Standard
  9
$CMLJUST
 70
    0
  9
$CMLSCALE
 40
20
  9
$PROXYGRAPHICS
 70
    1
  9
$MEASUREMENT
 70
    1
  9
$CELWEIGHT
370
   -1
  9
$ENDCAPS
280
    0
  9
$JOINSTYLE
280
    0
  9
$LWDISPLAY
290
    0
  9
$INSUNITS
 70
    4
  9
$HYPERLINKBASE
  1

  9
$STYLESHEET
  1

  9
$XEDIT
290
    1
  9
$CEPSNTYPE
380
    0
  9
$PSTYLEMODE
290
    1
  9
$EXTNAMES
290
    1
  9
$PSVPSCALE
 40
1
  9
$OLESTARTUP
290
    0
  9
$SORTENTS
280
  127
  9
$INDEXCTL
280
    0
  9
$HIDETEXT
280
    1
  9
$XCLIPFRAME
290
    0
  9
$HALOGAP
280
    0
  9
$OBSCOLOR
 70
  257
  9
$OBSLTYPE
280
    0
  9
$INTERSECTIONDISPLAY
280
    0
  9
$INTERSECTIONCOLOR
 70
  257
  9
$DIMASSOC
280
    1
  9
$PROJECTNAME
  1

  9
$CAMERADISPLAY
290
    0
  9
$LENSLENGTH
 40
50
  9
$CAMERAHEIGHT
 40
0
  9
$STEPSPERSEC
 40
2
  9
$STEPSIZE
 40
50
  9
$3DDWFPREC
 40
2
  9
$PSOLWIDTH
 40
5
  9
$PSOLHEIGHT
 40
80
  9
$LOFTANG1
 40
1.570796326794897
  9
$LOFTANG2
 40
1.570796326794897
  9
$LOFTMAG1
 40
0
  9
$LOFTMAG2
 40
0
  9
$LOFTPARAM
 70
    7
  9
$LOFTNORMALS
280
    1
  9
$LATITUDE
 40
1
  9
$LONGITUDE
 40
1
  9
$NORTHDIRECTION
 40
0
  9
$TIMEZONE
 70
-8000
  9
$LIGHTGLYPHDISPLAY
280
    1
  9
$TILEMODELIGHTSYNCH
280
    1
  9
$SOLIDHIST
280
    1
  9
$SHOWHIST
280
    1
  9
$DWFFRAME
280
    2
  9
$DGNFRAME
280
    0
  9
$REALWORLDSCALE
290
    1
  9
$INTERFERECOLOR
 62
    1
  9
$CSHADOW
280
    0
  9
$SHADOWPLANELOCATION
 40
0
  0
ENDSEC
  0
SECTION
  2
CLASSES
  0
ENDSEC
  0
SECTION
  2
TABLES
  0
TABLE
  2
VPORT
  5
8
330
0
100
AcDbSymbolTable
 70
    1
  0
VPORT
  5
31
330
2
100
AcDbSymbolTableRecord
100
AcDbViewportTableRecord
  2
*ACTIVE
 70
    0
 10
0
 20
0
 11
1
 21
1
 12
2213.300148116211
 22
925.3345252011277
 13
0
 23
0
 14
10
 24
10
 15
10
 25
10
 16
0
 26
0
 36
1
 17
0
 27
0
 37
0
 40
3232.418577898534
 41
1.638297872340426
 42
50
 43
0
 44
0
 50
0
 51
0
 71
    0
 72
  100
 73
    1
 74
    3
 75
    0
 76
    1
 77
    0
 78
    0
281
    0
 65
    1
110
0
120
0
130
0
111
1
121
0
131
0
112
0
122
1
132
0
 79
    0
146
0
348
10020
 60
    7
 61
    5
292
1
282
    1
141
0
142
0
 63
  250
421
3358443
  0
ENDTAB
  0
TABLE
  2
LTYPE
  5
5
330
0
100
AcDbSymbolTable
 70
    4
  0
LTYPE
  5
14
330
5
100
AcDbSymbolTableRecord
100
AcDbLinetypeTableRecord
  2
ByBlock
 70
    0
  3

 72
   65
 73
    0
 40
0
  0
LTYPE
  5
15
330
5
100
AcDbSymbolTableRecord
100
AcDbLinetypeTableRecord
  2
ByLayer
 70
    0
  3

 72
   65
 73
    0
 40
0
  0
LTYPE
  5
16
330
5
100
AcDbSymbolTableRecord
100
AcDbLinetypeTableRecord
  2
Continuous
 70
    0
  3
Solid line
 72
   65
 73
    0
 40
0
  0
LTYPE
  5
32
330
5
100
AcDbSymbolTableRecord
100
AcDbLinetypeTableRecord
  2
DOT
 70
    0
  3
Dot . . . . . . . . . . . . . . . . . . . . . .
 72
   65
 73
    2
 40
6.35
 49
0
 74
    0
 49
-6.35
 74
    0
  0
LTYPE
  5
33
330
5
100
AcDbSymbolTableRecord
100
AcDbLinetypeTableRecord
  2
DOTTINY
 70
    0
  3
Dot (.15x) .....................................
 72
   65
 73
    2
 40
0.9525
 49
0
 74
    0
 49
-0.9525
 74
    0
  0
LTYPE
  5
34
330
5
100
AcDbSymbolTableRecord
100
AcDbLinetypeTableRecord
  2
DOT2
 70
    0
  3
Dot (.5x) .....................................
 72
   65
 73
    2
 40
3.175
 49
0
 74
    0
 49
-3.175
 74
    0
  0
LTYPE
  5
35
330
5
100
AcDbSymbolTableRecord
100
AcDbLinetypeTableRecord
  2
DOTX2
 70
    0
  3
Dot (2x) .  .  .  .  .  .  .  .  .  .  .  .  .
 72
   65
 73
    2
 40
12.7
 49
0
 74
    0
 49
-12.7
 74
    0
  0
LTYPE
  5
36
330
5
100
AcDbSymbolTableRecord
100
AcDbLinetypeTableRecord
  2
DASHED
 70
    0
  3
Dashed _ _ _ _ _ _ _ _ _ _ _ _ _ _ _ _ _
 72
   65
 73
    2
 40
19.05
 49
12.7
 74
    0
 49
-6.35
 74
    0
  0
LTYPE
  5
37
330
5
100
AcDbSymbolTableRecord
100
AcDbLinetypeTableRecord
  2
DASHEDTINY
 70
    0
  3
Dashed (.15x) _ _ _ _ _ _ _ _ _ _ _ _ _ _ _ _ _
 72
   65
 73
    2
 40
2.8575
 49
1.905
 74
    0
 49
-0.9525
 74
    0
  0
LTYPE
  5
38
330
5
100
AcDbSymbolTableRecord
100
AcDbLinetypeTableRecord
  2
DASHED2
 70
    0
  3
Dashed (.5x) _ _ _ _ _ _ _ _ _ _ _ _ _ _ _ _ _
 72
   65
 73
    2
 40
9.524999999999999
 49
6.35
 74
    0
 49
-3.175
 74
    0
  0
LTYPE
  5
39
330
5
100
AcDbSymbolTableRecord
100
AcDbLinetypeTableRecord
  2
DASHEDX2
 70
    0
  3
Dashed (2x) ____  ____  ____  ____  ____  ___
 72
   65
 73
    2
 40
38.09999999999999
 49
25.4
 74
    0
 49
-12.7
 74
    0
  0
LTYPE
  5
3A
330
5
100
AcDbSymbolTableRecord
100
AcDbLinetypeTableRecord
  2
DASHDOT
 70
    0
  3
Dash dot __ . __ . __ . __ . __ . __ . __ . __
 72
   65
 73
    4
 40
25.4
 49
12.7
 74
    0
 49
-6.35
 74
    0
 49
0
 74
    0
 49
-6.35
 74
    0
  0
LTYPE
  5
3B
330
5
100
AcDbSymbolTableRecord
100
AcDbLinetypeTableRecord
  2
DASHDOTTINY
 70
    0
  3
Dash dot (.15x) _._._._._._._._._._._._._._._.
 72
   65
 73
    4
 40
3.81
 49
1.905
 74
    0
 49
-0.9525
 74
    0
 49
0
 74
    0
 49
-0.9525
 74
    0
  0
LTYPE
  5
3C
330
5
100
AcDbSymbolTableRecord
100
AcDbLinetypeTableRecord
  2
DASHDOT2
 70
    0
  3
Dash dot (.5x) _._._._._._._._._._._._._._._.
 72
   65
 73
    4
 40
12.7
 49
6.35
 74
    0
 49
-3.175
 74
    0
 49
0
 74
    0
 49
-3.175
 74
    0
  0
LTYPE
  5
3D
330
5
100
AcDbSymbolTableRecord
100
AcDbLinetypeTableRecord
  2
DASHDOTX2
 70
    0
  3
Dash dot (2x) ____  .  ____  .  ____  .  ___
 72
   65
 73
    4
 40
50.8
 49
25.4
 74
    0
 49
-12.7
 74
    0
 49
0
 74
    0
 49
-12.7
 74
    0
  0
LTYPE
  5
3E
330
5
100
AcDbSymbolTableRecord
100
AcDbLinetypeTableRecord
  2
DIVIDE
 70
    0
  3
Divide ____ . . ____ . . ____ . . ____ . . ____
 72
   65
 73
    6
 40
31.75
 49
12.7
 74
    0
 49
-6.35
 74
    0
 49
0
 74
    0
 49
-6.35
 74
    0
 49
0
 74
    0
 49
-6.35
 74
    0
  0
LTYPE
  5
3F
330
5
100
AcDbSymbolTableRecord
100
AcDbLinetypeTableRecord
  2
DIVIDETINY
 70
    0
  3
Divide (.15x) __..__..__..__..__..__..__..__.._
 72
   65
 73
    6
 40
4.7625
 49
1.905
 74
    0
 49
-0.9525
 74
    0
 49
0
 74
    0
 49
-0.9525
 74
    0
 49
0
 74
    0
 49
-0.9525
 74
    0
  0
LTYPE
  5
40
330
5
100
AcDbSymbolTableRecord
100
AcDbLinetypeTableRecord
  2
DIVIDE2
 70
    0
  3
Divide (.5x) __..__..__..__..__..__..__..__.._
 72
   65
 73
    6
 40
15.875
 49
6.35
 74
    0
 49
-3.175
 74
    0
 49
0
 74
    0
 49
-3.175
 74
    0
 49
0
 74
    0
 49
-3.175
 74
    0
  0
LTYPE
  5
41
330
5
100
AcDbSymbolTableRecord
100
AcDbLinetypeTableRecord
  2
DIVIDEX2
 70
    0
  3
Divide (2x) ________  .  .  ________  .  .  _
 72
   65
 73
    6
 40
63.5
 49
25.4
 74
    0
 49
-12.7
 74
    0
 49
0
 74
    0
 49
-12.7
 74
    0
 49
0
 74
    0
 49
-12.7
 74
    0
  0
LTYPE
  5
42
330
5
100
AcDbSymbolTableRecord
100
AcDbLinetypeTableRecord
  2
BORDER
 70
    0
  3
Border __ __ . __ __ . __ __ . __ __ . __ __ .
 72
   65
 73
    6
 40
44.45
 49
12.7
 74
    0
 49
-6.35
 74
    0
 49
12.7
 74
    0
 49
-6.35
 74
    0
 49
0
 74
    0
 49
-6.35
 74
    0
  0
LTYPE
  5
43
330
5
100
AcDbSymbolTableRecord
100
AcDbLinetypeTableRecord
  2
BORDERTINY
 70
    0
  3
Border (.15x) __.__.__.__.__.__.__.__.__.__.__.
 72
   65
 73
    6
 40
6.6675
 49
1.905
 74
    0
 49
-0.9525
 74
    0
 49
1.905
 74
    0
 49
-0.9525
 74
    0
 49
0
 74
    0
 49
-0.9525
 74
    0
  0
LTYPE
  5
44
330
5
100
AcDbSymbolTableRecord
100
AcDbLinetypeTableRecord
  2
BORDER2
 70
    0
  3
Border (.5x) __.__.__.__.__.__.__.__.__.__.__.
 72
   65
 73
    6
 40
22.225
 49
6.35
 74
    0
 49
-3.175
 74
    0
 49
6.35
 74
    0
 49
-3.175
 74
    0
 49
0
 74
    0
 49
-3.175
 74
    0
  0
LTYPE
  5
45
330
5
100
AcDbSymbolTableRecord
100
AcDbLinetypeTableRecord
  2
BORDERX2
 70
    0
  3
Border (2x) ____  ____  .  ____  ____  .  ___
 72
   65
 73
    6
 40
88.89999999999999
 49
25.4
 74
    0
 49
-12.7
 74
    0
 49
25.4
 74
    0
 49
-12.7
 74
    0
 49
0
 74
    0
 49
-12.7
 74
    0
  0
LTYPE
  5
46
330
5
100
AcDbSymbolTableRecord
100
AcDbLinetypeTableRecord
  2
CENTER
 70
    0
  3
Center ____ _ ____ _ ____ _ ____ _ ____ _ ____
 72
   65
 73
    4
 40
50.8
 49
31.75
 74
    0
 49
-6.35
 74
    0
 49
6.35
 74
    0
 49
-6.35
 74
    0
  0
LTYPE
  5
47
330
5
100
AcDbSymbolTableRecord
100
AcDbLinetypeTableRecord
  2
CENTERTINY
 70
    0
  3
Center (.15x) ___ _ ___ _ ___ _ ___ _ ___ _ ___
 72
   65
 73
    4
 40
7.619999999999999
 49
4.7625
 74
    0
 49
-0.9525
 74
    0
 49
0.9525
 74
    0
 49
-0.9525
 74
    0
  0
LTYPE
  5
48
330
5
100
AcDbSymbolTableRecord
100
AcDbLinetypeTableRecord
  2
CENTER2
 70
    0
  3
Center (.5x) ___ _ ___ _ ___ _ ___ _ ___ _ ___
 72
   65
 73
    4
 40
28.575
 49
19.05
 74
    0
 49
-3.175
 74
    0
 49
3.175
 74
    0
 49
-3.175
 74
    0
  0
LTYPE
  5
49
330
5
100
AcDbSymbolTableRecord
100
AcDbLinetypeTableRecord
  2
CENTERX2
 70
    0
  3
Center (2x) ________  __  ________  __  _____
 72
   65
 73
    4
 40
101.6
 49
63.5
 74
    0
 49
-12.7
 74
    0
 49
12.7
 74
    0
 49
-12.7
 74
    0
  0
ENDTAB
  0
TABLE
  2
LAYER
  5
2
330
0
100
AcDbSymbolTable
 70
    1
  0
LAYER
  5
10
330
2
100
AcDbSymbolTableRecord
100
AcDbLayerTableRecord
  2
0
 70
    1
 62
    7
  6
CONTINUOUS
370
   18
390
F
  0
LAYER
  5
4A
330
2
100
AcDbSymbolTableRecord
100
AcDbLayerTableRecord
  2
comments
 70
    1
 62
    8
  6
CONTINUOUS
370
   13
390
F
  0
LAYER
  5
4B
330
2
100
AcDbSymbolTableRecord
100
AcDbLayerTableRecord
  2
cotes-remorque
 70
    1
 62
    7
  6
CONTINUOUS
370
    0
390
F
  0
LAYER
  5
4C
330
2
100
AcDbSymbolTableRecord
100
AcDbLayerTableRecord
  2
down
 70
    1
 62
    7
  6
CONTINUOUS
370
   18
390
F
  0
LAYER
  5
4D
330
2
100
AcDbSymbolTableRecord
100
AcDbLayerTableRecord
  2
etrave
 70
    1
 62
    7
  6
CONTINUOUS
370
   18
390
F
  0
LAYER
  5
4E
330
2
100
AcDbSymbolTableRecord
100
AcDbLayerTableRecord
  2
profile
 70
    1
 62
    7
  6
CONTINUOUS
370
   18
390
F
  0
LAYER
  5
4F
330
2
100
AcDbSymbolTableRecord
100
AcDbLayerTableRecord
  2
remorque
 70
    0
 62
    7
  6
CONTINUOUS
370
    0
390
F
  0
LAYER
  5
50
330
2
100
AcDbSymbolTableRecord
100
AcDbLayerTableRecord
  2
reperes
 70
    1
 62
    7
  6
CONTINUOUS
370
    0
390
F
  0
ENDTAB
  0
TABLE
  2
STYLE
  5
3
330
0
100
AcDbSymbolTable
 70
    3
  0
STYLE
  5
51
330
2
100
AcDbSymbolTableRecord
100
AcDbTextStyleTableRecord
  2
standard
 70
    0
 40
0
 41
1
 50
0
 71
    0
 42
1
  3
standard
  4

  0
ENDTAB
  0
TABLE
  2
VIEW
  5
6
330
0
100
AcDbSymbolTable
 70
    0
  0
ENDTAB
  0
TABLE
  2
UCS
  5
7
330
0
100
AcDbSymbolTable
 70
    0
  0
ENDTAB
  0
TABLE
  2
APPID
  5
9
330
0
100
AcDbSymbolTable
 70
    1
  0
APPID
  5
12
330
9
100
AcDbSymbolTableRecord
100
AcDbRegAppTableRecord
  2
ACAD
 70
    0
  0
APPID
  5
52
330
9
100
AcDbSymbolTableRecord
100
AcDbRegAppTableRecord
  2
LibreCad
 70
    0
  0
ENDTAB
  0
TABLE
  2
DIMSTYLE
  5
A
330
0
100
AcDbSymbolTable
 70
    1
100
AcDbDimStyleTable
 71
    1
  0
DIMSTYLE
105
53
330
A
100
AcDbSymbolTableRecord
100
AcDbDimStyleTableRecord
  2
Standard
 70
    0
 40
2.5
 41
5
 42
0.625
 43
0.38
 44
1.25
 45
0
 46
0
 47
0
 48
0
 49
1
140
10
141
0.09
142
0
143
25.4
144
1
145
0
146
1
147
0.625
148
0
 71
    0
 72
    0
 73
    0
 74
    1
 75
    0
 76
    0
 77
    0
 78
    8
 79
    0
170
    0
171
    2
172
    0
173
    0
174
    0
175
    0
176
    0
177
    0
178
    0
179
    0
271
    2
272
    4
273
    2
274
    2
275
    0
276
    0
277
    2
278
   44
279
    0
280
    0
281
    0
282
    0
283
    1
284
    0
285
    0
286
    0
288
    0
289
    3
340
standard
341

371
   -2
372
   -2
  0
ENDTAB
  0
TABLE
  2
BLOCK_RECORD
  5
1
330
0
100
AcDbSymbolTable
 70
    2
  0
BLOCK_RECORD
  5
1F
330
1
100
AcDbSymbolTableRecord
100
AcDbBlockTableRecord
  2
*Model_Space
 70
    0
280
    1
281
    0
  0
BLOCK_RECORD
  5
1E
330
1
100
AcDbSymbolTableRecord
100
AcDbBlockTableRecord
  2
*Paper_Space
 70
    0
280
    1
281
    0
  0
BLOCK_RECORD
  5
54
330
1
100
AcDbSymbolTableRecord
100
AcDbBlockTableRecord
  2
*D3
 70
    0
280
    1
281
    0
  0
BLOCK_RECORD
  5
57
330
1
100
AcDbSymbolTableRecord
100
AcDbBlockTableRecord
  2
*D7
 70
    0
280
    1
281
    0
  0
BLOCK_RECORD
  5
5A
330
1
100
AcDbSymbolTableRecord
100
AcDbBlockTableRecord
  2
*D17
 70
    0
280
    1
281
    0
  0
BLOCK_RECORD
  5
5D
330
1
100
AcDbSymbolTableRecord
100
AcDbBlockTableRecord
  2
*D1
 70
    0
280
    1
281
    0
  0
BLOCK_RECORD
  5
60
330
1
100
AcDbSymbolTableRecord
100
AcDbBlockTableRecord
  2
*D5
 70
    0
280
    1
281
    0
  0
BLOCK_RECORD
  5
63
330
1
100
AcDbSymbolTableRecord
100
AcDbBlockTableRecord
  2
*D9
 70
    0
280
    1
281
    0
  0
BLOCK_RECORD
  5
66
330
1
100
AcDbSymbolTableRecord
100
AcDbBlockTableRecord
  2
*D10
 70
    0
280
    1
281
    0
  0
BLOCK_RECORD
  5
69
330
1
100
AcDbSymbolTableRecord
100
AcDbBlockTableRecord
  2
*D13
 70
    0
280
    1
281
    0
  0
BLOCK_RECORD
  5
6C
330
1
100
AcDbSymbolTableRecord
100
AcDbBlockTableRecord
  2
*D15
 70
    0
280
    1
281
    0
  0
BLOCK_RECORD
  5
6F
330
1
100
AcDbSymbolTableRecord
100
AcDbBlockTableRecord
  2
*D11
 70
    0
280
    1
281
    0
  0
BLOCK_RECORD
  5
72
330
1
100
AcDbSymbolTableRecord
100
AcDbBlockTableRecord
  2
*D2
 70
    0
280
    1
281
    0
  0
BLOCK_RECORD
  5
75
330
1
100
AcDbSymbolTableRecord
100
AcDbBlockTableRecord
  2
*D8
 70
    0
280
    1
281
    0
  0
BLOCK_RECORD
  5
78
330
1
100
AcDbSymbolTableRecord
100
AcDbBlockTableRecord
  2
*D12
 70
    0
280
    1
281
    0
  0
BLOCK_RECORD
  5
7B
330
1
100
AcDbSymbolTableRecord
100
AcDbBlockTableRecord
  2
*D14
 70
    0
280
    1
281
    0
  0
BLOCK_RECORD
  5
7E
330
1
100
AcDbSymbolTableRecord
100
AcDbBlockTableRecord
  2
*D16
 70
    0
280
    1
281
    0
  0
BLOCK_RECORD
  5
81
330
1
100
AcDbSymbolTableRecord
100
AcDbBlockTableRecord
  2
*D4
 70
    0
280
    1
281
    0
  0
BLOCK_RECORD
  5
84
330
1
100
AcDbSymbolTableRecord
100
AcDbBlockTableRecord
  2
*D6
 70
    0
280
    1
281
    0
  0
ENDTAB
  0
ENDSEC
  0
SECTION
  2
BLOCKS
  0
BLOCK
  5
20
330
1F
100
AcDbEntity
  8
0
100
AcDbBlockBegin
  2
*Model_Space
 70
    0
 10
0
 20
0
 30
0
  3
*Model_Space
  1

  0
ENDBLK
  5
21
330
1F
100
AcDbEntity
  8
0
100
AcDbBlockEnd
  0
BLOCK
  5
1C
330
1B
100
AcDbEntity
  8
0
100
AcDbBlockBegin
  2
*Paper_Space
 70
    0
 10
0
 20
0
 30
0
  3
*Paper_Space
  1

  0
ENDBLK
  5
1D
330
1F
100
AcDbEntity
  8
0
100
AcDbBlockEnd
  0
BLOCK
  5
55
330
54
100
AcDbEntity
  8
0
100
AcDbBlockBegin
  2
*D3
 70
    1
 10
0
 20
0
  3
*D3
  1

  0
LINE
  5
87
100
AcDbEntity
  8
comments
  6
ByBlock
 62
    0
370
   -2
100
AcDbLine
 10
-405.6188903144343
 20
520.9999999999993
 11
-405.6188903144343
 21
-521.0000000000002
  0
MTEXT
  5
88
100
AcDbEntity
  8
comments
  6
CONTINUOUS
 62
    0
370
   -2
100
AcDbMText
 10
-419.6813903144343
 20
-4.530251913251631e-13
 30
0
 40
25
 41
66.66666666666666
 71
    5
 72
    1
  1
1042
  7
standard
210
0
220
0
230
1
 50
90
 73
    2
 44
1
  0
SOLID
  5
89
100
AcDbEntity
  8
comments
  6
ByBlock
 62
    0
370
   -2
100
AcDbTrace
 10
-405.6188903144343
 20
520.9999999999993
 30
0
 11
-403.5374670255701
 21
508.4999999999993
 31
0
 12
-407.7003136032985
 22
508.4999999999993
 32
0
 13
-407.7003136032985
 23
508.4999999999993
 33
0
  0
SOLID
  5
8A
100
AcDbEntity
  8
comments
  6
ByBlock
 62
    0
370
   -2
100
AcDbTrace
 10
-405.6188903144343
 20
-521.0000000000002
 30
0
 11
-407.7003136032985
 21
-508.5000000000002
 31
0
 12
-403.5374670255701
 22
-508.5000000000002
 32
0
 13
-403.5374670255701
 23
-508.5000000000002
 33
0
  0
LINE
  5
8B
100
AcDbEntity
  8
comments
  6
ByBlock
 62
    0
370
   -2
100
AcDbLine
 10
1198.4375
 20
520.9999999999995
 11
-408.7438903144343
 21
520.9999999999993
  0
LINE
  5
8C
100
AcDbEntity
  8
comments
  6
ByBlock
 62
    0
370
   -2
100
AcDbLine
 10
1198.4375
 20
-521.0000000000002
 11
-408.7438903144343
 21
-521.0000000000002
  0
ENDBLK
  5
56
330
54
100
AcDbEntity
  8
0
100
AcDbBlockEnd
  0
BLOCK
  5
58
330
57
100
AcDbEntity
  8
0
100
AcDbBlockBegin
  2
*D7
 70
    1
 10
0
 20
0
  3
*D7
  1

  0
LINE
  5
8D
100
AcDbEntity
  8
comments
  6
ByBlock
 62
    0
370
   -2
100
AcDbLine
 10
1600
 20
-1453
 11
1600
 21
-1384.463942035332
  0
MTEXT
  5
8E
100
AcDbEntity
  8
comments
  6
CONTINUOUS
 62
    0
370
   -2
100
AcDbMText
 10
1585.9375
 20
-1369.706997590887
 30
0
 40
25
 41
76.38888888889043
 71
    5
 72
    1
  1
18,54
  7
standard
210
0
220
0
230
1
 50
90
 73
    2
 44
1
  0
SOLID
  5
8F
100
AcDbEntity
  8
comments
  6
ByBlock
 62
    0
370
   -2
100
AcDbTrace
 10
1600
 20
-1428
 30
0
 11
1602.081423288864
 21
-1440.5
 31
0
 12
1597.918576711136
 22
-1440.5
 32
0
 13
1597.918576711136
 23
-1440.5
 33
0
  0
SOLID
  5
90
100
AcDbEntity
  8
comments
  6
ByBlock
 62
    0
370
   -2
100
AcDbTrace
 10
1600
 20
-1409.463942035332
 30
0
 11
1597.918576711136
 21
-1396.963942035332
 31
0
 12
1602.081423288864
 22
-1396.963942035332
 32
0
 13
1602.081423288864
 23
-1396.963942035332
 33
0
  0
LINE
  5
91
100
AcDbEntity
  8
comments
  6
ByBlock
 62
    0
370
   -2
100
AcDbLine
 10
2398.4375
 20
-1428
 11
1596.875
 21
-1428
  0
LINE
  5
92
100
AcDbEntity
  8
comments
  6
ByBlock
 62
    0
370
   -2
100
AcDbLine
 10
1598.4375
 20
-1409.463942035332
 11
1596.875
 21
-1409.463942035332
  0
ENDBLK
  5
59
330
57
100
AcDbEntity
  8
0
100
AcDbBlockEnd
  0
BLOCK
  5
5B
330
5A
100
AcDbEntity
  8
0
100
AcDbBlockBegin
  2
*D17
 70
    1
 10
0
 20
0
  3
*D17
  1

  0
LINE
  5
93
100
AcDbEntity
  8
cotes-remorque
  6
ByBlock
 62
    0
370
   -2
100
AcDbLine
 10
1474.657645124948
 20
871.0507432086109
 11
3896.99026735206
 21
871.0507432086271
  0
LINE
  5
94
100
AcDbEntity
  8
cotes-remorque
  6
ByBlock
 62
    0
370
   -2
100
AcDbLine
 10
1474.65764512496
 20
-871.0507432085882
 11
3896.990267352072
 21
-871.050743208572
  0
LINE
  5
95
100
AcDbEntity
  8
cotes-remorque
  6
ByBlock
 62
    0
370
   -2
100
AcDbLine
 10
3893.86526735206
 20
871.0507432086271
 11
3893.865267352072
 21
-871.050743208572
  0
MTEXT
  5
96
100
AcDbEntity
  8
cotes-remorque
  6
CONTINUOUS
 62
    0
370
   -2
100
AcDbMText
 10
3879.802767352066
 20
2.741401681597612e-11
 30
0
 40
25
 41
90.27777777777777
 71
    5
 72
    1
  1
1742,1
  7
standard
210
0
220
0
230
1
 50
90.0000000000004
 73
    2
 44
1
  0
SOLID
  5
97
100
AcDbEntity
  8
cotes-remorque
  6
ByBlock
 62
    0
370
   -2
100
AcDbTrace
 10
3893.86526735206
 20
871.0507432086271
 30
0
 11
3895.946690640924
 21
858.5507432086271
 31
0
 12
3891.783844063195
 22
858.5507432086271
 32
0
 13
3891.783844063195
 23
858.5507432086271
 33
0
  0
SOLID
  5
98
100
AcDbEntity
  8
cotes-remorque
  6
ByBlock
 62
    0
370
   -2
100
AcDbTrace
 10
3893.865267352072
 20
-871.050743208572
 30
0
 11
3891.783844063208
 21
-858.550743208572
 31
0
 12
3895.946690640936
 22
-858.550743208572
 32
0
 13
3895.946690640936
 23
-858.550743208572
 33
0
  0
ENDBLK
  5
5C
330
5A
100
AcDbEntity
  8
0
100
AcDbBlockEnd
  0
BLOCK
  5
5E
330
5D
100
AcDbEntity
  8
0
100
AcDbBlockBegin
  2
*D1
 70
    1
 10
0
 20
0
  3
*D1
  1

  0
LINE
  5
99
100
AcDbEntity
  8
comments
  6
ByBlock
 62
    0
370
   -2
100
AcDbLine
 10
0
 20
1005.229423822723
 11
2951
 21
1005.229423822723
  0
MTEXT
  5
9A
100
AcDbEntity
  8
comments
  6
CONTINUOUS
 62
    0
370
   -2
100
AcDbMText
 10
1475.5
 20
1019.291923822723
 30
0
 40
25
 41
63.88888888889043
 71
    5
 72
    1
  1
2951
  7
standard
210
0
220
0
230
1
 50
0
 73
    2
 44
1
  0
SOLID
  5
9B
100
AcDbEntity
  8
comments
  6
ByBlock
 62
    0
370
   -2
100
AcDbTrace
 10
0
 20
1005.229423822723
 30
0
 11
12.5
 21
1007.310847111587
 31
0
 12
12.5
 22
1003.148000533859
 32
0
 13
12.5
 23
1003.148000533859
 33
0
  0
SOLID
  5
9C
100
AcDbEntity
  8
comments
  6
ByBlock
 62
    0
370
   -2
100
AcDbTrace
 10
2951
 20
1005.229423822723
 30
0
 11
2938.5
 21
1003.148000533859
 31
0
 12
2938.5
 22
1007.310847111587
 32
0
 13
2938.5
 23
1007.310847111587
 33
0
  0
LINE
  5
9D
100
AcDbEntity
  8
comments
  6
ByBlock
 62
    0
370
   -2
100
AcDbLine
 10
9.567553118338697e-17
 20
1.5625
 11
1.913510623667739e-16
 21
1008.354423822723
  0
LINE
  5
9E
100
AcDbEntity
  8
comments
  6
ByBlock
 62
    0
370
   -2
100
AcDbLine
 10
2951
 20
10.56249999999928
 11
2951
 21
1008.354423822723
  0
ENDBLK
  5
5F
330
5D
100
AcDbEntity
  8
0
100
AcDbBlockEnd
  0
BLOCK
  5
61
330
60
100
AcDbEntity
  8
0
100
AcDbBlockBegin
  2
*D5
 70
    1
 10
0
 20
0
  3
*D5
  1

  0
LINE
  5
9F
100
AcDbEntity
  8
comments
  6
ByBlock
 62
    0
370
   -2
100
AcDbLine
 10
-374.7565834426819
 20
-942
 11
-374.7565834426819
 21
-1428
  0
MTEXT
  5
A0
100
AcDbEntity
  8
comments
  6
CONTINUOUS
 62
    0
370
   -2
100
AcDbMText
 10
-388.8190834426819
 20
-1185
 30
0
 40
25
 41
52.77777777777932
 71
    5
 72
    1
  1
486
  7
standard
210
0
220
0
230
1
 50
90
 73
    2
 44
1
  0
SOLID
  5
A1
100
AcDbEntity
  8
comments
  6
ByBlock
 62
    0
370
   -2
100
AcDbTrace
 10
-374.7565834426819
 20
-942
 30
0
 11
-372.6751601538177
 21
-954.5
 31
0
 12
-376.8380067315461
 22
-954.5
 32
0
 13
-376.8380067315461
 23
-954.5
 33
0
  0
SOLID
  5
A2
100
AcDbEntity
  8
comments
  6
ByBlock
 62
    0
370
   -2
100
AcDbTrace
 10
-374.7565834426819
 20
-1428
 30
0
 11
-376.8380067315461
 21
-1415.5
 31
0
 12
-372.6751601538177
 22
-1415.5
 32
0
 13
-372.6751601538177
 23
-1415.5
 33
0
  0
LINE
  5
A3
100
AcDbEntity
  8
comments
  6
ByBlock
 62
    0
370
   -2
100
AcDbLine
 10
3061.437500000095
 20
-942
 11
-377.8815834426819
 21
-942
  0
LINE
  5
A4
100
AcDbEntity
  8
comments
  6
ByBlock
 62
    0
370
   -2
100
AcDbLine
 10
2949.437500000147
 20
-1428
 11
-377.8815834426819
 21
-1428
  0
ENDBLK
  5
62
330
60
100
AcDbEntity
  8
0
100
AcDbBlockEnd
  0
BLOCK
  5
64
330
63
100
AcDbEntity
  8
0
100
AcDbBlockBegin
  2
*D9
 70
    1
 10
0
 20
0
  3
*D9
  1

  0
LINE
  5
A5
100
AcDbEntity
  8
comments
  6
ByBlock
 62
    0
370
   -2
100
AcDbLine
 10
799.9999999999998
 20
-1428
 11
799.9999999999998
 21
-1388.791796914772
  0
MTEXT
  5
A6
100
AcDbEntity
  8
comments
  6
CONTINUOUS
 62
    0
370
   -2
100
AcDbMText
 10
785.9374999999998
 20
-1350.423741359216
 30
0
 40
25
 41
73.61111111111266
 71
    5
 72
    1
  1
39,21
  7
standard
210
0
220
0
230
1
 50
90
 73
    2
 44
1
  0
SOLID
  5
A7
100
AcDbEntity
  8
comments
  6
ByBlock
 62
    0
370
   -2
100
AcDbTrace
 10
799.9999999999998
 20
-1428
 30
0
 11
797.9185767111355
 21
-1415.5
 31
0
 12
802.081423288864
 22
-1415.5
 32
0
 13
802.081423288864
 23
-1415.5
 33
0
  0
SOLID
  5
A8
100
AcDbEntity
  8
comments
  6
ByBlock
 62
    0
370
   -2
100
AcDbTrace
 10
799.9999999999998
 20
-1388.791796914772
 30
0
 11
802.081423288864
 21
-1401.291796914772
 31
0
 12
797.9185767111355
 22
-1401.291796914772
 32
0
 13
797.9185767111355
 23
-1401.291796914772
 33
0
  0
LINE
  5
A9
100
AcDbEntity
  8
comments
  6
ByBlock
 62
    0
370
   -2
100
AcDbLine
 10
2949.437500000147
 20
-1428
 11
796.8749999999998
 21
-1428
  0
LINE
  5
AA
100
AcDbEntity
  8
comments
  6
ByBlock
 62
    0
370
   -2
100
AcDbLine
 10
798.4374999999998
 20
-1388.791796914772
 11
796.8749999999998
 21
-1388.791796914772
  0
ENDBLK
  5
65
330
63
100
AcDbEntity
  8
0
100
AcDbBlockEnd
  0
BLOCK
  5
67
330
66
100
AcDbEntity
  8
0
100
AcDbBlockBegin
  2
*D10
 70
    1
 10
0
 20
0
  3
*D10
  1

  0
LINE
  5
AB
100
AcDbEntity
  8
comments
  6
ByBlock
 62
    0
370
   -2
100
AcDbLine
 10
399.9999999999998
 20
-1428
 11
399.9999999999998
 21
-1379.572844333446
  0
MTEXT
  5
AC
100
AcDbEntity
  8
comments
  6
CONTINUOUS
 62
    0
370
   -2
100
AcDbMText
 10
385.9374999999998
 20
-1335.649233222334
 30
0
 40
25
 41
84.72222222222376
 71
    5
 72
    1
  1
48,43
  7
standard
210
0
220
0
230
1
 50
90
 73
    2
 44
1
  0
SOLID
  5
AD
100
AcDbEntity
  8
comments
  6
ByBlock
 62
    0
370
   -2
100
AcDbTrace
 10
399.9999999999998
 20
-1428
 30
0
 11
397.9185767111356
 21
-1415.5
 31
0
 12
402.081423288864
 22
-1415.5
 32
0
 13
402.081423288864
 23
-1415.5
 33
0
  0
SOLID
  5
AE
100
AcDbEntity
  8
comments
  6
ByBlock
 62
    0
370
   -2
100
AcDbTrace
 10
399.9999999999998
 20
-1379.572844333446
 30
0
 11
402.081423288864
 21
-1392.072844333446
 31
0
 12
397.9185767111356
 22
-1392.072844333446
 32
0
 13
397.9185767111356
 23
-1392.072844333446
 33
0
  0
LINE
  5
AF
100
AcDbEntity
  8
comments
  6
ByBlock
 62
    0
370
   -2
100
AcDbLine
 10
2398.4375
 20
-1428
 11
396.8749999999998
 21
-1428
  0
LINE
  5
B0
100
AcDbEntity
  8
comments
  6
ByBlock
 62
    0
370
   -2
100
AcDbLine
 10
398.4374999999998
 20
-1379.572844333446
 11
396.8749999999998
 21
-1379.572844333446
  0
ENDBLK
  5
68
330
66
100
AcDbEntity
  8
0
100
AcDbBlockEnd
  0
BLOCK
  5
6A
330
69
100
AcDbEntity
  8
0
100
AcDbBlockBegin
  2
*D13
 70
    1
 10
0
 20
0
  3
*D13
  1

  0
LINE
  5
B1
100
AcDbEntity
  8
comments
  6
ByBlock
 62
    0
370
   -2
100
AcDbLine
 10
-103.506310418763
 20
-1000.415253142469
 11
-174.1768096671133
 21
-1019.897390773096
  0
LINE
  5
B2
100
AcDbEntity
  8
comments
  6
ByBlock
 62
    0
370
   -2
100
AcDbLine
 10
-1.506310418763097
 20
-1370.415253142469
 11
-72.17680966711345
 21
-1389.897390773096
  0
LINE
  5
B3
100
AcDbEntity
  8
comments
  6
ByBlock
 62
    0
370
   -2
100
AcDbLine
 10
-171.1641888295904
 20
-1019.066884488157
 11
-69.16418882959053
 21
-1389.066884488157
  0
MTEXT
  5
B4
100
AcDbEntity
  8
comments
  6
CONTINUOUS
 62
    0
370
   -2
100
AcDbMText
 10
-106.607395060737
 20
-1200.329606205932
 30
0
 40
25
 41
79.16666666666977
 71
    5
 72
    1
  1
383,8
  7
standard
210
0
220
0
230
1
 50
285.4122365345814
 73
    2
 44
1
  0
SOLID
  5
B5
100
AcDbEntity
  8
comments
  6
ByBlock
 62
    0
370
   -2
100
AcDbTrace
 10
-171.1641888295904
 20
-1019.066884488157
 30
0
 11
-165.8355911548793
 21
-1030.564204598882
 31
0
 12
-169.8487362247915
 22
-1031.670531077615
 32
0
 13
-169.8487362247915
 23
-1031.670531077615
 33
0
  0
SOLID
  5
B6
100
AcDbEntity
  8
comments
  6
ByBlock
 62
    0
370
   -2
100
AcDbTrace
 10
-69.16418882959053
 20
-1389.066884488157
 30
0
 11
-74.49278650430161
 21
-1377.569564377431
 31
0
 12
-70.47964143438944
 22
-1376.463237898699
 32
0
 13
-70.47964143438944
 23
-1376.463237898699
 33
0
  0
ENDBLK
  5
6B
330
69
100
AcDbEntity
  8
0
100
AcDbBlockEnd
  0
BLOCK
  5
6D
330
6C
100
AcDbEntity
  8
0
100
AcDbBlockBegin
  2
*D15
 70
    1
 10
0
 20
0
  3
*D15
  1

  0
LINE
  5
B7
100
AcDbEntity
  8
cotes-remorque
  6
ByBlock
 62
    0
370
   -2
100
AcDbLine
 10
932.253491178602
 20
767.9744739333488
 11
549.4017687331074
 21
1366.798808620904
  0
LINE
  5
B8
100
AcDbEntity
  8
cotes-remorque
  6
ByBlock
 62
    0
370
   -2
100
AcDbLine
 10
-266.8882594635055
 20
1.316444030180029
 11
-649.7399819090001
 21
600.1407787177351
  0
LINE
  5
B9
100
AcDbEntity
  8
cotes-remorque
  6
ByBlock
 62
    0
370
   -2
100
AcDbLine
 10
551.0850766258
 20
1364.165920560542
 11
-648.0566740163075
 21
597.5078906573726
  0
MTEXT
  5
BA
100
AcDbEntity
  8
cotes-remorque
  6
CONTINUOUS
 62
    0
370
   -2
100
AcDbMText
 10
-56.06068421237026
 20
992.684901880588
 30
0
 40
25
 41
115.2777777777793
 71
    5
 72
    1
  1
1423,27
  7
standard
210
0
220
0
230
1
 50
32.59236548831078
 73
    2
 44
1
  0
SOLID
  5
BB
100
AcDbEntity
  8
cotes-remorque
  6
ByBlock
 62
    0
370
   -2
100
AcDbTrace
 10
551.0850766258
 20
1364.165920560542
 30
0
 11
541.6747007844076
 21
1355.679039541512
 31
0
 12
539.432347984293
 22
1359.186338438031
 32
0
 13
539.432347984293
 23
1359.186338438031
 33
0
  0
SOLID
  5
BC
100
AcDbEntity
  8
cotes-remorque
  6
ByBlock
 62
    0
370
   -2
100
AcDbTrace
 10
-648.0566740163075
 20
597.5078906573726
 30
0
 11
-638.6462981749152
 21
605.9947716764023
 31
0
 12
-636.4039453748005
 22
602.4874727798833
 32
0
 13
-636.4039453748005
 23
602.4874727798833
 33
0
  0
ENDBLK
  5
6E
330
6C
100
AcDbEntity
  8
0
100
AcDbBlockEnd
  0
BLOCK
  5
70
330
6F
100
AcDbEntity
  8
0
100
AcDbBlockBegin
  2
*D11
 70
    1
 10
0
 20
0
  3
*D11
  1

  0
LINE
  5
BD
100
AcDbEntity
  8
comments
  6
ByBlock
 62
    0
370
   -2
100
AcDbLine
 10
-1.644461047684677e-12
 20
-1428
 11
-1.64090957196715e-12
 21
-1370
  0
MTEXT
  5
BE
100
AcDbEntity
  8
comments
  6
CONTINUOUS
 62
    0
370
   -2
100
AcDbMText
 10
-14.06250000000164
 20
-1399
 30
0
 40
25
 41
30.55555555555711
 71
    5
 72
    1
  1
58
  7
standard
210
0
220
0
230
1
 50
90
 73
    2
 44
1
  0
SOLID
  5
BF
100
AcDbEntity
  8
comments
  6
ByBlock
 62
    0
370
   -2
100
AcDbTrace
 10
-1.644461047684677e-12
 20
-1428
 30
0
 11
-2.081423288865845
 21
-1415.5
 31
0
 12
2.08142328886256
 22
-1415.5
 32
0
 13
2.08142328886256
 23
-1415.5
 33
0
  0
SOLID
  5
C0
100
AcDbEntity
  8
comments
  6
ByBlock
 62
    0
370
   -2
100
AcDbTrace
 10
-1.64090957196715e-12
 20
-1370
 30
0
 11
2.081423288862561
 21
-1382.5
 31
0
 12
-2.081423288865844
 22
-1382.5
 32
0
 13
-2.081423288865844
 23
-1382.5
 33
0
  0
LINE
  5
C1
100
AcDbEntity
  8
comments
  6
ByBlock
 62
    0
370
   -2
100
AcDbLine
 10
2398.4375
 20
-1428
 11
-3.125000000001644
 21
-1428
  0
LINE
  5
C2
100
AcDbEntity
  8
comments
  6
ByBlock
 62
    0
370
   -2
100
AcDbLine
 10
-1.562500000001641
 20
-1370
 11
-3.125000000001641
 21
-1370
  0
ENDBLK
  5
71
330
6F
100
AcDbEntity
  8
0
100
AcDbBlockEnd
  0
BLOCK
  5
73
330
72
100
AcDbEntity
  8
0
100
AcDbBlockBegin
  2
*D2
 70
    1
 10
0
 20
0
  3
*D2
  1

  0
LINE
  5
C3
100
AcDbEntity
  8
comments
  6
ByBlock
 62
    0
370
   -2
100
AcDbLine
 10
-304.2141677358242
 20
320.0000000000005
 11
-304.2141677358242
 21
-320.0000000000014
  0
MTEXT
  5
C4
100
AcDbEntity
  8
comments
  6
CONTINUOUS
 62
    0
370
   -2
100
AcDbMText
 10
-318.2766677358242
 20
-4.530251913251631e-13
 30
0
 40
25
 41
52.77777777777933
 71
    5
 72
    1
  1
640
  7
standard
210
0
220
0
230
1
 50
90
 73
    2
 44
1
  0
SOLID
  5
C5
100
AcDbEntity
  8
comments
  6
ByBlock
 62
    0
370
   -2
100
AcDbTrace
 10
-304.2141677358242
 20
320.0000000000005
 30
0
 11
-302.13274444696
 21
307.5000000000005
 31
0
 12
-306.2955910246884
 22
307.5000000000005
 32
0
 13
-306.2955910246884
 23
307.5000000000005
 33
0
  0
SOLID
  5
C6
100
AcDbEntity
  8
comments
  6
ByBlock
 62
    0
370
   -2
100
AcDbTrace
 10
-304.2141677358242
 20
-320.0000000000014
 30
0
 11
-306.2955910246884
 21
-307.5000000000014
 31
0
 12
-302.13274444696
 22
-307.5000000000014
 32
0
 13
-302.13274444696
 23
-307.5000000000014
 33
0
  0
LINE
  5
C7
100
AcDbEntity
  8
comments
  6
ByBlock
 62
    0
370
   -2
100
AcDbLine
 10
-1.562499999997499
 20
320.0000000000005
 11
-307.3391677358242
 21
320.0000000000005
  0
LINE
  5
C8
100
AcDbEntity
  8
comments
  6
ByBlock
 62
    0
370
   -2
100
AcDbLine
 10
-1.562499999997272
 20
-320.0000000000014
 11
-307.3391677358242
 21
-320.0000000000014
  0
ENDBLK
  5
74
330
72
100
AcDbEntity
  8
0
100
AcDbBlockEnd
  0
BLOCK
  5
76
330
75
100
AcDbEntity
  8
0
100
AcDbBlockBegin
  2
*D8
 70
    1
 10
0
 20
0
  3
*D8
  1

  0
LINE
  5
C9
100
AcDbEntity
  8
comments
  6
ByBlock
 62
    0
370
   -2
100
AcDbLine
 10
1199.999999999999
 20
-1453
 11
1199.999999999999
 21
-1374
  0
MTEXT
  5
CA
100
AcDbEntity
  8
comments
  6
CONTINUOUS
 62
    0
370
   -2
100
AcDbMText
 10
1185.937499999999
 20
-1382.159722222222
 30
0
 40
25
 41
30.55555555555555
 71
    5
 72
    1
  1
29
  7
standard
210
0
220
0
230
1
 50
90
 73
    2
 44
1
  0
SOLID
  5
CB
100
AcDbEntity
  8
comments
  6
ByBlock
 62
    0
370
   -2
100
AcDbTrace
 10
1199.999999999999
 20
-1428
 30
0
 11
1202.081423288863
 21
-1440.5
 31
0
 12
1197.918576711135
 22
-1440.5
 32
0
 13
1197.918576711135
 23
-1440.5
 33
0
  0
SOLID
  5
CC
100
AcDbEntity
  8
comments
  6
ByBlock
 62
    0
370
   -2
100
AcDbTrace
 10
1199.999999999999
 20
-1399
 30
0
 11
1197.918576711135
 21
-1386.5
 31
0
 12
1202.081423288863
 22
-1386.5
 32
0
 13
1202.081423288863
 23
-1386.5
 33
0
  0
LINE
  5
CD
100
AcDbEntity
  8
comments
  6
ByBlock
 62
    0
370
   -2
100
AcDbLine
 10
2398.4375
 20
-1428
 11
1196.874999999999
 21
-1428
  0
LINE
  5
CE
100
AcDbEntity
  8
comments
  6
ByBlock
 62
    0
370
   -2
100
AcDbLine
 10
1198.437499999999
 20
-1399
 11
1196.874999999999
 21
-1399
  0
ENDBLK
  5
77
330
75
100
AcDbEntity
  8
0
100
AcDbBlockEnd
  0
BLOCK
  5
79
330
78
100
AcDbEntity
  8
0
100
AcDbBlockBegin
  2
*D12
 70
    1
 10
0
 20
0
  3
*D12
  1

  0
LINE
  5
CF
100
AcDbEntity
  8
comments
  6
ByBlock
 62
    0
370
   -2
100
AcDbLine
 10
3064.522591778131
 20
-942.3508853480245
 11
3085.534358315022
 21
-947.1931031507628
  0
LINE
  5
D0
100
AcDbEntity
  8
comments
  6
ByBlock
 62
    0
370
   -2
100
AcDbLine
 10
2952.522591778183
 20
-1428.350885348025
 11
2973.534358315074
 21
-1433.193103150763
  0
LINE
  5
D1
100
AcDbEntity
  8
comments
  6
ByBlock
 62
    0
370
   -2
100
AcDbLine
 10
3082.489174758951
 20
-946.4913324547138
 11
2970.489174759003
 21
-1432.491332454714
  0
MTEXT
  5
D2
100
AcDbEntity
  8
comments
  6
CONTINUOUS
 62
    0
370
   -2
100
AcDbMText
 10
3012.785848756656
 20
-1186.333364322493
 30
0
 40
25
 41
104.1666666666667
 71
    5
 72
    1
  1
498,74
  7
standard
210
0
220
0
230
1
 50
77.02260466218839
 73
    2
 44
1
  0
SOLID
  5
D3
100
AcDbEntity
  8
comments
  6
ByBlock
 62
    0
370
   -2
100
AcDbTrace
 10
3082.489174758951
 20
-946.4913324547138
 30
0
 11
3081.710353085947
 21
-959.1394848774625
 31
0
 12
3077.653830863564
 22
-958.2046484805352
 32
0
 13
3077.653830863564
 23
-958.2046484805352
 33
0
  0
SOLID
  5
D4
100
AcDbEntity
  8
comments
  6
ByBlock
 62
    0
370
   -2
100
AcDbTrace
 10
2970.489174759003
 20
-1432.491332454714
 30
0
 11
2971.267996432008
 21
-1419.843180031965
 31
0
 12
2975.32451865439
 22
-1420.778016428892
 32
0
 13
2975.32451865439
 23
-1420.778016428892
 33
0
  0
ENDBLK
  5
7A
330
78
100
AcDbEntity
  8
0
100
AcDbBlockEnd
  0
BLOCK
  5
7C
330
7B
100
AcDbEntity
  8
0
100
AcDbBlockBegin
  2
*D14
 70
    1
 10
0
 20
0
  3
*D14
  1

  0
LINE
  5
D5
100
AcDbEntity
  8
cotes-remorque
  6
ByBlock
 62
    0
370
   -2
100
AcDbLine
 10
1473.682622467411
 20
764.8741329679173
 11
1725.11495625845
 21
1384.535328282233
  0
LINE
  5
D6
100
AcDbEntity
  8
cotes-remorque
  6
ByBlock
 62
    0
370
   -2
100
AcDbLine
 10
3355.165542375153
 20
1.447852417259491
 11
3606.597876166192
 21
621.1090477315755
  0
LINE
  5
D7
100
AcDbEntity
  8
cotes-remorque
  6
ByBlock
 62
    0
370
   -2
100
AcDbLine
 10
1723.940001573525
 20
1381.639623447763
 11
3605.422921481267
 21
618.2133428971056
  0
MTEXT
  5
D8
100
AcDbEntity
  8
cotes-remorque
  6
CONTINUOUS
 62
    0
370
   -2
100
AcDbMText
 10
2669.968757609558
 20
1012.957154927549
 30
0
 40
25
 41
120.8333333333349
 71
    5
 72
    1
  1
2030,47
  7
standard
210
0
220
0
230
1
 50
337.9147641976993
 73
    2
 44
1
  0
SOLID
  5
D9
100
AcDbEntity
  8
cotes-remorque
  6
ByBlock
 62
    0
370
   -2
100
AcDbTrace
 10
1723.940001573525
 20
1381.639623447763
 30
0
 11
1736.305405885665
 21
1378.868504701709
 31
0
 12
1734.740235937144
 22
1375.011104714418
 32
0
 13
1734.740235937144
 23
1375.011104714418
 33
0
  0
SOLID
  5
DA
100
AcDbEntity
  8
cotes-remorque
  6
ByBlock
 62
    0
370
   -2
100
AcDbTrace
 10
3605.422921481267
 20
618.2133428971056
 30
0
 11
3593.057517169127
 21
620.98446164316
 31
0
 12
3594.622687117647
 22
624.8418616304511
 32
0
 13
3594.622687117647
 23
624.8418616304511
 33
0
  0
ENDBLK
  5
7D
330
7B
100
AcDbEntity
  8
0
100
AcDbBlockEnd
  0
BLOCK
  5
7F
330
7E
100
AcDbEntity
  8
0
100
AcDbBlockBegin
  2
*D16
 70
    1
 10
0
 20
0
  3
*D16
  1

  0
LINE
  5
DB
100
AcDbEntity
  8
cotes-remorque
  6
ByBlock
 62
    0
370
   -2
100
AcDbLine
 10
933.0951451249481
 20
872.6132432086109
 11
933.0951451249481
 21
1352.998292682051
  0
LINE
  5
DC
100
AcDbEntity
  8
cotes-remorque
  6
ByBlock
 62
    0
370
   -2
100
AcDbLine
 10
1473.095145124948
 20
872.6132432086109
 11
1473.095145124948
 21
1352.998292682051
  0
LINE
  5
DD
100
AcDbEntity
  8
cotes-remorque
  6
ByBlock
 62
    0
370
   -2
100
AcDbLine
 10
933.0951451249481
 20
1349.873292682051
 11
1473.095145124948
 21
1349.873292682051
  0
MTEXT
  5
DE
100
AcDbEntity
  8
cotes-remorque
  6
CONTINUOUS
 62
    0
370
   -2
100
AcDbMText
 10
1203.095145124948
 20
1363.935792682051
 30
0
 40
25
 41
52.77777777777932
 71
    5
 72
    1
  1
540
  7
standard
210
0
220
0
230
1
 50
0
 73
    2
 44
1
  0
SOLID
  5
DF
100
AcDbEntity
  8
cotes-remorque
  6
ByBlock
 62
    0
370
   -2
100
AcDbTrace
 10
933.0951451249481
 20
1349.873292682051
 30
0
 11
945.5951451249481
 21
1351.954715970916
 31
0
 12
945.5951451249481
 22
1347.791869393187
 32
0
 13
945.5951451249481
 23
1347.791869393187
 33
0
  0
SOLID
  5
E0
100
AcDbEntity
  8
cotes-remorque
  6
ByBlock
 62
    0
370
   -2
100
AcDbTrace
 10
1473.095145124948
 20
1349.873292682051
 30
0
 11
1460.595145124948
 21
1347.791869393187
 31
0
 12
1460.595145124948
 22
1351.954715970916
 32
0
 13
1460.595145124948
 23
1351.954715970916
 33
0
  0
ENDBLK
  5
80
330
7E
100
AcDbEntity
  8
0
100
AcDbBlockEnd
  0
BLOCK
  5
82
330
81
100
AcDbEntity
  8
0
100
AcDbBlockBegin
  2
*D4
 70
    1
 10
0
 20
0
  3
*D4
  1

  0
LINE
  5
E1
100
AcDbEntity
  8
comments
  6
ByBlock
 62
    0
370
   -2
100
AcDbLine
 10
-304.2141677358242
 20
-1370
 11
-304.2141677358242
 21
-1000
  0
MTEXT
  5
E2
100
AcDbEntity
  8
comments
  6
CONTINUOUS
 62
    0
370
   -2
100
AcDbMText
 10
-318.2766677358242
 20
-1185
 30
0
 40
25
 41
50.00000000000155
 71
    5
 72
    1
  1
370
  7
standard
210
0
220
0
230
1
 50
90
 73
    2
 44
1
  0
SOLID
  5
E3
100
AcDbEntity
  8
comments
  6
ByBlock
 62
    0
370
   -2
100
AcDbTrace
 10
-304.2141677358242
 20
-1370
 30
0
 11
-306.2955910246884
 21
-1357.5
 31
0
 12
-302.13274444696
 22
-1357.5
 32
0
 13
-302.13274444696
 23
-1357.5
 33
0
  0
SOLID
  5
E4
100
AcDbEntity
  8
comments
  6
ByBlock
 62
    0
370
   -2
100
AcDbTrace
 10
-304.2141677358242
 20
-1000
 30
0
 11
-302.13274444696
 21
-1012.5
 31
0
 12
-306.2955910246884
 22
-1012.5
 32
0
 13
-306.2955910246884
 23
-1012.5
 33
0
  0
LINE
  5
E5
100
AcDbEntity
  8
comments
  6
ByBlock
 62
    0
370
   -2
100
AcDbLine
 10
-1.562500000001641
 20
-1370
 11
-307.3391677358242
 21
-1370
  0
LINE
  5
E6
100
AcDbEntity
  8
comments
  6
ByBlock
 62
    0
370
   -2
100
AcDbLine
 10
-103.5625000000015
 20
-1000
 11
-307.3391677358242
 21
-1000
  0
ENDBLK
  5
83
330
81
100
AcDbEntity
  8
0
100
AcDbBlockEnd
  0
BLOCK
  5
85
330
84
100
AcDbEntity
  8
0
100
AcDbBlockBegin
  2
*D6
 70
    1
 10
0
 20
0
  3
*D6
  1

  0
LINE
  5
E7
100
AcDbEntity
  8
comments
  6
ByBlock
 62
    0
370
   -2
100
AcDbLine
 10
1999.999999999996
 20
-1453
 11
1999.999999999996
 21
-1394.166546081623
  0
MTEXT
  5
E8
100
AcDbEntity
  8
comments
  6
CONTINUOUS
 62
    0
370
   -2
100
AcDbMText
 10
1985.937499999996
 20
-1387.742934970511
 30
0
 40
25
 41
59.72222222222378
 71
    5
 72
    1
  1
8,83
  7
standard
210
0
220
0
230
1
 50
90
 73
    2
 44
1
  0
SOLID
  5
E9
100
AcDbEntity
  8
comments
  6
ByBlock
 62
    0
370
   -2
100
AcDbTrace
 10
1999.999999999996
 20
-1428
 30
0
 11
2002.08142328886
 21
-1440.5
 31
0
 12
1997.918576711132
 22
-1440.5
 32
0
 13
1997.918576711132
 23
-1440.5
 33
0
  0
SOLID
  5
EA
100
AcDbEntity
  8
comments
  6
ByBlock
 62
    0
370
   -2
100
AcDbTrace
 10
1999.999999999996
 20
-1419.166546081623
 30
0
 11
1997.918576711132
 21
-1406.666546081623
 31
0
 12
2002.08142328886
 22
-1406.666546081623
 32
0
 13
2002.08142328886
 23
-1406.666546081623
 33
0
  0
LINE
  5
EB
100
AcDbEntity
  8
comments
  6
ByBlock
 62
    0
370
   -2
100
AcDbLine
 10
2949.437500000147
 20
-1428
 11
1996.874999999996
 21
-1428
  0
LINE
  5
EC
100
AcDbEntity
  8
comments
  6
ByBlock
 62
    0
370
   -2
100
AcDbLine
 10
1998.437499999996
 20
-1419.166546081623
 11
1996.874999999996
 21
-1419.166546081623
  0
ENDBLK
  5
86
330
84
100
AcDbEntity
  8
0
100
AcDbBlockEnd
  0
ENDSEC
  0
SECTION
  2
ENTITIES
  0
LINE
  5
ED
100
AcDbEntity
  8
0
  6
ByLayer
 62
  256
370
   -1
100
AcDbLine
 10
1.959434878635765e-14
 20
320
 11
0
 21
0
  0
LINE
  5
EE
100
AcDbEntity
  8
0
  6
ByLayer
 62
  256
370
   -1
100
AcDbLine
 10
0
 20
0
 11
400
 21
-9.797174393178826e-14
  0
LINE
  5
EF
100
AcDbEntity
  8
0
  6
ByLayer
 62
  256
370
   -1
100
AcDbLine
 10
400
 20
-9.797174393178826e-14
 11
800
 21
-1.959434878635765e-13
  0
LINE
  5
F0
100
AcDbEntity
  8
0
  6
ByLayer
 62
  256
370
   -1
100
AcDbLine
 10
800
 20
-1.959434878635765e-13
 11
1200
 21
-2.939152317953648e-13
  0
LINE
  5
F1
100
AcDbEntity
  8
0
  6
ByLayer
 62
  256
370
   -1
100
AcDbLine
 10
1200
 20
-2.939152317953648e-13
 11
1600
 21
-3.91886975727153e-13
  0
LINE
  5
F2
100
AcDbEntity
  8
0
  6
ByLayer
 62
  256
370
   -1
100
AcDbLine
 10
1600
 20
-3.91886975727153e-13
 11
2000
 21
-4.898587196589413e-13
  0
LINE
  5
F3
100
AcDbEntity
  8
0
  6
ByLayer
 62
  256
370
   -1
100
AcDbLine
 10
2000
 20
-4.898587196589413e-13
 11
2400
 21
-5.878304635907295e-13
  0
LINE
  5
F4
100
AcDbEntity
  8
0
  6
ByLayer
 62
  256
370
   -1
100
AcDbLine
 10
2400
 20
-5.878304635907295e-13
 11
2800
 21
-6.858022075225177e-13
  0
LINE
  5
F5
100
AcDbEntity
  8
0
  6
ByLayer
 62
  256
370
   -1
100
AcDbLine
 10
2800
 20
-6.858022075225177e-13
 11
2951
 21
-7.227865408567678e-13
  0
LINE
  5
F6
100
AcDbEntity
  8
0
  6
ByLayer
 62
  256
370
   -1
100
AcDbLine
 10
400
 20
436.9999999999999
 11
400
 21
-9.797174393178826e-14
  0
LINE
  5
F7
100
AcDbEntity
  8
0
  6
ByLayer
 62
  256
370
   -1
100
AcDbLine
 10
800
 20
502.9999999999998
 11
800
 21
-1.959434878635765e-13
  0
LINE
  5
F8
100
AcDbEntity
  8
0
  6
ByLayer
 62
  256
370
   -1
100
AcDbLine
 10
1200
 20
520.9999999999997
 11
1200
 21
-2.939152317953648e-13
  0
LINE
  5
F9
100
AcDbEntity
  8
0
  6
ByLayer
 62
  256
370
   -1
100
AcDbLine
 10
1600
 20
492.9999999999997
 11
1600
 21
-3.91886975727153e-13
  0
LINE
  5
FA
100
AcDbEntity
  8
0
  6
ByLayer
 62
  256
370
   -1
100
AcDbLine
 10
2000
 20
415.9999999999995
 11
2000
 21
-4.898587196589413e-13
  0
LINE
  5
FB
100
AcDbEntity
  8
0
  6
ByLayer
 62
  256
370
   -1
100
AcDbLine
 10
2400
 20
285.9999999999994
 11
2400
 21
-5.878304635907295e-13
  0
LINE
  5
FC
100
AcDbEntity
  8
0
  6
ByLayer
 62
  256
370
   -1
100
AcDbLine
 10
2800
 20
101.9999999999993
 11
2800
 21
-6.858022075225177e-13
  0
LINE
  5
FD
100
AcDbEntity
  8
0
  6
ByLayer
 62
  256
370
   -1
100
AcDbLine
 10
2951
 20
17.99999999999928
 11
2951
 21
-7.227865408567678e-13
  0
ARC
  5
FE
100
AcDbEntity
  8
down
  6
ByLayer
 62
  256
370
   -1
100
AcDbCircle
 10
1152.282499999998
 20
-2877.166666666661
 40
3398.474606974525
100
AcDbArc
 50
95.94991166661787
 51
109.8195374813075
  0
ARC
  5
FF
100
AcDbEntity
  8
down
  6
ByLayer
 62
  256
370
   -1
100
AcDbCircle
 10
1165.653571428572
 20
-2840.806122448969
 40
3361.981570754215
100
AcDbArc
 50
75.63069049290742
 51
89.41464889377096
  0
ARC
  5
100
100
AcDbEntity
  8
down
  6
ByLayer
 62
  256
370
   -1
100
AcDbCircle
 10
927.7861072902369
 20
-3441.247592847311
 40
4007.46657681305
100
AcDbArc
 50
59.67786920838729
 51
68.44663041190789
  0
ARC
  5
101
100
AcDbEntity
  8
down
  6
ByLayer
 62
  256
370
   -1
100
AcDbCircle
 10
1166.947442229855
 20
-2835.755598826061
 40
3356.452983288363
100
AcDbArc
 50
68.44663041190783
 51
75.63069049290787
  0
ARC
  5
102
100
AcDbEntity
  8
down
  6
ByLayer
 62
  256
370
   -1
100
AcDbCircle
 10
1152.282499999999
 20
2877.16666666666
 40
3398.474606974525
100
AcDbArc
 50
250.1804625186925
 51
264.0500883333821
  0
ARC
  5
103
100
AcDbEntity
  8
down
  6
ByLayer
 62
  256
370
   -1
100
AcDbCircle
 10
1165.653571428574
 20
2840.806122448968
 40
3361.981570754215
100
AcDbArc
 50
270.5853511062291
 51
284.3693095070925
  0
ARC
  5
104
100
AcDbEntity
  8
down
  6
ByLayer
 62
  256
370
   -1
100
AcDbCircle
 10
927.7861072902385
 20
3441.247592847311
 40
4007.46657681305
100
AcDbArc
 50
291.5533695880921
 51
300.3221307916128
  0
ARC
  5
105
100
AcDbEntity
  8
down
  6
ByLayer
 62
  256
370
   -1
100
AcDbCircle
 10
1166.947442229857
 20
2835.755598826061
 40
3356.452983288363
100
AcDbArc
 50
284.3693095070921
 51
291.5533695880922
  0
ARC
  5
106
100
AcDbEntity
  8
0
  6
ByLayer
 62
  256
370
   -1
100
AcDbCircle
 10
0
 20
0
 40
0
100
AcDbArc
 50
0
 51
0
  0
LINE
  5
107
100
AcDbEntity
  8
0
  6
ByLayer
 62
  256
370
   -1
100
AcDbLine
 10
-4.743416996728217e-13
 20
-320
 11
0
 21
3.029225876048685e-28
  0
LINE
  5
108
100
AcDbEntity
  8
0
  6
ByLayer
 62
  256
370
   -1
100
AcDbLine
 10
399.9999999999998
 20
-437.0000000000001
 11
400
 21
-9.797174393178808e-14
  0
LINE
  5
109
100
AcDbEntity
  8
0
  6
ByLayer
 62
  256
370
   -1
100
AcDbLine
 10
799.9999999999998
 20
-503.0000000000002
 11
800
 21
-1.959434878635765e-13
  0
LINE
  5
10A
100
AcDbEntity
  8
0
  6
ByLayer
 62
  256
370
   -1
100
AcDbLine
 10
1200
 20
-521.0000000000002
 11
1200
 21
-2.939152317953648e-13
  0
LINE
  5
10B
100
AcDbEntity
  8
0
  6
ByLayer
 62
  256
370
   -1
100
AcDbLine
 10
1600
 20
-493.0000000000005
 11
1600
 21
-3.918869757271533e-13
  0
LINE
  5
10C
100
AcDbEntity
  8
0
  6
ByLayer
 62
  256
370
   -1
100
AcDbLine
 10
2000
 20
-416.0000000000005
 11
2000
 21
-4.898587196589415e-13
  0
LINE
  5
10D
100
AcDbEntity
  8
0
  6
ByLayer
 62
  256
370
   -1
100
AcDbLine
 10
2400
 20
-286.0000000000006
 11
2400
 21
-5.878304635907299e-13
  0
LINE
  5
10E
100
AcDbEntity
  8
0
  6
ByLayer
 62
  256
370
   -1
100
AcDbLine
 10
2800
 20
-102.0000000000007
 11
2800
 21
-6.858022075225183e-13
  0
LINE
  5
10F
100
AcDbEntity
  8
0
  6
ByLayer
 62
  256
370
   -1
100
AcDbLine
 10
2951
 20
-18.00000000000072
 11
2951
 21
-7.227865408567686e-13
  0
LINE
  5
110
100
AcDbEntity
  8
down
  6
ByLayer
 62
  256
370
   -1
100
AcDbLine
 10
-2.273736754432321e-13
 20
320
 11
4.547473508864641e-13
 21
-320
  0
LINE
  5
111
100
AcDbEntity
  8
down
  6
ByLayer
 62
  256
370
   -1
100
AcDbLine
 10
2951.000000000001
 20
17.99999999999955
 11
2951.000000000005
 21
-17.99999999999864
  0
LINE
  5
112
100
AcDbEntity
  8
profile
  6
ByLayer
 62
  256
370
   -1
100
AcDbLine
 10
-102.0000000000015
 20
-1000
 11
-1.64090957196715e-12
 21
-1370
  0
LINE
  5
113
100
AcDbEntity
  8
profile
  6
ByLayer
 62
  256
370
   -1
100
AcDbLine
 10
-1.64090957196715e-12
 20
-1370
 11
2400
 21
-1428
  0
LINE
  5
114
100
AcDbEntity
  8
profile
  6
ByLayer
 62
  256
370
   -1
100
AcDbLine
 10
2400
 20
-1428
 11
2951.000000000147
 21
-1428
  0
LINE
  5
115
100
AcDbEntity
  8
profile
  6
ByLayer
 62
  256
370
   -1
100
AcDbLine
 10
2951.000000000147
 20
-1428
 11
3063.000000000095
 21
-942
  0
LINE
  5
116
100
AcDbEntity
  8
profile
  6
ByLayer
 62
  256
370
   -1
100
AcDbLine
 10
2400
 20
-942.0000000000001
 11
3063.000000000095
 21
-942
  0
LINE
  5
117
100
AcDbEntity
  8
profile
  6
ByLayer
 62
  256
370
   -1
100
AcDbLine
 10
2400
 20
-942.0000000000001
 11
-102.0000000000015
 21
-1000
  0
MTEXT
  5
118
100
AcDbEntity
  8
comments
  6
ByLayer
 62
  256
370
   -1
100
AcDbMText
 10
302.1753430490746
 20
606.9782977768369
 30
0
 40
40
 41
207.7777777777796
 71
    1
 72
    1
  1
couple 1
  7
standard
210
0
220
0
230
1
 50
0
 73
    2
 44
1
  0
MTEXT
  5
119
100
AcDbEntity
  8
comments
  6
ByLayer
 62
  256
370
   -1
100
AcDbMText
 10
709.4551532456535
 20
614.8611328128998
 30
0
 40
40
 41
216.6666666666685
 71
    1
 72
    1
  1
couple 2
  7
standard
210
0
220
0
230
1
 50
0
 73
    2
 44
1
  0
MTEXT
  5
11A
100
AcDbEntity
  8
comments
  6
ByLayer
 62
  256
370
   -1
100
AcDbMText
 10
1124.617798478295
 20
622.7439678489626
 30
0
 40
40
 41
216.6666666666709
 71
    1
 72
    1
  1
couple 3
  7
standard
210
0
220
0
230
1
 50
0
 73
    2
 44
1
  0
MTEXT
  5
11B
100
AcDbEntity
  8
comments
  6
ByLayer
 62
  256
370
   -1
100
AcDbMText
 10
1542.408055389624
 20
625.3715795276502
 30
0
 40
40
 41
221.111111111113
 71
    1
 72
    1
  1
couple 4
  7
standard
210
0
220
0
230
1
 50
0
 73
    2
 44
1
  0
MTEXT
  5
11C
100
AcDbEntity
  8
comments
  6
ByLayer
 62
  256
370
   -1
100
AcDbMText
 10
1936.549807192765
 20
606.9782977768369
 30
0
 40
40
 41
216.6666666666709
 71
    1
 72
    1
  1
couple 5
  7
standard
210
0
220
0
230
1
 50
0
 73
    2
 44
1
  0
MTEXT
  5
11D
100
AcDbEntity
  8
comments
  6
ByLayer
 62
  256
370
   -1
100
AcDbMText
 10
2343.829617389344
 20
407.2798101965789
 30
0
 40
40
 41
216.6666666666709
 71
    1
 72
    1
  1
couple 6
  7
standard
210
0
220
0
230
1
 50
0
 73
    2
 44
1
  0
MTEXT
  5
11E
100
AcDbEntity
  8
comments
  6
ByLayer
 62
  256
370
   -1
100
AcDbMText
 10
2730.088534156422
 20
233.8574394031969
 30
0
 40
40
 41
216.6666666666685
 71
    1
 72
    1
  1
couple 7
  7
standard
210
0
220
0
230
1
 50
0
 73
    2
 44
1
  0
MTEXT
  5
11F
100
AcDbEntity
  8
comments
  6
ByLayer
 62
  256
370
   -1
100
AcDbMText
 10
2953.435526844869
 20
105.1044671475042
 30
0
 40
40
 41
164.4444444444463
 71
    1
 72
    1
  1
Etrave
  7
standard
210
0
220
0
230
1
 50
0
 73
    2
 44
1
  0
MTEXT
  5
120
100
AcDbEntity
  8
comments
  6
ByLayer
 62
  256
370
   -1
100
AcDbMText
 10
-218.0917693310713
 20
131.3805839343803
 30
0
 40
40
 41
186.6666666666722
 71
    1
 72
    1
  1
tableau
  7
standard
210
0
220
0
230
1
 50
0
 73
    2
 44
1
  0
MTEXT
  5
121
100
AcDbEntity
  8
comments
  6
ByLayer
 62
  256
370
   -1
100
AcDbMText
 10
-39.73946459413362
 20
-550.6754379472802
 30
0
 40
40
 41
3087.778020191213
 71
    1
 72
    1
  1
Vue du dessous de la barque (sans reprsenter les bordes qui inclines  15 degrs devraient tre visibles)\P
  7
standard
210
0
220
0
230
1
 50
0
 73
    2
 44
1
  0
DIMENSION
  5
122
100
AcDbEntity
  8
comments
  6
ByLayer
 62
  256
370
   -1
100
AcDbDimension
  2
*D1
 10
2951
 20
1005.229423822723
 30
0
 11
1475.5
 21
1019.291923822723
 31
0
 70
   32
 71
    5
  3
Standard
 53
0
210
0
220
0
230
1
100
AcDbAlignedDimension
 13
0
 23
0
 33
0
 14
2951
 24
8.999999999999279
 34
0
100
AcDbRotatedDimension
  0
DIMENSION
  5
123
100
AcDbEntity
  8
comments
  6
ByLayer
 62
  256
370
   -1
100
AcDbDimension
  2
*D2
 10
-304.2141677358242
 20
-320.0000000000014
 30
0
 11
-318.2766677358242
 21
-4.530251913251631e-13
 31
0
 70
   32
 71
    5
  3
Standard
 53
0
210
0
220
0
230
1
100
AcDbAlignedDimension
 13
2.501110429875553e-12
 23
320.0000000000005
 33
0
 14
2.728484105318785e-12
 24
-320.0000000000014
 34
0
 50
90
100
AcDbRotatedDimension
  0
DIMENSION
  5
124
100
AcDbEntity
  8
comments
  6
ByLayer
 62
  256
370
   -1
100
AcDbDimension
  2
*D3
 10
-405.6188903144343
 20
-521.0000000000002
 30
0
 11
-419.6813903144343
 21
-4.530251913251631e-13
 31
0
 70
   32
 71
    5
  3
Standard
 53
0
210
0
220
0
230
1
100
AcDbAlignedDimension
 13
1200
 23
520.9999999999995
 33
0
 14
1200
 24
-521.0000000000002
 34
0
 50
90
100
AcDbRotatedDimension
  0
DIMENSION
  5
125
100
AcDbEntity
  8
comments
  6
ByLayer
 62
  256
370
   -1
100
AcDbDimension
  2
*D4
 10
-304.2141677358242
 20
-1000
 30
0
 11
-318.2766677358242
 21
-1185
 31
0
 70
   32
 71
    5
  3
Standard
 53
0
210
0
220
0
230
1
100
AcDbAlignedDimension
 13
-1.64090957196715e-12
 23
-1370
 33
0
 14
-102.0000000000015
 24
-1000
 34
0
 50
90
100
AcDbRotatedDimension
  0
DIMENSION
  5
126
100
AcDbEntity
  8
comments
  6
ByLayer
 62
  256
370
   -1
100
AcDbDimension
  2
*D5
 10
-374.7565834426819
 20
-1428
 30
0
 11
-388.8190834426819
 21
-1185
 31
0
 70
   32
 71
    5
  3
Standard
 53
0
210
0
220
0
230
1
100
AcDbAlignedDimension
 13
3063.000000000095
 23
-942
 33
0
 14
2951.000000000147
 24
-1428
 34
0
 50
90
100
AcDbRotatedDimension
  0
MTEXT
  5
127
100
AcDbEntity
  8
comments
  6
ByLayer
 62
  256
370
   -1
100
AcDbMText
 10
2606.718616407677
 20
937.4161178235302
 30
0
 40
20
 41
247.7777777777816
 71
    1
 72
    1
  1
Bateau de Gnieark\PVue globale\P\Pchelle 1:20
  7
standard
210
0
220
0
230
1
 50
0
 73
    2
 44
1
  0
ARC
  5
128
100
AcDbEntity
  8
down
  6
ByLayer
 62
  256
370
   -1
100
AcDbCircle
 10
1164.121517370169
 20
-2990.762578699683
 40
3512.685786650182
100
AcDbArc
 50
89.41464889377085
 51
95.94991166661769
  0
ARC
  5
129
100
AcDbEntity
  8
down
  6
ByLayer
 62
  256
370
   -1
100
AcDbCircle
 10
1164.12151737017
 20
2990.762578699683
 40
3512.685786650182
100
AcDbArc
 50
264.0500883333823
 51
270.5853511062292
  0
DIMENSION
  5
12A
100
AcDbEntity
  8
comments
  6
ByLayer
 62
  256
370
   -1
100
AcDbDimension
  2
*D6
 10
1999.999999999996
 20
-1419.166546081623
 30
0
 11
1985.937499999996
 21
-1423.583273040811
 31
0
 70
   32
 71
    5
 72
    0
  3
Standard
 53
0
210
0
220
0
230
1
100
AcDbAlignedDimension
 13
2951.000000000147
 23
-1428
 33
0
 14
1999.999999999996
 24
-1419.166546081623
 34
0
 50
90
100
AcDbRotatedDimension
  0
DIMENSION
  5
12B
100
AcDbEntity
  8
comments
  6
ByLayer
 62
  256
370
   -1
100
AcDbDimension
  2
*D7
 10
1600
 20
-1409.463942035332
 30
0
 11
1585.9375
 21
-1418.731971017666
 31
0
 70
   32
 71
    5
 72
    0
  3
Standard
 53
0
210
0
220
0
230
1
100
AcDbAlignedDimension
 13
2400
 23
-1428
 33
0
 14
1600
 24
-1409.463942035332
 34
0
 50
90
100
AcDbRotatedDimension
  0
DIMENSION
  5
12C
100
AcDbEntity
  8
comments
  6
ByLayer
 62
  256
370
   -1
100
AcDbDimension
  2
*D8
 10
1199.999999999999
 20
-1399
 30
0
 11
1185.937499999999
 21
-1413.5
 31
0
 70
   32
 71
    5
 72
    0
  3
Standard
 53
0
210
0
220
0
230
1
100
AcDbAlignedDimension
 13
2400
 23
-1428
 33
0
 14
1199.999999999999
 24
-1399
 34
0
 50
90
100
AcDbRotatedDimension
  0
DIMENSION
  5
12D
100
AcDbEntity
  8
comments
  6
ByLayer
 62
  256
370
   -1
100
AcDbDimension
  2
*D9
 10
799.9999999999998
 20
-1388.791796914772
 30
0
 11
785.9374999999998
 21
-1408.395898457386
 31
0
 70
   32
 71
    5
 72
    0
  3
Standard
 53
0
210
0
220
0
230
1
100
AcDbAlignedDimension
 13
2951.000000000147
 23
-1428
 33
0
 14
799.9999999999998
 24
-1388.791796914772
 34
0
 50
90
100
AcDbRotatedDimension
  0
DIMENSION
  5
12E
100
AcDbEntity
  8
comments
  6
ByLayer
 62
  256
370
   -1
100
AcDbDimension
  2
*D10
 10
399.9999999999998
 20
-1379.572844333446
 30
0
 11
385.9374999999998
 21
-1403.786422166723
 31
0
 70
   32
 71
    5
 72
    0
  3
Standard
 53
0
210
0
220
0
230
1
100
AcDbAlignedDimension
 13
2400
 23
-1428
 33
0
 14
399.9999999999998
 24
-1379.572844333446
 34
0
 50
90
100
AcDbRotatedDimension
  0
DIMENSION
  5
12F
100
AcDbEntity
  8
comments
  6
ByLayer
 62
  256
370
   -1
100
AcDbDimension
  2
*D11
 10
-1.64090957196715e-12
 20
-1370
 30
0
 11
-14.06250000000164
 21
-1399
 31
0
 70
   32
 71
    5
 72
    0
  3
Standard
 53
0
210
0
220
0
230
1
100
AcDbAlignedDimension
 13
2400
 23
-1428
 33
0
 14
-1.64090957196715e-12
 24
-1370
 34
0
 50
90
100
AcDbRotatedDimension
  0
DIMENSION
  5
130
100
AcDbEntity
  8
comments
  6
ByLayer
 62
  256
370
   -1
100
AcDbDimension
  2
*D12
 10
2970.489174759003
 20
-1432.491332454714
 30
0
 11
3012.785848756656
 21
-1186.333364322493
 31
0
 70
   33
 71
    5
 72
    0
  3
Standard
 53
0
210
0
220
0
230
1
100
AcDbAlignedDimension
 13
3063.000000000095
 23
-942
 33
0
 14
2951.000000000147
 24
-1428
 34
0
  0
DIMENSION
  5
131
100
AcDbEntity
  8
comments
  6
ByLayer
 62
  256
370
   -1
100
AcDbDimension
  2
*D13
 10
-69.16418882959053
 20
-1389.066884488157
 30
0
 11
-106.607395060737
 21
-1200.329606205932
 31
0
 70
   33
 71
    5
 72
    0
  3
Standard
 53
0
210
0
220
0
230
1
100
AcDbAlignedDimension
 13
-102.0000000000015
 23
-1000
 33
0
 14
-1.64090957196715e-12
 24
-1370
 34
0
  0
LINE
  5
132
100
AcDbEntity
  8
etrave
  6
ByLayer
 62
  256
370
   -1
100
AcDbLine
 10
60.72268460046826
 20
81.84854395894538
 11
124.4980433838114
 21
46.3708609271523
  0
LINE
  5
133
100
AcDbEntity
  8
etrave
  6
ByLayer
 62
  256
370
   -1
100
AcDbLine
 10
124.4980433838114
 20
46.3708609271523
 11
60.72268460046735
 21
10.89317789535866
  0
LINE
  5
134
100
AcDbEntity
  8
etrave
  6
ByLayer
 62
  256
370
   -1
100
AcDbLine
 10
50.99999999999955
 20
28.37086092715194
 11
60.72268460046735
 21
10.89317789535866
  0
LINE
  5
135
100
AcDbEntity
  8
etrave
  6
ByLayer
 62
  256
370
   -1
100
AcDbLine
 10
51
 20
64.37086092715249
 11
60.72268460046826
 21
81.84854395894538
  0
LINE
  5
136
100
AcDbEntity
  8
etrave
  6
ByLayer
 62
  256
370
   -1
100
AcDbLine
 10
0
 20
92.74172185430459
 11
51
 21
64.37086092715249
  0
LINE
  5
137
100
AcDbEntity
  8
etrave
  6
ByLayer
 62
  256
370
   -1
100
AcDbLine
 10
0
 20
92.74172185430459
 11
0
 21
1.35003119794419e-13
  0
LINE
  5
138
100
AcDbEntity
  8
etrave
  6
ByLayer
 62
  256
370
   -1
100
AcDbLine
 10
50.99999999999955
 20
28.37086092715194
 11
0
 21
1.35003119794419e-13
  0
LINE
  5
139
100
AcDbEntity
  8
remorque
  6
ByLayer
 62
  256
370
   -1
100
AcDbLine
 10
3151.000000000001
 20
18.00000000002224
 11
3151.000000000005
 21
-17.99999999997595
  0
LINE
  5
13A
100
AcDbEntity
  8
remorque
  6
ByLayer
 62
  256
370
   -1
100
AcDbLine
 10
1473.095145124948
 20
871.0507432086109
 11
933.0951451249481
 21
871.0507432086109
  0
LINE
  5
13B
100
AcDbEntity
  8
remorque
  6
ByLayer
 62
  256
370
   -1
100
AcDbLine
 10
1413.095145124948
 20
811.0507432086109
 11
993.0951451249479
 21
811.0507432086109
  0
LINE
  5
13C
100
AcDbEntity
  8
remorque
  6
ByLayer
 62
  256
370
   -1
100
AcDbLine
 10
1413.095145124948
 20
651.0507432086109
 11
993.0951451249479
 21
651.0507432086109
  0
LINE
  5
13D
100
AcDbEntity
  8
remorque
  6
ByLayer
 62
  256
370
   -1
100
AcDbLine
 10
1473.095145124948
 20
698.6752058665396
 11
3148.296250416378
 21
18.9493707525548
  0
LINE
  5
13E
100
AcDbEntity
  8
remorque
  6
ByLayer
 62
  256
370
   -1
100
AcDbLine
 10
1473.095145124948
 20
871.0507432086109
 11
1473.095145124948
 21
763.4262805506823
  0
LINE
  5
13F
100
AcDbEntity
  8
remorque
  6
ByLayer
 62
  256
370
   -1
100
AcDbLine
 10
933.0951451249481
 20
871.0507432086109
 11
933.0951451249482
 21
766.6580299031676
  0
LINE
  5
140
100
AcDbEntity
  8
remorque
  6
ByLayer
 62
  256
370
   -1
100
AcDbLine
 10
1473.09514512496
 20
-871.0507432085883
 11
933.0951451249606
 21
-871.0507432085959
  0
LINE
  5
141
100
AcDbEntity
  8
remorque
  6
ByLayer
 62
  256
370
   -1
100
AcDbLine
 10
1413.095145124959
 20
-811.0507432085891
 11
993.095145124959
 21
-811.050743208595
  0
LINE
  5
142
100
AcDbEntity
  8
remorque
  6
ByLayer
 62
  256
370
   -1
100
AcDbLine
 10
1413.095145124957
 20
-651.0507432085891
 11
993.0951451249563
 21
-651.050743208595
  0
LINE
  5
143
100
AcDbEntity
  8
remorque
  6
ByLayer
 62
  256
370
   -1
100
AcDbLine
 10
1473.095145124957
 20
-698.675205866517
 11
3148.296250416378
 21
-18.94937075250844
  0
LINE
  5
144
100
AcDbEntity
  8
remorque
  6
ByLayer
 62
  256
370
   -1
100
AcDbLine
 10
1473.09514512496
 20
-871.0507432085883
 11
1473.095145124958
 21
-763.4262805506597
  0
LINE
  5
145
100
AcDbEntity
  8
remorque
  6
ByLayer
 62
  256
370
   -1
100
AcDbLine
 10
933.0951451249606
 20
-871.0507432085959
 11
933.0951451249596
 21
-766.6580299031526
  0
LINE
  5
146
100
AcDbEntity
  8
remorque
  6
ByLayer
 62
  256
370
   -1
100
AcDbLine
 10
1473.095145124957
 20
-698.675205866517
 11
1473.095145124948
 21
698.6752058665396
  0
LINE
  5
147
100
AcDbEntity
  8
remorque
  6
ByLayer
 62
  256
370
   -1
100
AcDbLine
 10
933.095145124948
 20
695.443456514054
 11
933.095145124958
 21
-695.443456514039
  0
LINE
  5
148
100
AcDbEntity
  8
remorque
  6
ByLayer
 62
  256
370
   -1
100
AcDbLine
 10
993.0951451249563
 20
-651.050743208595
 11
993.095145124959
 21
-811.050743208595
  0
LINE
  5
149
100
AcDbEntity
  8
remorque
  6
ByLayer
 62
  256
370
   -1
100
AcDbLine
 10
1413.095145124948
 20
-651.0507432085891
 11
1413.095145124959
 21
-811.0507432085891
  0
LINE
  5
14A
100
AcDbEntity
  8
remorque
  6
ByLayer
 62
  256
370
   -1
100
AcDbLine
 10
1413.095145124948
 20
-591.050743208589
 11
993.0951451249479
 21
-591.050743208595
  0
LINE
  5
14B
100
AcDbEntity
  8
remorque
  6
ByLayer
 62
  256
370
   -1
100
AcDbLine
 10
993.0951451249479
 20
651.0507432086109
 11
993.0951451249479
 21
811.0507432086109
  0
LINE
  5
14C
100
AcDbEntity
  8
remorque
  6
ByLayer
 62
  256
370
   -1
100
AcDbLine
 10
1413.095145124948
 20
811.0507432086109
 11
1413.095145124948
 21
651.0507432086109
  0
LINE
  5
14D
100
AcDbEntity
  8
remorque
  6
ByLayer
 62
  256
370
   -1
100
AcDbLine
 10
1413.095145124948
 20
591.0507432086109
 11
1413.095145124948
 21
-591.050743208589
  0
LINE
  5
14E
100
AcDbEntity
  8
remorque
  6
ByLayer
 62
  256
370
   -1
100
AcDbLine
 10
993.0951451249479
 20
-591.050743208595
 11
993.095145124948
 21
591.0507432086109
  0
LINE
  5
14F
100
AcDbEntity
  8
remorque
  6
ByLayer
 62
  256
370
   -1
100
AcDbLine
 10
1413.095145124948
 20
591.0507432086109
 11
993.095145124948
 21
591.0507432086109
  0
LINE
  5
150
100
AcDbEntity
  8
remorque
  6
ByLayer
 62
  256
370
   -1
100
AcDbLine
 10
933.095145124948
 20
695.443456514054
 11
-154.6587834710785
 21
-7.331264112052708e-13
  0
LINE
  5
151
100
AcDbEntity
  8
remorque
  6
ByLayer
 62
  256
370
   -1
100
AcDbLine
 10
933.095145124958
 20
-695.443456514039
 11
-154.6587834710785
 21
-7.331264112052708e-13
  0
LINE
  5
152
100
AcDbEntity
  8
remorque
  6
ByLayer
 62
  256
370
   -1
100
AcDbLine
 10
933.0951451249596
 20
-766.6580299031526
 11
-266.0466055171592
 21
-1.178349330037918e-12
  0
LINE
  5
153
100
AcDbEntity
  8
remorque
  6
ByLayer
 62
  256
370
   -1
100
AcDbLine
 10
933.0951451249482
 20
766.6580299031676
 11
-266.0466055171592
 21
-1.178349330037918e-12
  0
LINE
  5
154
100
AcDbEntity
  8
remorque
  6
ByLayer
 62
  256
370
   -1
100
AcDbLine
 10
1473.095145124958
 20
-763.4262805506597
 11
3354.57806503269
 21
2.454803943979941e-11
  0
LINE
  5
155
100
AcDbEntity
  8
remorque
  6
ByLayer
 62
  256
370
   -1
100
AcDbLine
 10
1473.095145124948
 20
763.4262805506823
 11
3354.57806503269
 21
2.454803943979941e-11
  0
DIMENSION
  5
156
100
AcDbEntity
  8
cotes-remorque
  6
ByLayer
 62
  256
370
   -1
100
AcDbDimension
  2
*D14
 10
3605.422921481267
 20
618.2133428971056
 30
0
 11
2669.968757609558
 21
1012.957154927549
 31
0
 70
   33
 71
    5
  3
Standard
 53
0
210
0
220
0
230
1
100
AcDbAlignedDimension
 13
1473.095145124948
 23
763.4262805506822
 33
0
 14
3354.57806503269
 24
2.450219821593047e-11
 34
0
  0
DIMENSION
  5
157
100
AcDbEntity
  8
cotes-remorque
  6
ByLayer
 62
  256
370
   -1
100
AcDbDimension
  2
*D15
 10
-648.0566740163074
 20
597.5078906573726
 30
0
 11
-56.06068421237026
 21
992.684901880588
 31
0
 70
   33
 71
    5
  3
Standard
 53
0
210
0
220
0
230
1
100
AcDbAlignedDimension
 13
933.0951451249482
 23
766.6580299031676
 33
0
 14
-266.0466055171592
 24
-1.178349330037918e-12
 34
0
  0
DIMENSION
  5
158
100
AcDbEntity
  8
cotes-remorque
  6
ByLayer
 62
  256
370
   -1
100
AcDbDimension
  2
*D16
 10
1473.095145124948
 20
1349.873292682051
 30
0
 11
1203.095145124948
 21
1363.935792682051
 31
0
 70
   33
 71
    5
  3
Standard
 53
0
210
0
220
0
230
1
100
AcDbAlignedDimension
 13
933.0951451249481
 23
871.0507432086109
 33
0
 14
1473.095145124948
 24
871.0507432086109
 34
0
  0
DIMENSION
  5
159
100
AcDbEntity
  8
cotes-remorque
  6
ByLayer
 62
  256
370
   -1
100
AcDbDimension
  2
*D17
 10
3893.865267352072
 20
-871.0507432085717
 30
0
 11
3879.802767352066
 21
2.741401681597612e-11
 31
0
 70
   33
 71
    5
  3
Standard
 53
0
210
0
220
0
230
1
100
AcDbAlignedDimension
 13
1473.095145124948
 23
871.0507432086109
 33
0
 14
1473.09514512496
 24
-871.0507432085882
 34
0
  0
ENDSEC
  0
SECTION
  2
OBJECTS
  0
DICTIONARY
  5
C
330
0
100
AcDbDictionary
281
    1
  3
ACAD_GROUP
350
D
  0
DICTIONARY
  5
D
330
C
100
AcDbDictionary
281
    1
  0
PLOTSETTINGS
  5
15A
100
AcDbPlotSettings
  6
1x1
 40
0
 41
0
 42
0
 43
0
  0
ENDSEC
  0
EOF
