999
dxfrw 0.6.3
  0
SECTION
  2
HEADER
  9
$ACADVER
  1
AC1021
  9
$DWGCODEPAGE
  3
ANSI_1252
  9
$INSBASE
 10
0
 20
0
 30
0
  9
$EXTMIN
 10
-171.8788587802419
 20
-23.125
 30
0
  9
$EXTMAX
 10
375.9853405730883
 20
673.8125
 30
0
  9
$LIMMIN
 10
0
 20
0
  9
$LIMMAX
 10
420
 20
297
  9
$ORTHOMODE
 70
    0
  9
$REGENMODE
 70
    1
  9
$FILLMODE
 70
    1
  9
$QTEXTMODE
 70
    0
  9
$MIRRTEXT
 70
    0
  9
$LTSCALE
 40
1
  9
$ATTMODE
 70
    0
  9
$TEXTSIZE
 40
2.5
  9
$TRACEWID
 40
15.68
  9
$TEXTSTYLE
  7
STANDARD
  9
$CLAYER
  8
profiloscad1
  9
$CELTYPE
  6
BYLAYER
  9
$CECOLOR
 62
  256
  9
$CELTSCALE
 40
1
  9
$DISPSILH
 70
    0
  9
$DIMSCALE
 40
2.5
  9
$DIMASZ
 40
2.5
  9
$DIMEXO
 40
0.625
  9
$DIMDLI
 40
3.75
  9
$DIMRND
 40
0
  9
$DIMDLE
 40
0
  9
$DIMEXE
 40
1.25
  9
$DIMTP
 40
0
  9
$DIMTM
 40
0
  9
$DIMTXT
 40
2.5
  9
$DIMCEN
 40
2.5
  9
$DIMTSZ
 40
0
  9
$DIMTOL
 70
    0
  9
$DIMLIM
 70
    0
  9
$DIMTIH
 70
    0
  9
$DIMTOH
 70
    0
  9
$DIMSE1
 70
    0
  9
$DIMSE2
 70
    0
  9
$DIMTAD
 70
    1
  9
$DIMZIN
 70
    8
  9
$DIMBLK
  1

  9
$DIMASO
 70
    1
  9
$DIMSHO
 70
    1
  9
$DIMPOST
  1

  9
$DIMAPOST
  1

  9
$DIMALT
 70
    0
  9
$DIMALTD
 70
    3
  9
$DIMALTF
 40
0.03937
  9
$DIMLFAC
 40
1
  9
$DIMTOFL
 70
    1
  9
$DIMTVP
 40
0
  9
$DIMTIX
 70
    0
  9
$DIMSOXD
 70
    0
  9
$DIMSAH
 70
    0
  9
$DIMBLK1
  1

  9
$DIMBLK2
  1

  9
$DIMSTYLE
  2
STANDARD
  9
$DIMCLRD
 70
    0
  9
$DIMCLRE
 70
    0
  9
$DIMCLRT
 70
    0
  9
$DIMTFAC
 40
1
  9
$DIMGAP
 40
0.625
  9
$DIMJUST
 70
    0
  9
$DIMSD1
 70
    0
  9
$DIMSD2
 70
    0
  9
$DIMTOLJ
 70
    0
  9
$DIMTZIN
 70
    8
  9
$DIMALTZ
 70
    0
  9
$DIMALTTZ
 70
    0
  9
$DIMUPT
 70
    0
  9
$DIMDEC
 70
    1
  9
$DIMTDEC
 70
    2
  9
$DIMALTU
 70
    2
  9
$DIMALTTD
 70
    3
  9
$DIMTXSTY
  7
STANDARD
  9
$DIMAUNIT
 70
    0
  9
$DIMADEC
 70
    2
  9
$DIMALTRND
 40
0
  9
$DIMAZIN
 70
    0
  9
$DIMDSEP
 70
   44
  9
$DIMATFIT
 70
    3
  9
$DIMFRAC
 70
    0
  9
$DIMLDRBLK
  1
STANDARD
  9
$DIMLUNIT
 70
    2
  9
$DIMLWD
 70
   -2
  9
$DIMLWE
 70
   -2
  9
$DIMTMOVE
 70
    0
  9
$DIMFXL
 40
1
  9
$DIMFXLON
 70
    0
  9
$DIMJOGANG
 40
0.7854
  9
$DIMTFILL
 70
    0
  9
$DIMTFILLCLR
 70
    0
  9
$DIMARCSYM
 70
    0
  9
$DIMLTYPE
  6

  9
$DIMLTEX1
  6

  9
$DIMLTEX2
  6

  9
$LUNITS
 70
    2
  9
$LUPREC
 70
    4
  9
$SKETCHINC
 40
1
  9
$FILLETRAD
 40
0
  9
$AUNITS
 70
    0
  9
$AUPREC
 70
    2
  9
$MENU
  1
.
  9
$ELEVATION
 40
0
  9
$PELEVATION
 40
0
  9
$THICKNESS
 40
0
  9
$LIMCHECK
 70
    0
  9
$CHAMFERA
 40
0
  9
$CHAMFERB
 40
0
  9
$CHAMFERC
 40
0
  9
$CHAMFERD
 40
0
  9
$SKPOLY
 70
    0
  9
$USRTIMER
 70
    1
  9
$ANGBASE
 50
0
  9
$ANGDIR
 70
    0
  9
$PDMODE
 70
   34
  9
$PDSIZE
 40
0
  9
$PLINEWID
 40
0
  9
$SPLFRAME
 70
    0
  9
$SPLINETYPE
 70
    2
  9
$SPLINESEGS
 70
    8
  9
$HANDSEED
  5
20000
  9
$SURFTAB1
 70
    6
  9
$SURFTAB2
 70
    6
  9
$SURFTYPE
 70
    6
  9
$SURFU
 70
    6
  9
$SURFV
 70
    6
  9
$UCSBASE
  2

  9
$UCSNAME
  2

  9
$UCSORG
 10
0
 20
0
 30
0
  9
$UCSXDIR
 10
1
 20
0
 30
0
  9
$UCSYDIR
 10
0
 20
1
 30
0
  9
$UCSORTHOREF
  2

  9
$UCSORTHOVIEW
 70
    0
  9
$UCSORGTOP
 10
0
 20
0
 30
0
  9
$UCSORGBOTTOM
 10
0
 20
0
 30
0
  9
$UCSORGLEFT
 10
0
 20
0
 30
0
  9
$UCSORGRIGHT
 10
0
 20
0
 30
0
  9
$UCSORGFRONT
 10
0
 20
0
 30
0
  9
$UCSORGBACK
 10
0
 20
0
 30
0
  9
$PUCSBASE
  2

  9
$PUCSNAME
  2

  9
$PUCSORG
 10
0
 20
0
 30
0
  9
$PUCSXDIR
 10
1
 20
0
 30
0
  9
$PUCSYDIR
 10
0
 20
1
 30
0
  9
$PUCSORTHOREF
  2

  9
$PUCSORTHOVIEW
 70
    0
  9
$PUCSORGTOP
 10
0
 20
0
 30
0
  9
$PUCSORGBOTTOM
 10
0
 20
0
 30
0
  9
$PUCSORGLEFT
 10
0
 20
0
 30
0
  9
$PUCSORGRIGHT
 10
0
 20
0
 30
0
  9
$PUCSORGFRONT
 10
0
 20
0
 30
0
  9
$PUCSORGBACK
 10
0
 20
0
 30
0
  9
$USERI1
 70
    0
  9
$USERI2
 70
    0
  9
$USERI3
 70
    0
  9
$USERI4
 70
    0
  9
$USERI5
 70
    0
  9
$USERR1
 40
0
  9
$USERR2
 40
0
  9
$USERR3
 40
0
  9
$USERR4
 40
0
  9
$USERR5
 40
0
  9
$WORLDVIEW
 70
    1
  9
$SHADEDGE
 70
    3
  9
$SHADEDIF
 70
   70
  9
$TILEMODE
 70
    1
  9
$MAXACTVP
 70
   64
  9
$PINSBASE
 10
125.9724334530895
 20
32.73969924115789
 30
0
  9
$PLIMCHECK
 70
    0
  9
$PEXTMIN
 10
0
 20
0
 30
0
  9
$PEXTMAX
 10
0
 20
0
 30
0
  9
$GRIDMODE
 70
    1
  9
$SNAPSTYLE
 70
    0
  9
$PLIMMIN
 10
0
 20
0
  9
$PLIMMAX
 10
297
 20
210
  9
$UNITMODE
 70
    0
  9
$VISRETAIN
 70
    1
  9
$PLINEGEN
 70
    0
  9
$PSLTSCALE
 70
    1
  9
$TREEDEPTH
 70
 3020
  9
$CMLSTYLE
  2
Standard
  9
$CMLJUST
 70
    0
  9
$CMLSCALE
 40
20
  9
$PROXYGRAPHICS
 70
    1
  9
$MEASUREMENT
 70
    1
  9
$CELWEIGHT
370
   -1
  9
$ENDCAPS
280
    0
  9
$JOINSTYLE
280
    0
  9
$LWDISPLAY
290
    0
  9
$INSUNITS
 70
    0
  9
$HYPERLINKBASE
  1

  9
$STYLESHEET
  1

  9
$XEDIT
290
    1
  9
$CEPSNTYPE
380
    0
  9
$PSTYLEMODE
290
    1
  9
$EXTNAMES
290
    1
  9
$PSVPSCALE
 40
0.2
  9
$OLESTARTUP
290
    0
  9
$SORTENTS
280
  127
  9
$INDEXCTL
280
    0
  9
$HIDETEXT
280
    1
  9
$XCLIPFRAME
290
    0
  9
$HALOGAP
280
    0
  9
$OBSCOLOR
 70
  257
  9
$OBSLTYPE
280
    0
  9
$INTERSECTIONDISPLAY
280
    0
  9
$INTERSECTIONCOLOR
 70
  257
  9
$DIMASSOC
280
    1
  9
$PROJECTNAME
  1

  9
$CAMERADISPLAY
290
    0
  9
$LENSLENGTH
 40
50
  9
$CAMERAHEIGHT
 40
0
  9
$STEPSPERSEC
 40
2
  9
$STEPSIZE
 40
50
  9
$3DDWFPREC
 40
2
  9
$PSOLWIDTH
 40
5
  9
$PSOLHEIGHT
 40
80
  9
$LOFTANG1
 40
1.570796326794897
  9
$LOFTANG2
 40
1.570796326794897
  9
$LOFTMAG1
 40
0
  9
$LOFTMAG2
 40
0
  9
$LOFTPARAM
 70
    7
  9
$LOFTNORMALS
280
    1
  9
$LATITUDE
 40
1
  9
$LONGITUDE
 40
1
  9
$NORTHDIRECTION
 40
0
  9
$TIMEZONE
 70
-8000
  9
$LIGHTGLYPHDISPLAY
280
    1
  9
$TILEMODELIGHTSYNCH
280
    1
  9
$SOLIDHIST
280
    1
  9
$SHOWHIST
280
    1
  9
$DWFFRAME
280
    2
  9
$DGNFRAME
280
    0
  9
$REALWORLDSCALE
290
    1
  9
$INTERFERECOLOR
 62
    1
  9
$CSHADOW
280
    0
  9
$SHADOWPLANELOCATION
 40
0
  0
ENDSEC
  0
SECTION
  2
CLASSES
  0
ENDSEC
  0
SECTION
  2
TABLES
  0
TABLE
  2
VPORT
  5
8
330
0
100
AcDbSymbolTable
 70
    1
  0
VPORT
  5
31
330
2
100
AcDbSymbolTableRecord
100
AcDbViewportTableRecord
  2
*ACTIVE
 70
    0
 10
0
 20
0
 11
1
 21
1
 12
-187.7591350327162
 22
-23.46989187908953
 13
0
 23
0
 14
10
 24
10
 15
10
 25
10
 16
0
 26
0
 36
1
 17
0
 27
0
 37
0
 40
140.8193512745372
 41
1.814814814814815
 42
50
 43
0
 44
0
 50
0
 51
0
 71
    0
 72
  100
 73
    1
 74
    3
 75
    0
 76
    1
 77
    0
 78
    0
281
    0
 65
    1
110
0
120
0
130
0
111
1
121
0
131
0
112
0
122
1
132
0
 79
    0
146
0
348
10020
 60
    7
 61
    5
292
1
282
    1
141
0
142
0
 63
  250
421
3358443
  0
ENDTAB
  0
TABLE
  2
LTYPE
  5
5
330
0
100
AcDbSymbolTable
 70
    4
  0
LTYPE
  5
14
330
5
100
AcDbSymbolTableRecord
100
AcDbLinetypeTableRecord
  2
ByBlock
 70
    0
  3

 72
   65
 73
    0
 40
0
  0
LTYPE
  5
15
330
5
100
AcDbSymbolTableRecord
100
AcDbLinetypeTableRecord
  2
ByLayer
 70
    0
  3

 72
   65
 73
    0
 40
0
  0
LTYPE
  5
16
330
5
100
AcDbSymbolTableRecord
100
AcDbLinetypeTableRecord
  2
Continuous
 70
    0
  3
Solid line
 72
   65
 73
    0
 40
0
  0
LTYPE
  5
32
330
5
100
AcDbSymbolTableRecord
100
AcDbLinetypeTableRecord
  2
DOT
 70
    0
  3
Dot . . . . . . . . . . . . . . . . . . . . . .
 72
   65
 73
    2
 40
6.35
 49
0
 74
    0
 49
-6.35
 74
    0
  0
LTYPE
  5
33
330
5
100
AcDbSymbolTableRecord
100
AcDbLinetypeTableRecord
  2
DOTTINY
 70
    0
  3
Dot (.15x) .....................................
 72
   65
 73
    2
 40
0.9525
 49
0
 74
    0
 49
-0.9525
 74
    0
  0
LTYPE
  5
34
330
5
100
AcDbSymbolTableRecord
100
AcDbLinetypeTableRecord
  2
DOT2
 70
    0
  3
Dot (.5x) .....................................
 72
   65
 73
    2
 40
3.175
 49
0
 74
    0
 49
-3.175
 74
    0
  0
LTYPE
  5
35
330
5
100
AcDbSymbolTableRecord
100
AcDbLinetypeTableRecord
  2
DOTX2
 70
    0
  3
Dot (2x) .  .  .  .  .  .  .  .  .  .  .  .  .
 72
   65
 73
    2
 40
12.7
 49
0
 74
    0
 49
-12.7
 74
    0
  0
LTYPE
  5
36
330
5
100
AcDbSymbolTableRecord
100
AcDbLinetypeTableRecord
  2
DASHED
 70
    0
  3
Dashed _ _ _ _ _ _ _ _ _ _ _ _ _ _ _ _ _
 72
   65
 73
    2
 40
19.05
 49
12.7
 74
    0
 49
-6.35
 74
    0
  0
LTYPE
  5
37
330
5
100
AcDbSymbolTableRecord
100
AcDbLinetypeTableRecord
  2
DASHEDTINY
 70
    0
  3
Dashed (.15x) _ _ _ _ _ _ _ _ _ _ _ _ _ _ _ _ _
 72
   65
 73
    2
 40
2.8575
 49
1.905
 74
    0
 49
-0.9525
 74
    0
  0
LTYPE
  5
38
330
5
100
AcDbSymbolTableRecord
100
AcDbLinetypeTableRecord
  2
DASHED2
 70
    0
  3
Dashed (.5x) _ _ _ _ _ _ _ _ _ _ _ _ _ _ _ _ _
 72
   65
 73
    2
 40
9.524999999999999
 49
6.35
 74
    0
 49
-3.175
 74
    0
  0
LTYPE
  5
39
330
5
100
AcDbSymbolTableRecord
100
AcDbLinetypeTableRecord
  2
DASHEDX2
 70
    0
  3
Dashed (2x) ____  ____  ____  ____  ____  ___
 72
   65
 73
    2
 40
38.09999999999999
 49
25.4
 74
    0
 49
-12.7
 74
    0
  0
LTYPE
  5
3A
330
5
100
AcDbSymbolTableRecord
100
AcDbLinetypeTableRecord
  2
DASHDOT
 70
    0
  3
Dash dot __ . __ . __ . __ . __ . __ . __ . __
 72
   65
 73
    4
 40
25.4
 49
12.7
 74
    0
 49
-6.35
 74
    0
 49
0
 74
    0
 49
-6.35
 74
    0
  0
LTYPE
  5
3B
330
5
100
AcDbSymbolTableRecord
100
AcDbLinetypeTableRecord
  2
DASHDOTTINY
 70
    0
  3
Dash dot (.15x) _._._._._._._._._._._._._._._.
 72
   65
 73
    4
 40
3.81
 49
1.905
 74
    0
 49
-0.9525
 74
    0
 49
0
 74
    0
 49
-0.9525
 74
    0
  0
LTYPE
  5
3C
330
5
100
AcDbSymbolTableRecord
100
AcDbLinetypeTableRecord
  2
DASHDOT2
 70
    0
  3
Dash dot (.5x) _._._._._._._._._._._._._._._.
 72
   65
 73
    4
 40
12.7
 49
6.35
 74
    0
 49
-3.175
 74
    0
 49
0
 74
    0
 49
-3.175
 74
    0
  0
LTYPE
  5
3D
330
5
100
AcDbSymbolTableRecord
100
AcDbLinetypeTableRecord
  2
DASHDOTX2
 70
    0
  3
Dash dot (2x) ____  .  ____  .  ____  .  ___
 72
   65
 73
    4
 40
50.8
 49
25.4
 74
    0
 49
-12.7
 74
    0
 49
0
 74
    0
 49
-12.7
 74
    0
  0
LTYPE
  5
3E
330
5
100
AcDbSymbolTableRecord
100
AcDbLinetypeTableRecord
  2
DIVIDE
 70
    0
  3
Divide ____ . . ____ . . ____ . . ____ . . ____
 72
   65
 73
    6
 40
31.75
 49
12.7
 74
    0
 49
-6.35
 74
    0
 49
0
 74
    0
 49
-6.35
 74
    0
 49
0
 74
    0
 49
-6.35
 74
    0
  0
LTYPE
  5
3F
330
5
100
AcDbSymbolTableRecord
100
AcDbLinetypeTableRecord
  2
DIVIDETINY
 70
    0
  3
Divide (.15x) __..__..__..__..__..__..__..__.._
 72
   65
 73
    6
 40
4.7625
 49
1.905
 74
    0
 49
-0.9525
 74
    0
 49
0
 74
    0
 49
-0.9525
 74
    0
 49
0
 74
    0
 49
-0.9525
 74
    0
  0
LTYPE
  5
40
330
5
100
AcDbSymbolTableRecord
100
AcDbLinetypeTableRecord
  2
DIVIDE2
 70
    0
  3
Divide (.5x) __..__..__..__..__..__..__..__.._
 72
   65
 73
    6
 40
15.875
 49
6.35
 74
    0
 49
-3.175
 74
    0
 49
0
 74
    0
 49
-3.175
 74
    0
 49
0
 74
    0
 49
-3.175
 74
    0
  0
LTYPE
  5
41
330
5
100
AcDbSymbolTableRecord
100
AcDbLinetypeTableRecord
  2
DIVIDEX2
 70
    0
  3
Divide (2x) ________  .  .  ________  .  .  _
 72
   65
 73
    6
 40
63.5
 49
25.4
 74
    0
 49
-12.7
 74
    0
 49
0
 74
    0
 49
-12.7
 74
    0
 49
0
 74
    0
 49
-12.7
 74
    0
  0
LTYPE
  5
42
330
5
100
AcDbSymbolTableRecord
100
AcDbLinetypeTableRecord
  2
BORDER
 70
    0
  3
Border __ __ . __ __ . __ __ . __ __ . __ __ .
 72
   65
 73
    6
 40
44.45
 49
12.7
 74
    0
 49
-6.35
 74
    0
 49
12.7
 74
    0
 49
-6.35
 74
    0
 49
0
 74
    0
 49
-6.35
 74
    0
  0
LTYPE
  5
43
330
5
100
AcDbSymbolTableRecord
100
AcDbLinetypeTableRecord
  2
BORDERTINY
 70
    0
  3
Border (.15x) __.__.__.__.__.__.__.__.__.__.__.
 72
   65
 73
    6
 40
6.6675
 49
1.905
 74
    0
 49
-0.9525
 74
    0
 49
1.905
 74
    0
 49
-0.9525
 74
    0
 49
0
 74
    0
 49
-0.9525
 74
    0
  0
LTYPE
  5
44
330
5
100
AcDbSymbolTableRecord
100
AcDbLinetypeTableRecord
  2
BORDER2
 70
    0
  3
Border (.5x) __.__.__.__.__.__.__.__.__.__.__.
 72
   65
 73
    6
 40
22.225
 49
6.35
 74
    0
 49
-3.175
 74
    0
 49
6.35
 74
    0
 49
-3.175
 74
    0
 49
0
 74
    0
 49
-3.175
 74
    0
  0
LTYPE
  5
45
330
5
100
AcDbSymbolTableRecord
100
AcDbLinetypeTableRecord
  2
BORDERX2
 70
    0
  3
Border (2x) ____  ____  .  ____  ____  .  ___
 72
   65
 73
    6
 40
88.89999999999999
 49
25.4
 74
    0
 49
-12.7
 74
    0
 49
25.4
 74
    0
 49
-12.7
 74
    0
 49
0
 74
    0
 49
-12.7
 74
    0
  0
LTYPE
  5
46
330
5
100
AcDbSymbolTableRecord
100
AcDbLinetypeTableRecord
  2
CENTER
 70
    0
  3
Center ____ _ ____ _ ____ _ ____ _ ____ _ ____
 72
   65
 73
    4
 40
50.8
 49
31.75
 74
    0
 49
-6.35
 74
    0
 49
6.35
 74
    0
 49
-6.35
 74
    0
  0
LTYPE
  5
47
330
5
100
AcDbSymbolTableRecord
100
AcDbLinetypeTableRecord
  2
CENTERTINY
 70
    0
  3
Center (.15x) ___ _ ___ _ ___ _ ___ _ ___ _ ___
 72
   65
 73
    4
 40
7.619999999999999
 49
4.7625
 74
    0
 49
-0.9525
 74
    0
 49
0.9525
 74
    0
 49
-0.9525
 74
    0
  0
LTYPE
  5
48
330
5
100
AcDbSymbolTableRecord
100
AcDbLinetypeTableRecord
  2
CENTER2
 70
    0
  3
Center (.5x) ___ _ ___ _ ___ _ ___ _ ___ _ ___
 72
   65
 73
    4
 40
28.575
 49
19.05
 74
    0
 49
-3.175
 74
    0
 49
3.175
 74
    0
 49
-3.175
 74
    0
  0
LTYPE
  5
49
330
5
100
AcDbSymbolTableRecord
100
AcDbLinetypeTableRecord
  2
CENTERX2
 70
    0
  3
Center (2x) ________  __  ________  __  _____
 72
   65
 73
    4
 40
101.6
 49
63.5
 74
    0
 49
-12.7
 74
    0
 49
12.7
 74
    0
 49
-12.7
 74
    0
  0
ENDTAB
  0
TABLE
  2
LAYER
  5
2
330
0
100
AcDbSymbolTable
 70
    1
  0
LAYER
  5
10
330
2
100
AcDbSymbolTableRecord
100
AcDbLayerTableRecord
  2
0
 70
    1
 62
    7
  6
CONTINUOUS
370
    0
390
F
  0
LAYER
  5
4A
330
2
100
AcDbSymbolTableRecord
100
AcDbLayerTableRecord
  2
couple 7
 70
    0
 62
    7
  6
CONTINUOUS
370
   18
390
F
  0
LAYER
  5
4B
330
2
100
AcDbSymbolTableRecord
100
AcDbLayerTableRecord
  2
couple7-quotes
 70
    0
 62
  253
420
10526884
  6
CONTINUOUS
370
   13
390
F
  0
LAYER
  5
4C
330
2
100
AcDbSymbolTableRecord
100
AcDbLayerTableRecord
  2
profiloscad1
 70
    1
 62
    7
  6
CONTINUOUS
370
    0
390
F
  0
ENDTAB
  0
TABLE
  2
STYLE
  5
3
330
0
100
AcDbSymbolTable
 70
    3
  0
STYLE
  5
4D
330
2
100
AcDbSymbolTableRecord
100
AcDbTextStyleTableRecord
  2
STANDARD
 70
    0
 40
0
 41
1
 50
0
 71
    0
 42
1
  3
STANDARD
  4

  0
ENDTAB
  0
TABLE
  2
VIEW
  5
6
330
0
100
AcDbSymbolTable
 70
    0
  0
ENDTAB
  0
TABLE
  2
UCS
  5
7
330
0
100
AcDbSymbolTable
 70
    0
  0
ENDTAB
  0
TABLE
  2
APPID
  5
9
330
0
100
AcDbSymbolTable
 70
    1
  0
APPID
  5
12
330
9
100
AcDbSymbolTableRecord
100
AcDbRegAppTableRecord
  2
ACAD
 70
    0
  0
APPID
  5
4E
330
9
100
AcDbSymbolTableRecord
100
AcDbRegAppTableRecord
  2
LibreCad
 70
    0
  0
ENDTAB
  0
TABLE
  2
DIMSTYLE
  5
A
330
0
100
AcDbSymbolTable
 70
    1
100
AcDbDimStyleTable
 71
    1
  0
DIMSTYLE
105
4F
330
A
100
AcDbSymbolTableRecord
100
AcDbDimStyleTableRecord
  2
Standard
 70
    0
 40
2.5
 41
2.5
 42
0.625
 43
0.38
 44
1.25
 45
0
 46
0
 47
0
 48
0
 49
1
140
2.5
141
0.09
142
0
143
25.4
144
1
145
0
146
1
147
0.625
148
0
 71
    0
 72
    0
 73
    0
 74
    1
 75
    0
 76
    0
 77
    0
 78
    8
 79
    0
170
    0
171
    2
172
    0
173
    0
174
    0
175
    0
176
    0
177
    0
178
    0
179
    2
271
    1
272
    4
273
    2
274
    2
275
    0
276
    0
277
    2
278
   44
279
    0
280
    0
281
    0
282
    0
283
    1
284
    0
285
    0
286
    0
288
    0
289
    3
340
STANDARD
341

371
   -2
372
   -2
  0
ENDTAB
  0
TABLE
  2
BLOCK_RECORD
  5
1
330
0
100
AcDbSymbolTable
 70
    2
  0
BLOCK_RECORD
  5
1F
330
1
100
AcDbSymbolTableRecord
100
AcDbBlockTableRecord
  2
*Model_Space
 70
    0
280
    1
281
    0
  0
BLOCK_RECORD
  5
1E
330
1
100
AcDbSymbolTableRecord
100
AcDbBlockTableRecord
  2
*Paper_Space
 70
    0
280
    1
281
    0
  0
BLOCK_RECORD
  5
50
330
1
100
AcDbSymbolTableRecord
100
AcDbBlockTableRecord
  2
*D4
 70
    0
280
    1
281
    0
  0
BLOCK_RECORD
  5
53
330
1
100
AcDbSymbolTableRecord
100
AcDbBlockTableRecord
  2
*D13
 70
    0
280
    1
281
    0
  0
BLOCK_RECORD
  5
56
330
1
100
AcDbSymbolTableRecord
100
AcDbBlockTableRecord
  2
*D5
 70
    0
280
    1
281
    0
  0
BLOCK_RECORD
  5
59
330
1
100
AcDbSymbolTableRecord
100
AcDbBlockTableRecord
  2
*D7
 70
    0
280
    1
281
    0
  0
BLOCK_RECORD
  5
5C
330
1
100
AcDbSymbolTableRecord
100
AcDbBlockTableRecord
  2
*D8
 70
    0
280
    1
281
    0
  0
BLOCK_RECORD
  5
5F
330
1
100
AcDbSymbolTableRecord
100
AcDbBlockTableRecord
  2
*D1
 70
    0
280
    1
281
    0
  0
BLOCK_RECORD
  5
62
330
1
100
AcDbSymbolTableRecord
100
AcDbBlockTableRecord
  2
*D10
 70
    0
280
    1
281
    0
  0
BLOCK_RECORD
  5
65
330
1
100
AcDbSymbolTableRecord
100
AcDbBlockTableRecord
  2
*D9
 70
    0
280
    1
281
    0
  0
BLOCK_RECORD
  5
68
330
1
100
AcDbSymbolTableRecord
100
AcDbBlockTableRecord
  2
*D12
 70
    0
280
    1
281
    0
  0
BLOCK_RECORD
  5
6B
330
1
100
AcDbSymbolTableRecord
100
AcDbBlockTableRecord
  2
*D2
 70
    0
280
    1
281
    0
  0
BLOCK_RECORD
  5
6E
330
1
100
AcDbSymbolTableRecord
100
AcDbBlockTableRecord
  2
*D6
 70
    0
280
    1
281
    0
  0
BLOCK_RECORD
  5
71
330
1
100
AcDbSymbolTableRecord
100
AcDbBlockTableRecord
  2
*D3
 70
    0
280
    1
281
    0
  0
BLOCK_RECORD
  5
74
330
1
100
AcDbSymbolTableRecord
100
AcDbBlockTableRecord
  2
*D11
 70
    0
280
    1
281
    0
  0
ENDTAB
  0
ENDSEC
  0
SECTION
  2
BLOCKS
  0
BLOCK
  5
20
330
1F
100
AcDbEntity
  8
0
100
AcDbBlockBegin
  2
*Model_Space
 70
    0
 10
0
 20
0
 30
0
  3
*Model_Space
  1

  0
ENDBLK
  5
21
330
1F
100
AcDbEntity
  8
0
100
AcDbBlockEnd
  0
BLOCK
  5
1C
330
1B
100
AcDbEntity
  8
0
100
AcDbBlockBegin
  2
*Paper_Space
 70
    0
 10
0
 20
0
 30
0
  3
*Paper_Space
  1

  0
ENDBLK
  5
1D
330
1F
100
AcDbEntity
  8
0
100
AcDbBlockEnd
  0
BLOCK
  5
51
330
50
100
AcDbEntity
  8
0
100
AcDbBlockBegin
  2
*D4
 70
    1
 10
0
 20
0
  3
*D4
  1

  0
LINE
  5
77
100
AcDbEntity
  8
couple7-quotes
  6
ByBlock
 62
    0
370
   -2
100
AcDbLine
 10
30.69307951915843
 20
646
 11
173.3069204808416
 21
646
  0
SOLID
  5
78
100
AcDbEntity
  8
couple7-quotes
  6
ByBlock
 62
    0
370
   -2
100
AcDbTrace
 10
30.69307951915843
 20
646
 30
0
 11
36.94307951915843
 21
647.0407116444321
 31
0
 12
36.94307951915843
 22
644.9592883555679
 32
0
 13
36.94307951915843
 23
644.9592883555679
 33
0
  0
SOLID
  5
79
100
AcDbEntity
  8
couple7-quotes
  6
ByBlock
 62
    0
370
   -2
100
AcDbTrace
 10
173.3069204808416
 20
646
 30
0
 11
167.0569204808416
 21
644.9592883555679
 31
0
 12
167.0569204808416
 22
647.0407116444321
 32
0
 13
167.0569204808416
 23
647.0407116444321
 33
0
  0
MTEXT
  5
7A
100
AcDbEntity
  8
couple7-quotes
  6
CONTINUOUS
 62
    0
370
   -2
100
AcDbMText
 10
102
 20
650.6875
 30
0
 40
6.25
 41
19.09722222222261
 71
    5
 72
    1
  1
142,6
  7
STANDARD
210
0
220
0
230
1
 50
0
 73
    2
 44
1
  0
LINE
  5
7B
100
AcDbEntity
  8
couple7-quotes
  6
ByBlock
 62
    0
370
   -2
100
AcDbLine
 10
30.69307951915842
 20
627.5625
 11
30.69307951915843
 21
649.125
  0
LINE
  5
7C
100
AcDbEntity
  8
couple7-quotes
  6
ByBlock
 62
    0
370
   -2
100
AcDbLine
 10
173.3069204808416
 20
627.5625
 11
173.3069204808416
 21
649.125
  0
ENDBLK
  5
52
330
50
100
AcDbEntity
  8
0
100
AcDbBlockEnd
  0
BLOCK
  5
54
330
53
100
AcDbEntity
  8
0
100
AcDbBlockBegin
  2
*D13
 70
    1
 10
0
 20
0
  3
*D13
  1

  0
LINE
  5
7D
100
AcDbEntity
  8
couple7-quotes
  6
ByBlock
 62
    0
370
   -2
100
AcDbLine
 10
372.8603405730883
 20
486.0000000000001
 11
372.8603405730883
 21
0
  0
SOLID
  5
7E
100
AcDbEntity
  8
couple7-quotes
  6
ByBlock
 62
    0
370
   -2
100
AcDbTrace
 10
372.8603405730883
 20
486.0000000000001
 30
0
 11
373.9010522175204
 21
479.7500000000001
 31
0
 12
371.8196289286561
 22
479.7500000000001
 32
0
 13
371.8196289286561
 23
479.7500000000001
 33
0
  0
SOLID
  5
7F
100
AcDbEntity
  8
couple7-quotes
  6
ByBlock
 62
    0
370
   -2
100
AcDbTrace
 10
372.8603405730883
 20
0
 30
0
 11
371.8196289286561
 21
6.25
 31
0
 12
373.9010522175204
 22
6.25
 32
0
 13
373.9010522175204
 23
6.25
 33
0
  0
MTEXT
  5
80
100
AcDbEntity
  8
couple7-quotes
  6
CONTINUOUS
 62
    0
370
   -2
100
AcDbMText
 10
368.1728405730883
 20
243.0000000000001
 30
0
 40
6.25
 41
13.19444444444483
 71
    5
 72
    1
  1
486
  7
STANDARD
210
0
220
0
230
1
 50
90
 73
    2
 44
1
  0
LINE
  5
81
100
AcDbEntity
  8
couple7-quotes
  6
ByBlock
 62
    0
370
   -2
100
AcDbLine
 10
294.3747603051223
 20
486.0000000000001
 11
375.9853405730883
 21
486.0000000000001
  0
LINE
  5
82
100
AcDbEntity
  8
couple7-quotes
  6
ByBlock
 62
    0
370
   -2
100
AcDbLine
 10
205.5625
 20
0
 11
375.9853405730883
 21
0
  0
ENDBLK
  5
55
330
53
100
AcDbEntity
  8
0
100
AcDbBlockEnd
  0
BLOCK
  5
57
330
56
100
AcDbEntity
  8
0
100
AcDbBlockBegin
  2
*D5
 70
    1
 10
0
 20
0
  3
*D5
  1

  0
LINE
  5
83
100
AcDbEntity
  8
couple7-quotes
  6
ByBlock
 62
    0
370
   -2
100
AcDbLine
 10
173.3069204808416
 20
646
 11
292.8122603051223
 21
646
  0
SOLID
  5
84
100
AcDbEntity
  8
couple7-quotes
  6
ByBlock
 62
    0
370
   -2
100
AcDbTrace
 10
173.3069204808416
 20
646
 30
0
 11
179.5569204808416
 21
647.0407116444321
 31
0
 12
179.5569204808416
 22
644.9592883555679
 32
0
 13
179.5569204808416
 23
644.9592883555679
 33
0
  0
SOLID
  5
85
100
AcDbEntity
  8
couple7-quotes
  6
ByBlock
 62
    0
370
   -2
100
AcDbTrace
 10
292.8122603051223
 20
646
 30
0
 11
286.5622603051223
 21
644.9592883555679
 31
0
 12
286.5622603051223
 22
647.0407116444321
 32
0
 13
286.5622603051223
 23
647.0407116444321
 33
0
  0
MTEXT
  5
86
100
AcDbEntity
  8
couple7-quotes
  6
CONTINUOUS
 62
    0
370
   -2
100
AcDbMText
 10
233.059590392982
 20
650.6875
 30
0
 40
6.25
 41
17.01388888888928
 71
    5
 72
    1
  1
119,5
  7
STANDARD
210
0
220
0
230
1
 50
0
 73
    2
 44
1
  0
LINE
  5
87
100
AcDbEntity
  8
couple7-quotes
  6
ByBlock
 62
    0
370
   -2
100
AcDbLine
 10
173.3069204808416
 20
627.5625
 11
173.3069204808416
 21
649.125
  0
LINE
  5
88
100
AcDbEntity
  8
couple7-quotes
  6
ByBlock
 62
    0
370
   -2
100
AcDbLine
 10
292.8122603051223
 20
627.5625
 11
292.8122603051223
 21
649.125
  0
ENDBLK
  5
58
330
56
100
AcDbEntity
  8
0
100
AcDbBlockEnd
  0
BLOCK
  5
5A
330
59
100
AcDbEntity
  8
0
100
AcDbBlockBegin
  2
*D7
 70
    1
 10
0
 20
0
  3
*D7
  1

  0
LINE
  5
89
100
AcDbEntity
  8
couple7-quotes
  6
ByBlock
 62
    0
370
   -2
100
AcDbLine
 10
324.6785565317144
 20
646
 11
343.6949550708134
 21
646
  0
SOLID
  5
8A
100
AcDbEntity
  8
couple7-quotes
  6
ByBlock
 62
    0
370
   -2
100
AcDbTrace
 10
324.6785565317144
 20
646
 30
0
 11
330.9285565317144
 21
647.0407116444321
 31
0
 12
330.9285565317144
 22
644.9592883555679
 32
0
 13
330.9285565317144
 23
644.9592883555679
 33
0
  0
SOLID
  5
8B
100
AcDbEntity
  8
couple7-quotes
  6
ByBlock
 62
    0
370
   -2
100
AcDbTrace
 10
343.6949550708134
 20
646
 30
0
 11
337.4449550708134
 21
644.9592883555679
 31
0
 12
337.4449550708134
 22
647.0407116444321
 32
0
 13
337.4449550708134
 23
647.0407116444321
 33
0
  0
MTEXT
  5
8C
100
AcDbEntity
  8
couple7-quotes
  6
CONTINUOUS
 62
    0
370
   -2
100
AcDbMText
 10
334.1867558012639
 20
650.6875
 30
0
 40
6.25
 41
6.25
 71
    5
 72
    1
  1
19
  7
STANDARD
210
0
220
0
230
1
 50
0
 73
    2
 44
1
  0
LINE
  5
8D
100
AcDbEntity
  8
couple7-quotes
  6
ByBlock
 62
    0
370
   -2
100
AcDbLine
 10
324.6785565317144
 20
627.5625
 11
324.6785565317144
 21
649.125
  0
LINE
  5
8E
100
AcDbEntity
  8
couple7-quotes
  6
ByBlock
 62
    0
370
   -2
100
AcDbLine
 10
343.6949550708134
 20
587.5625
 11
343.6949550708134
 21
649.125
  0
ENDBLK
  5
5B
330
59
100
AcDbEntity
  8
0
100
AcDbBlockEnd
  0
BLOCK
  5
5D
330
5C
100
AcDbEntity
  8
0
100
AcDbBlockBegin
  2
*D8
 70
    1
 10
0
 20
0
  3
*D8
  1

  0
LINE
  5
8F
100
AcDbEntity
  8
couple7-quotes
  6
ByBlock
 62
    0
370
   -2
100
AcDbLine
 10
-139.694955070815
 20
666
 11
343.6949550708134
 21
666
  0
SOLID
  5
90
100
AcDbEntity
  8
couple7-quotes
  6
ByBlock
 62
    0
370
   -2
100
AcDbTrace
 10
-139.694955070815
 20
666
 30
0
 11
-133.444955070815
 21
667.0407116444321
 31
0
 12
-133.444955070815
 22
664.9592883555679
 32
0
 13
-133.444955070815
 23
664.9592883555679
 33
0
  0
SOLID
  5
91
100
AcDbEntity
  8
couple7-quotes
  6
ByBlock
 62
    0
370
   -2
100
AcDbTrace
 10
343.6949550708134
 20
666
 30
0
 11
337.4449550708134
 21
664.9592883555679
 31
0
 12
337.4449550708134
 22
667.0407116444321
 32
0
 13
337.4449550708134
 23
667.0407116444321
 33
0
  0
MTEXT
  5
92
100
AcDbEntity
  8
couple7-quotes
  6
CONTINUOUS
 62
    0
370
   -2
100
AcDbMText
 10
101.9999999999992
 20
670.6875
 30
0
 40
6.25
 41
21.18055555555594
 71
    5
 72
    1
  1
483,4
  7
STANDARD
210
0
220
0
230
1
 50
0
 73
    2
 44
1
  0
LINE
  5
93
100
AcDbEntity
  8
couple7-quotes
  6
ByBlock
 62
    0
370
   -2
100
AcDbLine
 10
-139.694955070815
 20
587.5624999999959
 11
-139.694955070815
 21
669.125
  0
LINE
  5
94
100
AcDbEntity
  8
couple7-quotes
  6
ByBlock
 62
    0
370
   -2
100
AcDbLine
 10
343.6949550708134
 20
587.5625
 11
343.6949550708134
 21
669.125
  0
ENDBLK
  5
5E
330
5C
100
AcDbEntity
  8
0
100
AcDbBlockEnd
  0
BLOCK
  5
60
330
5F
100
AcDbEntity
  8
0
100
AcDbBlockBegin
  2
*D1
 70
    1
 10
0
 20
0
  3
*D1
  1

  0
LINE
  5
95
100
AcDbEntity
  8
couple7-quotes
  6
ByBlock
 62
    0
370
   -2
100
AcDbLine
 10
-139.694955070815
 20
646
 11
-120.678556531714
 21
646
  0
SOLID
  5
96
100
AcDbEntity
  8
couple7-quotes
  6
ByBlock
 62
    0
370
   -2
100
AcDbTrace
 10
-139.694955070815
 20
646
 30
0
 11
-133.444955070815
 21
647.0407116444321
 31
0
 12
-133.444955070815
 22
644.9592883555679
 32
0
 13
-133.444955070815
 23
644.9592883555679
 33
0
  0
SOLID
  5
97
100
AcDbEntity
  8
couple7-quotes
  6
ByBlock
 62
    0
370
   -2
100
AcDbTrace
 10
-120.678556531714
 20
646
 30
0
 11
-126.928556531714
 21
644.9592883555679
 31
0
 12
-126.928556531714
 22
647.0407116444321
 32
0
 13
-126.928556531714
 23
647.0407116444321
 33
0
  0
MTEXT
  5
98
100
AcDbEntity
  8
couple7-quotes
  6
CONTINUOUS
 62
    0
370
   -2
100
AcDbMText
 10
-130.1867558012645
 20
650.6875
 30
0
 40
6.25
 41
6.25
 71
    5
 72
    1
  1
19
  7
STANDARD
210
0
220
0
230
1
 50
0
 73
    2
 44
1
  0
LINE
  5
99
100
AcDbEntity
  8
couple7-quotes
  6
ByBlock
 62
    0
370
   -2
100
AcDbLine
 10
-139.694955070815
 20
587.5624999999959
 11
-139.694955070815
 21
649.125
  0
LINE
  5
9A
100
AcDbEntity
  8
couple7-quotes
  6
ByBlock
 62
    0
370
   -2
100
AcDbLine
 10
-120.678556531714
 20
627.5625000000001
 11
-120.678556531714
 21
649.125
  0
ENDBLK
  5
61
330
5F
100
AcDbEntity
  8
0
100
AcDbBlockEnd
  0
BLOCK
  5
63
330
62
100
AcDbEntity
  8
0
100
AcDbBlockBegin
  2
*D10
 70
    1
 10
0
 20
0
  3
*D10
  1

  0
LINE
  5
9B
100
AcDbEntity
  8
couple7-quotes
  6
ByBlock
 62
    0
370
   -2
100
AcDbLine
 10
-131.7325666251023
 20
485.5955952420273
 11
-171.8788587802419
 21
474.8384286799537
  0
LINE
  5
9C
100
AcDbEntity
  8
couple7-quotes
  6
ByBlock
 62
    0
370
   -2
100
AcDbLine
 10
-1.509259103576669
 20
-0.404404757972688
 11
-41.65555125871634
 21
-11.16157132004626
  0
LINE
  5
9D
100
AcDbEntity
  8
couple7-quotes
  6
ByBlock
 62
    0
370
   -2
100
AcDbLine
 10
-168.8603405730886
 20
475.6472381958991
 11
-38.63703305156299
 21
-10.35276180410088
  0
SOLID
  5
9E
100
AcDbEntity
  8
couple7-quotes
  6
ByBlock
 62
    0
370
   -2
100
AcDbTrace
 10
-168.8603405730886
 20
475.6472381958991
 30
0
 11
-166.2374712861211
 21
469.8795577756314
 31
0
 12
-168.2479717962746
 22
469.3408457875534
 32
0
 13
-168.2479717962746
 23
469.3408457875534
 33
0
  0
SOLID
  5
9F
100
AcDbEntity
  8
couple7-quotes
  6
ByBlock
 62
    0
370
   -2
100
AcDbTrace
 10
-38.63703305156299
 20
-10.35276180410088
 30
0
 11
-41.25990233853048
 21
-4.585081383833197
 31
0
 12
-39.24940182837701
 22
-4.046369395755216
 32
0
 13
-39.24940182837701
 23
-4.046369395755216
 33
0
  0
MTEXT
  5
A0
100
AcDbEntity
  8
couple7-quotes
  6
CONTINUOUS
 62
    0
370
   -2
100
AcDbMText
 10
-99.22090950159578
 20
233.8604524698171
 30
0
 40
6.25
 41
18.40277777777855
 71
    5
 72
    1
  1
503,1
  7
STANDARD
210
0
220
0
230
1
 50
285
 73
    2
 44
1
  0
ENDBLK
  5
64
330
62
100
AcDbEntity
  8
0
100
AcDbBlockEnd
  0
BLOCK
  5
66
330
65
100
AcDbEntity
  8
0
100
AcDbBlockBegin
  2
*D9
 70
    1
 10
0
 20
0
  3
*D9
  1

  0
LINE
  5
A1
100
AcDbEntity
  8
couple7-quotes
  6
ByBlock
 62
    0
370
   -2
100
AcDbLine
 10
-90.32151940869893
 20
485.5955952420273
 11
-149.7863280896199
 21
469.6620477779034
  0
LINE
  5
A2
100
AcDbEntity
  8
couple7-quotes
  6
ByBlock
 62
    0
370
   -2
100
AcDbLine
 10
29.18382041558175
 20
39.59559524202731
 11
-30.28098826533925
 21
23.66204777790334
  0
LINE
  5
A3
100
AcDbEntity
  8
couple7-quotes
  6
ByBlock
 62
    0
370
   -2
100
AcDbLine
 10
-146.7678098824666
 20
470.4708572938487
 11
-27.26247005818592
 21
24.47085729384872
  0
SOLID
  5
A4
100
AcDbEntity
  8
couple7-quotes
  6
ByBlock
 62
    0
370
   -2
100
AcDbTrace
 10
-146.7678098824666
 20
470.4708572938487
 30
0
 11
-144.1449405954991
 21
464.703176873581
 31
0
 12
-146.1554411056526
 22
464.164464885503
 32
0
 13
-146.1554411056526
 23
464.164464885503
 33
0
  0
SOLID
  5
A5
100
AcDbEntity
  8
couple7-quotes
  6
ByBlock
 62
    0
370
   -2
100
AcDbTrace
 10
-27.26247005818592
 20
24.47085729384872
 30
0
 11
-29.8853393451534
 21
30.2385377141164
 31
0
 12
-27.87483883499993
 22
30.77724970219439
 32
0
 13
-27.87483883499993
 23
30.77724970219439
 33
0
  0
MTEXT
  5
A6
100
AcDbEntity
  8
couple7-quotes
  6
CONTINUOUS
 62
    0
370
   -2
100
AcDbMText
 10
-82.48736265959626
 20
248.6840715677668
 30
0
 40
6.25
 41
19.09722222222261
 71
    5
 72
    1
  1
461,7
  7
STANDARD
210
0
220
0
230
1
 50
285
 73
    2
 44
1
  0
ENDBLK
  5
67
330
65
100
AcDbEntity
  8
0
100
AcDbBlockEnd
  0
BLOCK
  5
69
330
68
100
AcDbEntity
  8
0
100
AcDbBlockBegin
  2
*D12
 70
    1
 10
0
 20
0
  3
*D12
  1

  0
LINE
  5
A7
100
AcDbEntity
  8
couple7-quotes
  6
ByBlock
 62
    0
370
   -2
100
AcDbLine
 10
353.5418240473069
 20
486
 11
353.5418240473069
 21
40
  0
SOLID
  5
A8
100
AcDbEntity
  8
couple7-quotes
  6
ByBlock
 62
    0
370
   -2
100
AcDbTrace
 10
353.5418240473069
 20
486
 30
0
 11
354.5825356917391
 21
479.75
 31
0
 12
352.5011124028748
 22
479.75
 32
0
 13
352.5011124028748
 23
479.75
 33
0
  0
SOLID
  5
A9
100
AcDbEntity
  8
couple7-quotes
  6
ByBlock
 62
    0
370
   -2
100
AcDbTrace
 10
353.5418240473069
 20
40
 30
0
 11
352.5011124028748
 21
46.25
 31
0
 12
354.5825356917391
 22
46.25
 32
0
 13
354.5825356917391
 23
46.25
 33
0
  0
MTEXT
  5
AA
100
AcDbEntity
  8
couple7-quotes
  6
CONTINUOUS
 62
    0
370
   -2
100
AcDbMText
 10
348.8543240473069
 20
263
 30
0
 40
6.25
 41
13.88888888888928
 71
    5
 72
    1
  1
446
  7
STANDARD
210
0
220
0
230
1
 50
90
 73
    2
 44
1
  0
LINE
  5
AB
100
AcDbEntity
  8
couple7-quotes
  6
ByBlock
 62
    0
370
   -2
100
AcDbLine
 10
335.7858075215256
 20
486
 11
356.6668240473069
 21
486
  0
LINE
  5
AC
100
AcDbEntity
  8
couple7-quotes
  6
ByBlock
 62
    0
370
   -2
100
AcDbLine
 10
174.8694204808416
 20
40
 11
356.6668240473069
 21
40
  0
ENDBLK
  5
6A
330
68
100
AcDbEntity
  8
0
100
AcDbBlockEnd
  0
BLOCK
  5
6C
330
6B
100
AcDbEntity
  8
0
100
AcDbBlockBegin
  2
*D2
 70
    1
 10
0
 20
0
  3
*D2
  1

  0
LINE
  5
AD
100
AcDbEntity
  8
couple7-quotes
  6
ByBlock
 62
    0
370
   -2
100
AcDbLine
 10
-120.6785565317141
 20
646
 11
-88.81226030512227
 21
646
  0
SOLID
  5
AE
100
AcDbEntity
  8
couple7-quotes
  6
ByBlock
 62
    0
370
   -2
100
AcDbTrace
 10
-120.6785565317141
 20
646
 30
0
 11
-114.4285565317141
 21
647.0407116444321
 31
0
 12
-114.4285565317141
 22
644.9592883555679
 32
0
 13
-114.4285565317141
 23
644.9592883555679
 33
0
  0
SOLID
  5
AF
100
AcDbEntity
  8
couple7-quotes
  6
ByBlock
 62
    0
370
   -2
100
AcDbTrace
 10
-88.81226030512227
 20
646
 30
0
 11
-95.06226030512227
 21
644.9592883555679
 31
0
 12
-95.06226030512227
 22
647.0407116444321
 32
0
 13
-95.06226030512227
 23
647.0407116444321
 33
0
  0
MTEXT
  5
B0
100
AcDbEntity
  8
couple7-quotes
  6
CONTINUOUS
 62
    0
370
   -2
100
AcDbMText
 10
-104.7454084184182
 20
650.6875
 30
0
 40
6.25
 41
13.54166666666706
 71
    5
 72
    1
  1
31,9
  7
STANDARD
210
0
220
0
230
1
 50
0
 73
    2
 44
1
  0
LINE
  5
B1
100
AcDbEntity
  8
couple7-quotes
  6
ByBlock
 62
    0
370
   -2
100
AcDbLine
 10
-120.6785565317141
 20
627.5625
 11
-120.6785565317141
 21
649.125
  0
LINE
  5
B2
100
AcDbEntity
  8
couple7-quotes
  6
ByBlock
 62
    0
370
   -2
100
AcDbLine
 10
-88.81226030512227
 20
627.5625
 11
-88.81226030512227
 21
649.125
  0
ENDBLK
  5
6D
330
6B
100
AcDbEntity
  8
0
100
AcDbBlockEnd
  0
BLOCK
  5
6F
330
6E
100
AcDbEntity
  8
0
100
AcDbBlockBegin
  2
*D6
 70
    1
 10
0
 20
0
  3
*D6
  1

  0
LINE
  5
B3
100
AcDbEntity
  8
couple7-quotes
  6
ByBlock
 62
    0
370
   -2
100
AcDbLine
 10
292.8122603051223
 20
646
 11
324.6785565317144
 21
646
  0
SOLID
  5
B4
100
AcDbEntity
  8
couple7-quotes
  6
ByBlock
 62
    0
370
   -2
100
AcDbTrace
 10
292.8122603051223
 20
646
 30
0
 11
299.0622603051223
 21
647.0407116444321
 31
0
 12
299.0622603051223
 22
644.9592883555679
 32
0
 13
299.0622603051223
 23
644.9592883555679
 33
0
  0
SOLID
  5
B5
100
AcDbEntity
  8
couple7-quotes
  6
ByBlock
 62
    0
370
   -2
100
AcDbTrace
 10
324.6785565317144
 20
646
 30
0
 11
318.4285565317144
 21
644.9592883555679
 31
0
 12
318.4285565317144
 22
647.0407116444321
 32
0
 13
318.4285565317144
 23
647.0407116444321
 33
0
  0
MTEXT
  5
B6
100
AcDbEntity
  8
couple7-quotes
  6
CONTINUOUS
 62
    0
370
   -2
100
AcDbMText
 10
308.7454084184184
 20
650.6875
 30
0
 40
6.25
 41
13.54166666666706
 71
    5
 72
    1
  1
31,9
  7
STANDARD
210
0
220
0
230
1
 50
0
 73
    2
 44
1
  0
LINE
  5
B7
100
AcDbEntity
  8
couple7-quotes
  6
ByBlock
 62
    0
370
   -2
100
AcDbLine
 10
292.8122603051223
 20
627.5625
 11
292.8122603051223
 21
649.125
  0
LINE
  5
B8
100
AcDbEntity
  8
couple7-quotes
  6
ByBlock
 62
    0
370
   -2
100
AcDbLine
 10
324.6785565317144
 20
627.5625
 11
324.6785565317144
 21
649.125
  0
ENDBLK
  5
70
330
6E
100
AcDbEntity
  8
0
100
AcDbBlockEnd
  0
BLOCK
  5
72
330
71
100
AcDbEntity
  8
0
100
AcDbBlockBegin
  2
*D3
 70
    1
 10
0
 20
0
  3
*D3
  1

  0
LINE
  5
B9
100
AcDbEntity
  8
couple7-quotes
  6
ByBlock
 62
    0
370
   -2
100
AcDbLine
 10
30.69307951915843
 20
646
 11
-88.81226030512227
 21
646
  0
SOLID
  5
BA
100
AcDbEntity
  8
couple7-quotes
  6
ByBlock
 62
    0
370
   -2
100
AcDbTrace
 10
30.69307951915843
 20
646
 30
0
 11
24.44307951915843
 21
644.9592883555679
 31
0
 12
24.44307951915843
 22
647.0407116444321
 32
0
 13
24.44307951915843
 23
647.0407116444321
 33
0
  0
SOLID
  5
BB
100
AcDbEntity
  8
couple7-quotes
  6
ByBlock
 62
    0
370
   -2
100
AcDbTrace
 10
-88.81226030512227
 20
646
 30
0
 11
-82.56226030512227
 21
647.0407116444321
 31
0
 12
-82.56226030512227
 22
644.9592883555679
 32
0
 13
-82.56226030512227
 23
644.9592883555679
 33
0
  0
MTEXT
  5
BC
100
AcDbEntity
  8
couple7-quotes
  6
CONTINUOUS
 62
    0
370
   -2
100
AcDbMText
 10
-29.05959039298192
 20
650.6875
 30
0
 40
6.25
 41
17.01388888888928
 71
    5
 72
    1
  1
119,5
  7
STANDARD
210
0
220
0
230
1
 50
360
 73
    2
 44
1
  0
LINE
  5
BD
100
AcDbEntity
  8
couple7-quotes
  6
ByBlock
 62
    0
370
   -2
100
AcDbLine
 10
30.69307951915842
 20
627.5625
 11
30.69307951915843
 21
649.125
  0
LINE
  5
BE
100
AcDbEntity
  8
couple7-quotes
  6
ByBlock
 62
    0
370
   -2
100
AcDbLine
 10
-88.81226030512227
 20
627.5625
 11
-88.81226030512227
 21
649.125
  0
ENDBLK
  5
73
330
71
100
AcDbEntity
  8
0
100
AcDbBlockEnd
  0
BLOCK
  5
75
330
74
100
AcDbEntity
  8
0
100
AcDbBlockBegin
  2
*D11
 70
    1
 10
0
 20
0
  3
*D11
  1

  0
LINE
  5
BF
100
AcDbEntity
  8
couple7-quotes
  6
ByBlock
 62
    0
370
   -2
100
AcDbLine
 10
0
 20
-20
 11
204
 21
-20
  0
SOLID
  5
C0
100
AcDbEntity
  8
couple7-quotes
  6
ByBlock
 62
    0
370
   -2
100
AcDbTrace
 10
0
 20
-20
 30
0
 11
6.25
 21
-18.9592883555679
 31
0
 12
6.25
 22
-21.0407116444321
 32
0
 13
6.25
 23
-21.0407116444321
 33
0
  0
SOLID
  5
C1
100
AcDbEntity
  8
couple7-quotes
  6
ByBlock
 62
    0
370
   -2
100
AcDbTrace
 10
204
 20
-20
 30
0
 11
197.75
 21
-21.0407116444321
 31
0
 12
197.75
 22
-18.9592883555679
 32
0
 13
197.75
 23
-18.9592883555679
 33
0
  0
MTEXT
  5
C2
100
AcDbEntity
  8
couple7-quotes
  6
CONTINUOUS
 62
    0
370
   -2
100
AcDbMText
 10
102
 20
-15.3125
 30
0
 40
6.25
 41
13.19444444444444
 71
    5
 72
    1
  1
204
  7
STANDARD
210
0
220
0
230
1
 50
0
 73
    2
 44
1
  0
LINE
  5
C3
100
AcDbEntity
  8
couple7-quotes
  6
ByBlock
 62
    0
370
   -2
100
AcDbLine
 10
-2.870265935501609e-16
 20
-1.5625
 11
-5.740531871003218e-16
 21
-23.125
  0
LINE
  5
C4
100
AcDbEntity
  8
couple7-quotes
  6
ByBlock
 62
    0
370
   -2
100
AcDbLine
 10
204
 20
-1.5625
 11
204
 21
-23.125
  0
ENDBLK
  5
76
330
74
100
AcDbEntity
  8
0
100
AcDbBlockEnd
  0
ENDSEC
  0
SECTION
  2
ENTITIES
  0
LINE
  5
C5
100
AcDbEntity
  8
couple 7
  6
ByLayer
 62
  256
370
   -1
100
AcDbLine
 10
0
 20
0
 11
204
 21
0
  0
LINE
  5
C6
100
AcDbEntity
  8
couple 7
  6
ByLayer
 62
  256
370
   -1
100
AcDbLine
 10
-130.2233075215256
 20
486
 11
0
 21
0
  0
LINE
  5
C7
100
AcDbEntity
  8
couple 7
  6
ByLayer
 62
  256
370
   -1
100
AcDbLine
 10
-130.2233075215256
 20
486
 11
-88.81226030512227
 21
486
  0
LINE
  5
C8
100
AcDbEntity
  8
couple 7
  6
ByLayer
 62
  256
370
   -1
100
AcDbLine
 10
-88.81226030512227
 20
486
 11
30.69307951915842
 21
40
  0
LINE
  5
C9
100
AcDbEntity
  8
couple 7
  6
ByLayer
 62
  256
370
   -1
100
AcDbLine
 10
334.2233075215256
 20
486
 11
204
 21
0
  0
LINE
  5
CA
100
AcDbEntity
  8
couple 7
  6
ByLayer
 62
  256
370
   -1
100
AcDbLine
 10
334.2233075215256
 20
486
 11
292.8122603051223
 21
486
  0
LINE
  5
CB
100
AcDbEntity
  8
couple 7
  6
ByLayer
 62
  256
370
   -1
100
AcDbLine
 10
292.8122603051223
 20
486
 11
173.3069204808416
 21
40
  0
LINE
  5
CC
100
AcDbEntity
  8
couple 7
  6
ByLayer
 62
  256
370
   -1
100
AcDbLine
 10
30.69307951915842
 20
40
 11
173.3069204808416
 21
40
  0
LINE
  5
CD
100
AcDbEntity
  8
couple 7
  6
ByLayer
 62
  256
370
   -1
100
AcDbLine
 10
30.69307951915843
 20
586
 11
30.69307951915842
 21
626
  0
LINE
  5
CE
100
AcDbEntity
  8
couple 7
  6
ByLayer
 62
  256
370
   -1
100
AcDbLine
 10
-88.81226030512227
 20
586
 11
-88.81226030512227
 21
626
  0
LINE
  5
CF
100
AcDbEntity
  8
couple 7
  6
ByLayer
 62
  256
370
   -1
100
AcDbLine
 10
173.3069204808416
 20
586
 11
173.3069204808416
 21
626
  0
LINE
  5
D0
100
AcDbEntity
  8
couple 7
  6
ByLayer
 62
  256
370
   -1
100
AcDbLine
 10
292.8122603051223
 20
586
 11
292.8122603051223
 21
626
  0
ARC
  5
D1
100
AcDbEntity
  8
couple 7
  6
ByLayer
 62
  256
370
   -1
100
AcDbCircle
 10
6578.177635874701
 20
-2583.223270440252
 40
7427.906049895691
100
AcDbArc
 50
154.4023014576689
 51
154.7439382943794
  0
LINE
  5
D2
100
AcDbEntity
  8
couple 7
  6
ByLayer
 62
  256
370
   -1
100
AcDbLine
 10
-139.6949550708129
 20
586
 11
343.6949550708133
 21
586
  0
LINE
  5
D3
100
AcDbEntity
  8
couple 7
  6
ByLayer
 62
  256
370
   -1
100
AcDbLine
 10
-120.6785565317141
 20
626
 11
324.6785565317144
 21
626
  0
ARC
  5
D4
100
AcDbEntity
  8
couple 7
  6
ByLayer
 62
  256
370
   -1
100
AcDbCircle
 10
-6374.177635874701
 20
-2583.223270440252
 40
7427.906049895691
100
AcDbArc
 50
25.25606170562064
 51
25.59769854233113
  0
MTEXT
  5
D5
100
AcDbEntity
  8
couple7-quotes
  6
ByLayer
 62
  256
370
   -1
100
AcDbMText
 10
100
 20
400
 30
0
 40
20
 41
135.0000000000031
 71
    1
 72
    1
  1
Couple 7\Pechelle 1:5
  7
STANDARD
210
0
220
0
230
1
 50
0
 73
    2
 44
1
  0
DIMENSION
  5
D6
100
AcDbEntity
  8
couple7-quotes
  6
ByLayer
 62
  256
370
   -1
100
AcDbDimension
  2
*D1
 10
-120.678556531714
 20
646
 30
0
 11
-130.1867558012645
 21
650.6875
 31
0
 70
   32
 71
    5
  3
Standard
 53
0
210
0
220
0
230
1
100
AcDbAlignedDimension
 13
-139.694955070815
 23
585.9999999999959
 33
0
 14
-120.678556531714
 24
626.0000000000001
 34
0
100
AcDbRotatedDimension
  0
DIMENSION
  5
D7
100
AcDbEntity
  8
couple7-quotes
  6
ByLayer
 62
  256
370
   -1
100
AcDbDimension
  2
*D2
 10
-88.81226030512227
 20
646
 30
0
 11
-104.7454084184182
 21
650.6875
 31
0
 70
   32
 71
    5
  3
Standard
 53
0
210
0
220
0
230
1
100
AcDbAlignedDimension
 13
-120.6785565317141
 23
626
 33
0
 14
-88.81226030512227
 24
626
 34
0
100
AcDbRotatedDimension
  0
DIMENSION
  5
D8
100
AcDbEntity
  8
couple7-quotes
  6
ByLayer
 62
  256
370
   -1
100
AcDbDimension
  2
*D3
 10
-88.81226030512227
 20
646
 30
0
 11
-29.05959039298192
 21
650.6875
 31
0
 70
   32
 71
    5
  3
Standard
 53
0
210
0
220
0
230
1
100
AcDbAlignedDimension
 13
30.69307951915842
 23
626
 33
0
 14
-88.81226030512227
 24
626
 34
0
100
AcDbRotatedDimension
  0
DIMENSION
  5
D9
100
AcDbEntity
  8
couple7-quotes
  6
ByLayer
 62
  256
370
   -1
100
AcDbDimension
  2
*D4
 10
173.3069204808416
 20
646
 30
0
 11
102
 21
650.6875
 31
0
 70
   32
 71
    5
  3
Standard
 53
0
210
0
220
0
230
1
100
AcDbAlignedDimension
 13
30.69307951915842
 23
626
 33
0
 14
173.3069204808416
 24
626
 34
0
100
AcDbRotatedDimension
  0
DIMENSION
  5
DA
100
AcDbEntity
  8
couple7-quotes
  6
ByLayer
 62
  256
370
   -1
100
AcDbDimension
  2
*D5
 10
292.8122603051223
 20
646
 30
0
 11
233.059590392982
 21
650.6875
 31
0
 70
   32
 71
    5
  3
Standard
 53
0
210
0
220
0
230
1
100
AcDbAlignedDimension
 13
173.3069204808416
 23
626
 33
0
 14
292.8122603051223
 24
626
 34
0
100
AcDbRotatedDimension
  0
DIMENSION
  5
DB
100
AcDbEntity
  8
couple7-quotes
  6
ByLayer
 62
  256
370
   -1
100
AcDbDimension
  2
*D6
 10
324.6785565317144
 20
646
 30
0
 11
308.7454084184184
 21
650.6875
 31
0
 70
   32
 71
    5
  3
Standard
 53
0
210
0
220
0
230
1
100
AcDbAlignedDimension
 13
292.8122603051223
 23
626
 33
0
 14
324.6785565317144
 24
626
 34
0
100
AcDbRotatedDimension
  0
DIMENSION
  5
DC
100
AcDbEntity
  8
couple7-quotes
  6
ByLayer
 62
  256
370
   -1
100
AcDbDimension
  2
*D7
 10
343.6949550708134
 20
646
 30
0
 11
334.1867558012639
 21
650.6875
 31
0
 70
   32
 71
    5
  3
Standard
 53
0
210
0
220
0
230
1
100
AcDbAlignedDimension
 13
324.6785565317144
 23
626
 33
0
 14
343.6949550708134
 24
586
 34
0
100
AcDbRotatedDimension
  0
DIMENSION
  5
DD
100
AcDbEntity
  8
couple7-quotes
  6
ByLayer
 62
  256
370
   -1
100
AcDbDimension
  2
*D8
 10
343.6949550708134
 20
666
 30
0
 11
101.9999999999992
 21
670.6875
 31
0
 70
   32
 71
    5
  3
Standard
 53
0
210
0
220
0
230
1
100
AcDbAlignedDimension
 13
-139.694955070815
 23
585.9999999999959
 33
0
 14
343.6949550708134
 24
586
 34
0
100
AcDbRotatedDimension
  0
DIMENSION
  5
DE
100
AcDbEntity
  8
couple7-quotes
  6
ByLayer
 62
  256
370
   -1
100
AcDbDimension
  2
*D9
 10
-27.26247005818592
 20
24.47085729384872
 30
0
 11
-82.48736265959626
 21
248.6840715677668
 31
0
 70
   33
 71
    5
  3
Standard
 53
0
210
0
220
0
230
1
100
AcDbAlignedDimension
 13
-88.81226030512227
 23
486
 33
0
 14
30.69307951915842
 24
40
 34
0
  0
DIMENSION
  5
DF
100
AcDbEntity
  8
couple7-quotes
  6
ByLayer
 62
  256
370
   -1
100
AcDbDimension
  2
*D10
 10
-38.637033051563
 20
-10.35276180410088
 30
0
 11
-99.22090950159578
 21
233.8604524698171
 31
0
 70
   33
 71
    5
  3
Standard
 53
0
210
0
220
0
230
1
100
AcDbAlignedDimension
 13
-130.2233075215256
 23
486
 33
0
 14
0
 24
0
 34
0
  0
DIMENSION
  5
E0
100
AcDbEntity
  8
couple7-quotes
  6
ByLayer
 62
  256
370
   -1
100
AcDbDimension
  2
*D11
 10
204
 20
-20
 30
0
 11
102
 21
-15.3125
 31
0
 70
   32
 71
    5
  3
Standard
 53
0
210
0
220
0
230
1
100
AcDbAlignedDimension
 13
0
 23
0
 33
0
 14
204
 24
0
 34
0
100
AcDbRotatedDimension
  0
DIMENSION
  5
E1
100
AcDbEntity
  8
couple7-quotes
  6
ByLayer
 62
  256
370
   -1
100
AcDbDimension
  2
*D12
 10
353.5418240473069
 20
39.99999999999997
 30
0
 11
348.8543240473069
 21
263
 31
0
 70
   32
 71
    5
  3
Standard
 53
0
210
0
220
0
230
1
100
AcDbAlignedDimension
 13
334.2233075215256
 23
486
 33
0
 14
173.3069204808416
 24
40
 34
0
 50
90
100
AcDbRotatedDimension
  0
DIMENSION
  5
E2
100
AcDbEntity
  8
couple7-quotes
  6
ByLayer
 62
  256
370
   -1
100
AcDbDimension
  2
*D13
 10
372.8603405730883
 20
-2.067942755857645e-14
 30
0
 11
368.1728405730883
 21
243.0000000000001
 31
0
 70
   32
 71
    5
  3
Standard
 53
0
210
0
220
0
230
1
100
AcDbAlignedDimension
 13
292.8122603051223
 23
486.0000000000001
 33
0
 14
204
 24
0
 34
0
 50
90
100
AcDbRotatedDimension
  0
LINE
  5
E3
100
AcDbEntity
  8
profiloscad1
  6
ByLayer
 62
  256
370
   -1
100
AcDbLine
 10
-232.2233075215256
 20
486
 11
-102
 21
0
  0
LINE
  5
E4
100
AcDbEntity
  8
profiloscad1
  6
ByLayer
 62
  256
370
   -1
100
AcDbLine
 10
-102
 20
0
 11
102
 21
0
  0
LINE
  5
E5
100
AcDbEntity
  8
profiloscad1
  6
ByLayer
 62
  256
370
   -1
100
AcDbLine
 10
102
 20
0
 11
232.2233075215256
 21
486
  0
LINE
  5
E6
100
AcDbEntity
  8
profiloscad1
  6
ByLayer
 62
  256
370
   -1
100
AcDbLine
 10
232.2233075215256
 20
486
 11
190.8122603051223
 21
486
  0
LINE
  5
E7
100
AcDbEntity
  8
profiloscad1
  6
ByLayer
 62
  256
370
   -1
100
AcDbLine
 10
190.8122603051223
 20
486
 11
71.3069204808416
 21
40
  0
LINE
  5
E8
100
AcDbEntity
  8
profiloscad1
  6
ByLayer
 62
  256
370
   -1
100
AcDbLine
 10
71.3069204808416
 20
40
 11
-71.30692048084157
 21
40
  0
LINE
  5
E9
100
AcDbEntity
  8
profiloscad1
  6
ByLayer
 62
  256
370
   -1
100
AcDbLine
 10
-71.30692048084157
 20
40
 11
-190.8122603051223
 21
486
  0
LINE
  5
EA
100
AcDbEntity
  8
profiloscad1
  6
ByLayer
 62
  256
370
   -1
100
AcDbLine
 10
-190.8122603051223
 20
486
 11
-232.2233075215256
 21
486
  0
ENDSEC
  0
SECTION
  2
OBJECTS
  0
DICTIONARY
  5
C
330
0
100
AcDbDictionary
281
    1
  3
ACAD_GROUP
350
D
  0
DICTIONARY
  5
D
330
C
100
AcDbDictionary
281
    1
  0
ENDSEC
  0
EOF
