999
dxfrw 0.6.3
  0
SECTION
  2
HEADER
  9
$ACADVER
  1
AC1021
  9
$DWGCODEPAGE
  3
ANSI_1252
  9
$INSBASE
 10
0
 20
0
 30
0
  9
$EXTMIN
 10
-416.2233075215256
 20
-23.125
 30
0
  9
$EXTMAX
 10
743.9853405730881
 20
673.8125
 30
0
  9
$LIMMIN
 10
0
 20
0
  9
$LIMMAX
 10
420
 20
297
  9
$ORTHOMODE
 70
    0
  9
$REGENMODE
 70
    1
  9
$FILLMODE
 70
    1
  9
$QTEXTMODE
 70
    0
  9
$MIRRTEXT
 70
    0
  9
$LTSCALE
 40
1
  9
$ATTMODE
 70
    0
  9
$TEXTSIZE
 40
2.5
  9
$TRACEWID
 40
15.68
  9
$TEXTSTYLE
  7
STANDARD
  9
$CLAYER
  8
profiloscad1
  9
$CELTYPE
  6
BYLAYER
  9
$CECOLOR
 62
  256
  9
$CELTSCALE
 40
1
  9
$DISPSILH
 70
    0
  9
$DIMSCALE
 40
2.5
  9
$DIMASZ
 40
2.5
  9
$DIMEXO
 40
0.625
  9
$DIMDLI
 40
3.75
  9
$DIMRND
 40
0
  9
$DIMDLE
 40
0
  9
$DIMEXE
 40
1.25
  9
$DIMTP
 40
0
  9
$DIMTM
 40
0
  9
$DIMTXT
 40
2.5
  9
$DIMCEN
 40
2.5
  9
$DIMTSZ
 40
0
  9
$DIMTOL
 70
    0
  9
$DIMLIM
 70
    0
  9
$DIMTIH
 70
    0
  9
$DIMTOH
 70
    0
  9
$DIMSE1
 70
    0
  9
$DIMSE2
 70
    0
  9
$DIMTAD
 70
    1
  9
$DIMZIN
 70
    8
  9
$DIMBLK
  1

  9
$DIMASO
 70
    1
  9
$DIMSHO
 70
    1
  9
$DIMPOST
  1

  9
$DIMAPOST
  1

  9
$DIMALT
 70
    0
  9
$DIMALTD
 70
    3
  9
$DIMALTF
 40
0.03937
  9
$DIMLFAC
 40
1
  9
$DIMTOFL
 70
    1
  9
$DIMTVP
 40
0
  9
$DIMTIX
 70
    0
  9
$DIMSOXD
 70
    0
  9
$DIMSAH
 70
    0
  9
$DIMBLK1
  1

  9
$DIMBLK2
  1

  9
$DIMSTYLE
  2
STANDARD
  9
$DIMCLRD
 70
    0
  9
$DIMCLRE
 70
    0
  9
$DIMCLRT
 70
    0
  9
$DIMTFAC
 40
1
  9
$DIMGAP
 40
0.625
  9
$DIMJUST
 70
    0
  9
$DIMSD1
 70
    0
  9
$DIMSD2
 70
    0
  9
$DIMTOLJ
 70
    0
  9
$DIMTZIN
 70
    8
  9
$DIMALTZ
 70
    0
  9
$DIMALTTZ
 70
    0
  9
$DIMUPT
 70
    0
  9
$DIMDEC
 70
    1
  9
$DIMTDEC
 70
    2
  9
$DIMALTU
 70
    2
  9
$DIMALTTD
 70
    3
  9
$DIMTXSTY
  7
STANDARD
  9
$DIMAUNIT
 70
    0
  9
$DIMADEC
 70
    2
  9
$DIMALTRND
 40
0
  9
$DIMAZIN
 70
    0
  9
$DIMDSEP
 70
   44
  9
$DIMATFIT
 70
    3
  9
$DIMFRAC
 70
    0
  9
$DIMLDRBLK
  1
STANDARD
  9
$DIMLUNIT
 70
    2
  9
$DIMLWD
 70
   -2
  9
$DIMLWE
 70
   -2
  9
$DIMTMOVE
 70
    0
  9
$DIMFXL
 40
1
  9
$DIMFXLON
 70
    0
  9
$DIMJOGANG
 40
0.7854
  9
$DIMTFILL
 70
    0
  9
$DIMTFILLCLR
 70
    0
  9
$DIMARCSYM
 70
    0
  9
$DIMLTYPE
  6

  9
$DIMLTEX1
  6

  9
$DIMLTEX2
  6

  9
$LUNITS
 70
    2
  9
$LUPREC
 70
    4
  9
$SKETCHINC
 40
1
  9
$FILLETRAD
 40
0
  9
$AUNITS
 70
    0
  9
$AUPREC
 70
    2
  9
$MENU
  1
.
  9
$ELEVATION
 40
0
  9
$PELEVATION
 40
0
  9
$THICKNESS
 40
0
  9
$LIMCHECK
 70
    0
  9
$CHAMFERA
 40
0
  9
$CHAMFERB
 40
0
  9
$CHAMFERC
 40
0
  9
$CHAMFERD
 40
0
  9
$SKPOLY
 70
    0
  9
$USRTIMER
 70
    1
  9
$ANGBASE
 50
0
  9
$ANGDIR
 70
    0
  9
$PDMODE
 70
   34
  9
$PDSIZE
 40
0
  9
$PLINEWID
 40
0
  9
$SPLFRAME
 70
    0
  9
$SPLINETYPE
 70
    2
  9
$SPLINESEGS
 70
    8
  9
$HANDSEED
  5
20000
  9
$SURFTAB1
 70
    6
  9
$SURFTAB2
 70
    6
  9
$SURFTYPE
 70
    6
  9
$SURFU
 70
    6
  9
$SURFV
 70
    6
  9
$UCSBASE
  2

  9
$UCSNAME
  2

  9
$UCSORG
 10
0
 20
0
 30
0
  9
$UCSXDIR
 10
1
 20
0
 30
0
  9
$UCSYDIR
 10
0
 20
1
 30
0
  9
$UCSORTHOREF
  2

  9
$UCSORTHOVIEW
 70
    0
  9
$UCSORGTOP
 10
0
 20
0
 30
0
  9
$UCSORGBOTTOM
 10
0
 20
0
 30
0
  9
$UCSORGLEFT
 10
0
 20
0
 30
0
  9
$UCSORGRIGHT
 10
0
 20
0
 30
0
  9
$UCSORGFRONT
 10
0
 20
0
 30
0
  9
$UCSORGBACK
 10
0
 20
0
 30
0
  9
$PUCSBASE
  2

  9
$PUCSNAME
  2

  9
$PUCSORG
 10
0
 20
0
 30
0
  9
$PUCSXDIR
 10
1
 20
0
 30
0
  9
$PUCSYDIR
 10
0
 20
1
 30
0
  9
$PUCSORTHOREF
  2

  9
$PUCSORTHOVIEW
 70
    0
  9
$PUCSORGTOP
 10
0
 20
0
 30
0
  9
$PUCSORGBOTTOM
 10
0
 20
0
 30
0
  9
$PUCSORGLEFT
 10
0
 20
0
 30
0
  9
$PUCSORGRIGHT
 10
0
 20
0
 30
0
  9
$PUCSORGFRONT
 10
0
 20
0
 30
0
  9
$PUCSORGBACK
 10
0
 20
0
 30
0
  9
$USERI1
 70
    0
  9
$USERI2
 70
    0
  9
$USERI3
 70
    0
  9
$USERI4
 70
    0
  9
$USERI5
 70
    0
  9
$USERR1
 40
0
  9
$USERR2
 40
0
  9
$USERR3
 40
0
  9
$USERR4
 40
0
  9
$USERR5
 40
0
  9
$WORLDVIEW
 70
    1
  9
$SHADEDGE
 70
    3
  9
$SHADEDIF
 70
   70
  9
$TILEMODE
 70
    1
  9
$MAXACTVP
 70
   64
  9
$PINSBASE
 10
81.52768917476874
 20
37.50094021140583
 30
0
  9
$PLIMCHECK
 70
    0
  9
$PEXTMIN
 10
0
 20
0
 30
0
  9
$PEXTMAX
 10
0
 20
0
 30
0
  9
$GRIDMODE
 70
    1
  9
$SNAPSTYLE
 70
    0
  9
$PLIMMIN
 10
0
 20
0
  9
$PLIMMAX
 10
297
 20
210
  9
$UNITMODE
 70
    0
  9
$VISRETAIN
 70
    1
  9
$PLINEGEN
 70
    0
  9
$PSLTSCALE
 70
    1
  9
$TREEDEPTH
 70
 3020
  9
$CMLSTYLE
  2
Standard
  9
$CMLJUST
 70
    0
  9
$CMLSCALE
 40
20
  9
$PROXYGRAPHICS
 70
    1
  9
$MEASUREMENT
 70
    1
  9
$CELWEIGHT
370
   -1
  9
$ENDCAPS
280
    0
  9
$JOINSTYLE
280
    0
  9
$LWDISPLAY
290
    0
  9
$INSUNITS
 70
    0
  9
$HYPERLINKBASE
  1

  9
$STYLESHEET
  1

  9
$XEDIT
290
    1
  9
$CEPSNTYPE
380
    0
  9
$PSTYLEMODE
290
    1
  9
$EXTNAMES
290
    1
  9
$PSVPSCALE
 40
0.2
  9
$OLESTARTUP
290
    0
  9
$SORTENTS
280
  127
  9
$INDEXCTL
280
    0
  9
$HIDETEXT
280
    1
  9
$XCLIPFRAME
290
    0
  9
$HALOGAP
280
    0
  9
$OBSCOLOR
 70
  257
  9
$OBSLTYPE
280
    0
  9
$INTERSECTIONDISPLAY
280
    0
  9
$INTERSECTIONCOLOR
 70
  257
  9
$DIMASSOC
280
    1
  9
$PROJECTNAME
  1

  9
$CAMERADISPLAY
290
    0
  9
$LENSLENGTH
 40
50
  9
$CAMERAHEIGHT
 40
0
  9
$STEPSPERSEC
 40
2
  9
$STEPSIZE
 40
50
  9
$3DDWFPREC
 40
2
  9
$PSOLWIDTH
 40
5
  9
$PSOLHEIGHT
 40
80
  9
$LOFTANG1
 40
1.570796326794897
  9
$LOFTANG2
 40
1.570796326794897
  9
$LOFTMAG1
 40
0
  9
$LOFTMAG2
 40
0
  9
$LOFTPARAM
 70
    7
  9
$LOFTNORMALS
280
    1
  9
$LATITUDE
 40
1
  9
$LONGITUDE
 40
1
  9
$NORTHDIRECTION
 40
0
  9
$TIMEZONE
 70
-8000
  9
$LIGHTGLYPHDISPLAY
280
    1
  9
$TILEMODELIGHTSYNCH
280
    1
  9
$SOLIDHIST
280
    1
  9
$SHOWHIST
280
    1
  9
$DWFFRAME
280
    2
  9
$DGNFRAME
280
    0
  9
$REALWORLDSCALE
290
    1
  9
$INTERFERECOLOR
 62
    1
  9
$CSHADOW
280
    0
  9
$SHADOWPLANELOCATION
 40
0
  0
ENDSEC
  0
SECTION
  2
CLASSES
  0
ENDSEC
  0
SECTION
  2
TABLES
  0
TABLE
  2
VPORT
  5
8
330
0
100
AcDbSymbolTable
 70
    1
  0
VPORT
  5
31
330
2
100
AcDbSymbolTableRecord
100
AcDbViewportTableRecord
  2
*ACTIVE
 70
    0
 10
0
 20
0
 11
1
 21
1
 12
565.2188478867615
 22
472.1085504390583
 13
0
 23
0
 14
10
 24
10
 15
10
 25
10
 16
0
 26
0
 36
1
 17
0
 27
0
 37
0
 40
1311.412640108495
 41
1.486
 42
50
 43
0
 44
0
 50
0
 51
0
 71
    0
 72
  100
 73
    1
 74
    3
 75
    0
 76
    1
 77
    0
 78
    0
281
    0
 65
    1
110
0
120
0
130
0
111
1
121
0
131
0
112
0
122
1
132
0
 79
    0
146
0
348
10020
 60
    7
 61
    5
292
1
282
    1
141
0
142
0
 63
  250
421
3358443
  0
ENDTAB
  0
TABLE
  2
LTYPE
  5
5
330
0
100
AcDbSymbolTable
 70
    4
  0
LTYPE
  5
14
330
5
100
AcDbSymbolTableRecord
100
AcDbLinetypeTableRecord
  2
ByBlock
 70
    0
  3

 72
   65
 73
    0
 40
0
  0
LTYPE
  5
15
330
5
100
AcDbSymbolTableRecord
100
AcDbLinetypeTableRecord
  2
ByLayer
 70
    0
  3

 72
   65
 73
    0
 40
0
  0
LTYPE
  5
16
330
5
100
AcDbSymbolTableRecord
100
AcDbLinetypeTableRecord
  2
Continuous
 70
    0
  3
Solid line
 72
   65
 73
    0
 40
0
  0
LTYPE
  5
32
330
5
100
AcDbSymbolTableRecord
100
AcDbLinetypeTableRecord
  2
DOT
 70
    0
  3
Dot . . . . . . . . . . . . . . . . . . . . . .
 72
   65
 73
    2
 40
6.35
 49
0
 74
    0
 49
-6.35
 74
    0
  0
LTYPE
  5
33
330
5
100
AcDbSymbolTableRecord
100
AcDbLinetypeTableRecord
  2
DOTTINY
 70
    0
  3
Dot (.15x) .....................................
 72
   65
 73
    2
 40
0.9525
 49
0
 74
    0
 49
-0.9525
 74
    0
  0
LTYPE
  5
34
330
5
100
AcDbSymbolTableRecord
100
AcDbLinetypeTableRecord
  2
DOT2
 70
    0
  3
Dot (.5x) .....................................
 72
   65
 73
    2
 40
3.175
 49
0
 74
    0
 49
-3.175
 74
    0
  0
LTYPE
  5
35
330
5
100
AcDbSymbolTableRecord
100
AcDbLinetypeTableRecord
  2
DOTX2
 70
    0
  3
Dot (2x) .  .  .  .  .  .  .  .  .  .  .  .  .
 72
   65
 73
    2
 40
12.7
 49
0
 74
    0
 49
-12.7
 74
    0
  0
LTYPE
  5
36
330
5
100
AcDbSymbolTableRecord
100
AcDbLinetypeTableRecord
  2
DASHED
 70
    0
  3
Dashed _ _ _ _ _ _ _ _ _ _ _ _ _ _ _ _ _
 72
   65
 73
    2
 40
19.05
 49
12.7
 74
    0
 49
-6.35
 74
    0
  0
LTYPE
  5
37
330
5
100
AcDbSymbolTableRecord
100
AcDbLinetypeTableRecord
  2
DASHEDTINY
 70
    0
  3
Dashed (.15x) _ _ _ _ _ _ _ _ _ _ _ _ _ _ _ _ _
 72
   65
 73
    2
 40
2.8575
 49
1.905
 74
    0
 49
-0.9525
 74
    0
  0
LTYPE
  5
38
330
5
100
AcDbSymbolTableRecord
100
AcDbLinetypeTableRecord
  2
DASHED2
 70
    0
  3
Dashed (.5x) _ _ _ _ _ _ _ _ _ _ _ _ _ _ _ _ _
 72
   65
 73
    2
 40
9.524999999999999
 49
6.35
 74
    0
 49
-3.175
 74
    0
  0
LTYPE
  5
39
330
5
100
AcDbSymbolTableRecord
100
AcDbLinetypeTableRecord
  2
DASHEDX2
 70
    0
  3
Dashed (2x) ____  ____  ____  ____  ____  ___
 72
   65
 73
    2
 40
38.09999999999999
 49
25.4
 74
    0
 49
-12.7
 74
    0
  0
LTYPE
  5
3A
330
5
100
AcDbSymbolTableRecord
100
AcDbLinetypeTableRecord
  2
DASHDOT
 70
    0
  3
Dash dot __ . __ . __ . __ . __ . __ . __ . __
 72
   65
 73
    4
 40
25.4
 49
12.7
 74
    0
 49
-6.35
 74
    0
 49
0
 74
    0
 49
-6.35
 74
    0
  0
LTYPE
  5
3B
330
5
100
AcDbSymbolTableRecord
100
AcDbLinetypeTableRecord
  2
DASHDOTTINY
 70
    0
  3
Dash dot (.15x) _._._._._._._._._._._._._._._.
 72
   65
 73
    4
 40
3.81
 49
1.905
 74
    0
 49
-0.9525
 74
    0
 49
0
 74
    0
 49
-0.9525
 74
    0
  0
LTYPE
  5
3C
330
5
100
AcDbSymbolTableRecord
100
AcDbLinetypeTableRecord
  2
DASHDOT2
 70
    0
  3
Dash dot (.5x) _._._._._._._._._._._._._._._.
 72
   65
 73
    4
 40
12.7
 49
6.35
 74
    0
 49
-3.175
 74
    0
 49
0
 74
    0
 49
-3.175
 74
    0
  0
LTYPE
  5
3D
330
5
100
AcDbSymbolTableRecord
100
AcDbLinetypeTableRecord
  2
DASHDOTX2
 70
    0
  3
Dash dot (2x) ____  .  ____  .  ____  .  ___
 72
   65
 73
    4
 40
50.8
 49
25.4
 74
    0
 49
-12.7
 74
    0
 49
0
 74
    0
 49
-12.7
 74
    0
  0
LTYPE
  5
3E
330
5
100
AcDbSymbolTableRecord
100
AcDbLinetypeTableRecord
  2
DIVIDE
 70
    0
  3
Divide ____ . . ____ . . ____ . . ____ . . ____
 72
   65
 73
    6
 40
31.75
 49
12.7
 74
    0
 49
-6.35
 74
    0
 49
0
 74
    0
 49
-6.35
 74
    0
 49
0
 74
    0
 49
-6.35
 74
    0
  0
LTYPE
  5
3F
330
5
100
AcDbSymbolTableRecord
100
AcDbLinetypeTableRecord
  2
DIVIDETINY
 70
    0
  3
Divide (.15x) __..__..__..__..__..__..__..__.._
 72
   65
 73
    6
 40
4.7625
 49
1.905
 74
    0
 49
-0.9525
 74
    0
 49
0
 74
    0
 49
-0.9525
 74
    0
 49
0
 74
    0
 49
-0.9525
 74
    0
  0
LTYPE
  5
40
330
5
100
AcDbSymbolTableRecord
100
AcDbLinetypeTableRecord
  2
DIVIDE2
 70
    0
  3
Divide (.5x) __..__..__..__..__..__..__..__.._
 72
   65
 73
    6
 40
15.875
 49
6.35
 74
    0
 49
-3.175
 74
    0
 49
0
 74
    0
 49
-3.175
 74
    0
 49
0
 74
    0
 49
-3.175
 74
    0
  0
LTYPE
  5
41
330
5
100
AcDbSymbolTableRecord
100
AcDbLinetypeTableRecord
  2
DIVIDEX2
 70
    0
  3
Divide (2x) ________  .  .  ________  .  .  _
 72
   65
 73
    6
 40
63.5
 49
25.4
 74
    0
 49
-12.7
 74
    0
 49
0
 74
    0
 49
-12.7
 74
    0
 49
0
 74
    0
 49
-12.7
 74
    0
  0
LTYPE
  5
42
330
5
100
AcDbSymbolTableRecord
100
AcDbLinetypeTableRecord
  2
BORDER
 70
    0
  3
Border __ __ . __ __ . __ __ . __ __ . __ __ .
 72
   65
 73
    6
 40
44.45
 49
12.7
 74
    0
 49
-6.35
 74
    0
 49
12.7
 74
    0
 49
-6.35
 74
    0
 49
0
 74
    0
 49
-6.35
 74
    0
  0
LTYPE
  5
43
330
5
100
AcDbSymbolTableRecord
100
AcDbLinetypeTableRecord
  2
BORDERTINY
 70
    0
  3
Border (.15x) __.__.__.__.__.__.__.__.__.__.__.
 72
   65
 73
    6
 40
6.6675
 49
1.905
 74
    0
 49
-0.9525
 74
    0
 49
1.905
 74
    0
 49
-0.9525
 74
    0
 49
0
 74
    0
 49
-0.9525
 74
    0
  0
LTYPE
  5
44
330
5
100
AcDbSymbolTableRecord
100
AcDbLinetypeTableRecord
  2
BORDER2
 70
    0
  3
Border (.5x) __.__.__.__.__.__.__.__.__.__.__.
 72
   65
 73
    6
 40
22.225
 49
6.35
 74
    0
 49
-3.175
 74
    0
 49
6.35
 74
    0
 49
-3.175
 74
    0
 49
0
 74
    0
 49
-3.175
 74
    0
  0
LTYPE
  5
45
330
5
100
AcDbSymbolTableRecord
100
AcDbLinetypeTableRecord
  2
BORDERX2
 70
    0
  3
Border (2x) ____  ____  .  ____  ____  .  ___
 72
   65
 73
    6
 40
88.89999999999999
 49
25.4
 74
    0
 49
-12.7
 74
    0
 49
25.4
 74
    0
 49
-12.7
 74
    0
 49
0
 74
    0
 49
-12.7
 74
    0
  0
LTYPE
  5
46
330
5
100
AcDbSymbolTableRecord
100
AcDbLinetypeTableRecord
  2
CENTER
 70
    0
  3
Center ____ _ ____ _ ____ _ ____ _ ____ _ ____
 72
   65
 73
    4
 40
50.8
 49
31.75
 74
    0
 49
-6.35
 74
    0
 49
6.35
 74
    0
 49
-6.35
 74
    0
  0
LTYPE
  5
47
330
5
100
AcDbSymbolTableRecord
100
AcDbLinetypeTableRecord
  2
CENTERTINY
 70
    0
  3
Center (.15x) ___ _ ___ _ ___ _ ___ _ ___ _ ___
 72
   65
 73
    4
 40
7.619999999999999
 49
4.7625
 74
    0
 49
-0.9525
 74
    0
 49
0.9525
 74
    0
 49
-0.9525
 74
    0
  0
LTYPE
  5
48
330
5
100
AcDbSymbolTableRecord
100
AcDbLinetypeTableRecord
  2
CENTER2
 70
    0
  3
Center (.5x) ___ _ ___ _ ___ _ ___ _ ___ _ ___
 72
   65
 73
    4
 40
28.575
 49
19.05
 74
    0
 49
-3.175
 74
    0
 49
3.175
 74
    0
 49
-3.175
 74
    0
  0
LTYPE
  5
49
330
5
100
AcDbSymbolTableRecord
100
AcDbLinetypeTableRecord
  2
CENTERX2
 70
    0
  3
Center (2x) ________  __  ________  __  _____
 72
   65
 73
    4
 40
101.6
 49
63.5
 74
    0
 49
-12.7
 74
    0
 49
12.7
 74
    0
 49
-12.7
 74
    0
  0
ENDTAB
  0
TABLE
  2
LAYER
  5
2
330
0
100
AcDbSymbolTable
 70
    1
  0
LAYER
  5
10
330
2
100
AcDbSymbolTableRecord
100
AcDbLayerTableRecord
  2
0
 70
    0
 62
    7
  6
CONTINUOUS
370
    0
390
F
  0
LAYER
  5
4A
330
2
100
AcDbSymbolTableRecord
100
AcDbLayerTableRecord
  2
couple 6
 70
    0
 62
    7
  6
CONTINUOUS
370
   18
390
F
  0
LAYER
  5
4B
330
2
100
AcDbSymbolTableRecord
100
AcDbLayerTableRecord
  2
couple6-quotes
 70
    0
 62
  253
420
10526884
  6
CONTINUOUS
370
   13
390
F
  0
LAYER
  5
4C
330
2
100
AcDbSymbolTableRecord
100
AcDbLayerTableRecord
  2
profiloscad1
 70
    1
 62
    7
  6
CONTINUOUS
370
    0
390
F
  0
ENDTAB
  0
TABLE
  2
STYLE
  5
3
330
0
100
AcDbSymbolTable
 70
    3
  0
STYLE
  5
4D
330
2
100
AcDbSymbolTableRecord
100
AcDbTextStyleTableRecord
  2
Standard
 70
    0
 40
0
 41
1
 50
0
 71
    0
 42
1
  3
txt
  4

  0
ENDTAB
  0
TABLE
  2
VIEW
  5
6
330
0
100
AcDbSymbolTable
 70
    0
  0
ENDTAB
  0
TABLE
  2
UCS
  5
7
330
0
100
AcDbSymbolTable
 70
    0
  0
ENDTAB
  0
TABLE
  2
APPID
  5
9
330
0
100
AcDbSymbolTable
 70
    1
  0
APPID
  5
12
330
9
100
AcDbSymbolTableRecord
100
AcDbRegAppTableRecord
  2
ACAD
 70
    0
  0
APPID
  5
4E
330
9
100
AcDbSymbolTableRecord
100
AcDbRegAppTableRecord
  2
LibreCad
 70
    0
  0
ENDTAB
  0
TABLE
  2
DIMSTYLE
  5
A
330
0
100
AcDbSymbolTable
 70
    1
100
AcDbDimStyleTable
 71
    1
  0
DIMSTYLE
105
4F
330
A
100
AcDbSymbolTableRecord
100
AcDbDimStyleTableRecord
  2
Standard
 70
    0
 40
2.5
 41
2.5
 42
0.625
 43
0.38
 44
1.25
 45
0
 46
0
 47
0
 48
0
 49
1
140
2.5
141
0.09
142
0
143
25.4
144
1
145
0
146
1
147
0.625
148
0
 71
    0
 72
    0
 73
    0
 74
    1
 75
    0
 76
    0
 77
    0
 78
    8
 79
    0
170
    0
171
    2
172
    0
173
    0
174
    0
175
    0
176
    0
177
    0
178
    0
179
    2
271
    1
272
    4
273
    2
274
    2
275
    0
276
    0
277
    2
278
   44
279
    0
280
    0
281
    0
282
    0
283
    1
284
    0
285
    0
286
    0
288
    0
289
    3
340
STANDARD
341

371
   -2
372
   -2
  0
ENDTAB
  0
TABLE
  2
BLOCK_RECORD
  5
1
330
0
100
AcDbSymbolTable
 70
    2
  0
BLOCK_RECORD
  5
1F
330
1
100
AcDbSymbolTableRecord
100
AcDbBlockTableRecord
  2
*Model_Space
 70
    0
280
    1
281
    0
  0
BLOCK_RECORD
  5
1E
330
1
100
AcDbSymbolTableRecord
100
AcDbBlockTableRecord
  2
*Paper_Space
 70
    0
280
    1
281
    0
  0
BLOCK_RECORD
  5
50
330
1
100
AcDbSymbolTableRecord
100
AcDbBlockTableRecord
  2
*D3
 70
    0
280
    1
281
    0
  0
BLOCK_RECORD
  5
53
330
1
100
AcDbSymbolTableRecord
100
AcDbBlockTableRecord
  2
*D5
 70
    0
280
    1
281
    0
  0
BLOCK_RECORD
  5
56
330
1
100
AcDbSymbolTableRecord
100
AcDbBlockTableRecord
  2
*D9
 70
    0
280
    1
281
    0
  0
BLOCK_RECORD
  5
59
330
1
100
AcDbSymbolTableRecord
100
AcDbBlockTableRecord
  2
*D11
 70
    0
280
    1
281
    0
  0
BLOCK_RECORD
  5
5C
330
1
100
AcDbSymbolTableRecord
100
AcDbBlockTableRecord
  2
*D13
 70
    0
280
    1
281
    0
  0
BLOCK_RECORD
  5
5F
330
1
100
AcDbSymbolTableRecord
100
AcDbBlockTableRecord
  2
*D2
 70
    0
280
    1
281
    0
  0
BLOCK_RECORD
  5
62
330
1
100
AcDbSymbolTableRecord
100
AcDbBlockTableRecord
  2
*D4
 70
    0
280
    1
281
    0
  0
BLOCK_RECORD
  5
65
330
1
100
AcDbSymbolTableRecord
100
AcDbBlockTableRecord
  2
*D7
 70
    0
280
    1
281
    0
  0
BLOCK_RECORD
  5
68
330
1
100
AcDbSymbolTableRecord
100
AcDbBlockTableRecord
  2
*D12
 70
    0
280
    1
281
    0
  0
BLOCK_RECORD
  5
6B
330
1
100
AcDbSymbolTableRecord
100
AcDbBlockTableRecord
  2
*D1
 70
    0
280
    1
281
    0
  0
BLOCK_RECORD
  5
6E
330
1
100
AcDbSymbolTableRecord
100
AcDbBlockTableRecord
  2
*D8
 70
    0
280
    1
281
    0
  0
BLOCK_RECORD
  5
71
330
1
100
AcDbSymbolTableRecord
100
AcDbBlockTableRecord
  2
*D10
 70
    0
280
    1
281
    0
  0
BLOCK_RECORD
  5
74
330
1
100
AcDbSymbolTableRecord
100
AcDbBlockTableRecord
  2
*D6
 70
    0
280
    1
281
    0
  0
ENDTAB
  0
ENDSEC
  0
SECTION
  2
BLOCKS
  0
BLOCK
  5
20
330
1F
100
AcDbEntity
  8
0
100
AcDbBlockBegin
  2
*Model_Space
 70
    0
 10
0
 20
0
 30
0
  3
*Model_Space
  1

  0
ENDBLK
  5
21
330
1F
100
AcDbEntity
  8
0
100
AcDbBlockEnd
  0
BLOCK
  5
1C
330
1B
100
AcDbEntity
  8
0
100
AcDbBlockBegin
  2
*Paper_Space
 70
    0
 10
0
 20
0
 30
0
  3
*Paper_Space
  1

  0
ENDBLK
  5
1D
330
1F
100
AcDbEntity
  8
0
100
AcDbBlockEnd
  0
BLOCK
  5
51
330
50
100
AcDbEntity
  8
0
100
AcDbBlockBegin
  2
*D3
 70
    1
 10
0
 20
0
  3
*D3
  1

  0
LINE
  5
77
100
AcDbEntity
  8
couple6-quotes
  6
ByBlock
 62
    0
370
   -2
100
AcDbLine
 10
-88.81226030512231
 20
646
 11
31.43425868661745
 21
646
  0
SOLID
  5
78
100
AcDbEntity
  8
couple6-quotes
  6
ByBlock
 62
    0
370
   -2
100
AcDbTrace
 10
-88.81226030512231
 20
646
 30
0
 11
-82.56226030512231
 21
647.0407116444321
 31
0
 12
-82.56226030512231
 22
644.9592883555679
 32
0
 13
-82.56226030512231
 23
644.9592883555679
 33
0
  0
SOLID
  5
79
100
AcDbEntity
  8
couple6-quotes
  6
ByBlock
 62
    0
370
   -2
100
AcDbTrace
 10
31.43425868661745
 20
646
 30
0
 11
25.18425868661745
 21
644.9592883555679
 31
0
 12
25.18425868661745
 22
647.0407116444321
 32
0
 13
25.18425868661745
 23
647.0407116444321
 33
0
  0
MTEXT
  5
7A
100
AcDbEntity
  8
couple6-quotes
  6
CONTINUOUS
 62
    0
370
   -2
100
AcDbMText
 10
-28.68900080925243
 20
650.6875
 30
0
 40
6.25
 41
18.40277777777778
 71
    5
 72
    1
  1
120,2
  7
STANDARD
210
0
220
0
230
1
 50
0
 73
    2
 44
1
  0
LINE
  5
7B
100
AcDbEntity
  8
couple6-quotes
  6
ByBlock
 62
    0
370
   -2
100
AcDbLine
 10
-88.81226030512232
 20
627.5625
 11
-88.81226030512231
 21
649.125
  0
LINE
  5
7C
100
AcDbEntity
  8
couple6-quotes
  6
ByBlock
 62
    0
370
   -2
100
AcDbLine
 10
31.43425868661745
 20
627.5625
 11
31.43425868661745
 21
649.125
  0
ENDBLK
  5
52
330
50
100
AcDbEntity
  8
0
100
AcDbBlockEnd
  0
BLOCK
  5
54
330
53
100
AcDbEntity
  8
0
100
AcDbBlockBegin
  2
*D5
 70
    1
 10
0
 20
0
  3
*D5
  1

  0
LINE
  5
7D
100
AcDbEntity
  8
couple6-quotes
  6
ByBlock
 62
    0
370
   -2
100
AcDbLine
 10
660.5534412600197
 20
646
 11
540.3069222682799
 21
646
  0
SOLID
  5
7E
100
AcDbEntity
  8
couple6-quotes
  6
ByBlock
 62
    0
370
   -2
100
AcDbTrace
 10
660.5534412600197
 20
646
 30
0
 11
654.3034412600197
 21
644.9592883555679
 31
0
 12
654.3034412600197
 22
647.0407116444321
 32
0
 13
654.3034412600197
 23
647.0407116444321
 33
0
  0
SOLID
  5
7F
100
AcDbEntity
  8
couple6-quotes
  6
ByBlock
 62
    0
370
   -2
100
AcDbTrace
 10
540.3069222682799
 20
646
 30
0
 11
546.5569222682799
 21
647.0407116444321
 31
0
 12
546.5569222682799
 22
644.9592883555679
 32
0
 13
546.5569222682799
 23
644.9592883555679
 33
0
  0
MTEXT
  5
80
100
AcDbEntity
  8
couple6-quotes
  6
CONTINUOUS
 62
    0
370
   -2
100
AcDbMText
 10
600.4301817641498
 20
650.6875
 30
0
 40
6.25
 41
18.40277777777778
 71
    5
 72
    1
  1
120,2
  7
STANDARD
210
0
220
0
230
1
 50
360
 73
    2
 44
1
  0
LINE
  5
81
100
AcDbEntity
  8
couple6-quotes
  6
ByBlock
 62
    0
370
   -2
100
AcDbLine
 10
660.5534412600197
 20
627.5625
 11
660.5534412600197
 21
649.125
  0
LINE
  5
82
100
AcDbEntity
  8
couple6-quotes
  6
ByBlock
 62
    0
370
   -2
100
AcDbLine
 10
540.3069222682799
 20
627.5625
 11
540.3069222682799
 21
649.125
  0
ENDBLK
  5
55
330
53
100
AcDbEntity
  8
0
100
AcDbBlockEnd
  0
BLOCK
  5
57
330
56
100
AcDbEntity
  8
0
100
AcDbBlockBegin
  2
*D9
 70
    1
 10
0
 20
0
  3
*D9
  1

  0
LINE
  5
83
100
AcDbEntity
  8
couple6-quotes
  6
ByBlock
 62
    0
370
   -2
100
AcDbLine
 10
-90.32151940869893
 20
485.5955952420272
 11
-149.7863280896199
 21
469.6620477779033
  0
LINE
  5
84
100
AcDbEntity
  8
couple6-quotes
  6
ByBlock
 62
    0
370
   -2
100
AcDbLine
 10
29.18382041558175
 20
39.59559524202731
 11
-30.28098826533924
 21
23.66204777790335
  0
LINE
  5
85
100
AcDbEntity
  8
couple6-quotes
  6
ByBlock
 62
    0
370
   -2
100
AcDbLine
 10
-146.7678098824666
 20
470.4708572938487
 11
-27.2624700581859
 21
24.47085729384872
  0
SOLID
  5
86
100
AcDbEntity
  8
couple6-quotes
  6
ByBlock
 62
    0
370
   -2
100
AcDbTrace
 10
-146.7678098824666
 20
470.4708572938487
 30
0
 11
-144.1449405954991
 21
464.703176873581
 31
0
 12
-146.1554411056526
 22
464.164464885503
 32
0
 13
-146.1554411056526
 23
464.164464885503
 33
0
  0
SOLID
  5
87
100
AcDbEntity
  8
couple6-quotes
  6
ByBlock
 62
    0
370
   -2
100
AcDbTrace
 10
-27.2624700581859
 20
24.47085729384872
 30
0
 11
-29.88533934515338
 21
30.23853771411641
 31
0
 12
-27.87483883499992
 22
30.77724970219439
 32
0
 13
-27.87483883499992
 23
30.77724970219439
 33
0
  0
MTEXT
  5
88
100
AcDbEntity
  8
couple6-quotes
  6
CONTINUOUS
 62
    0
370
   -2
100
AcDbMText
 10
-82.48736265959624
 20
248.6840715677668
 30
0
 40
6.25
 41
19.09722222222261
 71
    5
 72
    1
  1
461,7
  7
STANDARD
210
0
220
0
230
1
 50
285
 73
    2
 44
1
  0
ENDBLK
  5
58
330
56
100
AcDbEntity
  8
0
100
AcDbBlockEnd
  0
BLOCK
  5
5A
330
59
100
AcDbEntity
  8
0
100
AcDbBlockBegin
  2
*D11
 70
    1
 10
0
 20
0
  3
*D11
  1

  0
LINE
  5
89
100
AcDbEntity
  8
couple6-quotes
  6
ByBlock
 62
    0
370
   -2
100
AcDbLine
 10
572
 20
-20
 11
0
 21
-20
  0
SOLID
  5
8A
100
AcDbEntity
  8
couple6-quotes
  6
ByBlock
 62
    0
370
   -2
100
AcDbTrace
 10
572
 20
-20
 30
0
 11
565.75
 21
-21.0407116444321
 31
0
 12
565.75
 22
-18.9592883555679
 32
0
 13
565.75
 23
-18.9592883555679
 33
0
  0
SOLID
  5
8B
100
AcDbEntity
  8
couple6-quotes
  6
ByBlock
 62
    0
370
   -2
100
AcDbTrace
 10
0
 20
-20
 30
0
 11
6.25
 21
-18.9592883555679
 31
0
 12
6.25
 22
-21.0407116444321
 32
0
 13
6.25
 23
-21.0407116444321
 33
0
  0
MTEXT
  5
8C
100
AcDbEntity
  8
couple6-quotes
  6
CONTINUOUS
 62
    0
370
   -2
100
AcDbMText
 10
286
 20
-15.3125
 30
0
 40
6.25
 41
12.50000000000039
 71
    5
 72
    1
  1
572
  7
STANDARD
210
0
220
0
230
1
 50
360
 73
    2
 44
1
  0
LINE
  5
8D
100
AcDbEntity
  8
couple6-quotes
  6
ByBlock
 62
    0
370
   -2
100
AcDbLine
 10
572
 20
-1.5625
 11
572
 21
-23.125
  0
LINE
  5
8E
100
AcDbEntity
  8
couple6-quotes
  6
ByBlock
 62
    0
370
   -2
100
AcDbLine
 10
-2.870265935501609e-16
 20
-1.5625
 11
-5.740531871003218e-16
 21
-23.125
  0
ENDBLK
  5
5B
330
59
100
AcDbEntity
  8
0
100
AcDbBlockEnd
  0
BLOCK
  5
5D
330
5C
100
AcDbEntity
  8
0
100
AcDbBlockBegin
  2
*D13
 70
    1
 10
0
 20
0
  3
*D13
  1

  0
LINE
  5
8F
100
AcDbEntity
  8
couple6-quotes
  6
ByBlock
 62
    0
370
   -2
100
AcDbLine
 10
740.8603405730881
 20
486
 11
740.8603405730881
 21
0
  0
SOLID
  5
90
100
AcDbEntity
  8
couple6-quotes
  6
ByBlock
 62
    0
370
   -2
100
AcDbTrace
 10
740.8603405730881
 20
486
 30
0
 11
741.9010522175203
 21
479.75
 31
0
 12
739.819628928656
 22
479.75
 32
0
 13
739.819628928656
 23
479.75
 33
0
  0
SOLID
  5
91
100
AcDbEntity
  8
couple6-quotes
  6
ByBlock
 62
    0
370
   -2
100
AcDbTrace
 10
740.8603405730881
 20
0
 30
0
 11
739.819628928656
 21
6.25
 31
0
 12
741.9010522175203
 22
6.25
 32
0
 13
741.9010522175203
 23
6.25
 33
0
  0
MTEXT
  5
92
100
AcDbEntity
  8
couple6-quotes
  6
CONTINUOUS
 62
    0
370
   -2
100
AcDbMText
 10
736.1728405730881
 20
243
 30
0
 40
6.25
 41
13.19444444444483
 71
    5
 72
    1
  1
486
  7
STANDARD
210
0
220
0
230
1
 50
90
 73
    2
 44
1
  0
LINE
  5
93
100
AcDbEntity
  8
couple6-quotes
  6
ByBlock
 62
    0
370
   -2
100
AcDbLine
 10
703.7858075215256
 20
486
 11
743.9853405730881
 21
486
  0
LINE
  5
94
100
AcDbEntity
  8
couple6-quotes
  6
ByBlock
 62
    0
370
   -2
100
AcDbLine
 10
573.5625
 20
0
 11
743.9853405730881
 21
0
  0
ENDBLK
  5
5E
330
5C
100
AcDbEntity
  8
0
100
AcDbBlockEnd
  0
BLOCK
  5
60
330
5F
100
AcDbEntity
  8
0
100
AcDbBlockBegin
  2
*D2
 70
    1
 10
0
 20
0
  3
*D2
  1

  0
LINE
  5
95
100
AcDbEntity
  8
couple6-quotes
  6
ByBlock
 62
    0
370
   -2
100
AcDbLine
 10
-122.3755721471136
 20
646
 11
-88.81226030512232
 21
646
  0
SOLID
  5
96
100
AcDbEntity
  8
couple6-quotes
  6
ByBlock
 62
    0
370
   -2
100
AcDbTrace
 10
-122.3755721471136
 20
646
 30
0
 11
-116.1255721471136
 21
647.0407116444321
 31
0
 12
-116.1255721471136
 22
644.9592883555679
 32
0
 13
-116.1255721471136
 23
644.9592883555679
 33
0
  0
SOLID
  5
97
100
AcDbEntity
  8
couple6-quotes
  6
ByBlock
 62
    0
370
   -2
100
AcDbTrace
 10
-88.81226030512232
 20
646
 30
0
 11
-95.06226030512232
 21
644.9592883555679
 31
0
 12
-95.06226030512232
 22
647.0407116444321
 32
0
 13
-95.06226030512232
 23
647.0407116444321
 33
0
  0
MTEXT
  5
98
100
AcDbEntity
  8
couple6-quotes
  6
CONTINUOUS
 62
    0
370
   -2
100
AcDbMText
 10
-105.593916226118
 20
650.6875
 30
0
 40
6.25
 41
14.93055555555672
 71
    5
 72
    1
  1
33,6
  7
STANDARD
210
0
220
0
230
1
 50
0
 73
    2
 44
1
  0
LINE
  5
99
100
AcDbEntity
  8
couple6-quotes
  6
ByBlock
 62
    0
370
   -2
100
AcDbLine
 10
-122.3755721471136
 20
587.5625
 11
-122.3755721471136
 21
649.125
  0
LINE
  5
9A
100
AcDbEntity
  8
couple6-quotes
  6
ByBlock
 62
    0
370
   -2
100
AcDbLine
 10
-88.81226030512232
 20
587.5625
 11
-88.81226030512232
 21
649.125
  0
ENDBLK
  5
61
330
5F
100
AcDbEntity
  8
0
100
AcDbBlockEnd
  0
BLOCK
  5
63
330
62
100
AcDbEntity
  8
0
100
AcDbBlockBegin
  2
*D4
 70
    1
 10
0
 20
0
  3
*D4
  1

  0
LINE
  5
9B
100
AcDbEntity
  8
couple6-quotes
  6
ByBlock
 62
    0
370
   -2
100
AcDbLine
 10
31.43425868661745
 20
646
 11
540.3069222682799
 21
646
  0
SOLID
  5
9C
100
AcDbEntity
  8
couple6-quotes
  6
ByBlock
 62
    0
370
   -2
100
AcDbTrace
 10
31.43425868661745
 20
646
 30
0
 11
37.68425868661745
 21
647.0407116444321
 31
0
 12
37.68425868661745
 22
644.9592883555679
 32
0
 13
37.68425868661745
 23
644.9592883555679
 33
0
  0
SOLID
  5
9D
100
AcDbEntity
  8
couple6-quotes
  6
ByBlock
 62
    0
370
   -2
100
AcDbTrace
 10
540.3069222682799
 20
646
 30
0
 11
534.0569222682799
 21
644.9592883555679
 31
0
 12
534.0569222682799
 22
647.0407116444321
 32
0
 13
534.0569222682799
 23
647.0407116444321
 33
0
  0
MTEXT
  5
9E
100
AcDbEntity
  8
couple6-quotes
  6
CONTINUOUS
 62
    0
370
   -2
100
AcDbMText
 10
285.8705904774487
 20
650.6875
 30
0
 40
6.25
 41
19.79166666666706
 71
    5
 72
    1
  1
508,9
  7
STANDARD
210
0
220
0
230
1
 50
0
 73
    2
 44
1
  0
LINE
  5
9F
100
AcDbEntity
  8
couple6-quotes
  6
ByBlock
 62
    0
370
   -2
100
AcDbLine
 10
31.43425868661745
 20
627.5625
 11
31.43425868661745
 21
649.125
  0
LINE
  5
A0
100
AcDbEntity
  8
couple6-quotes
  6
ByBlock
 62
    0
370
   -2
100
AcDbLine
 10
540.3069222682799
 20
627.5625
 11
540.3069222682799
 21
649.125
  0
ENDBLK
  5
64
330
62
100
AcDbEntity
  8
0
100
AcDbBlockEnd
  0
BLOCK
  5
66
330
65
100
AcDbEntity
  8
0
100
AcDbBlockBegin
  2
*D7
 70
    1
 10
0
 20
0
  3
*D7
  1

  0
LINE
  5
A1
100
AcDbEntity
  8
couple6-quotes
  6
ByBlock
 62
    0
370
   -2
100
AcDbLine
 10
681.6167531020105
 20
646
 11
722.1772972403469
 21
646
  0
SOLID
  5
A2
100
AcDbEntity
  8
couple6-quotes
  6
ByBlock
 62
    0
370
   -2
100
AcDbTrace
 10
694.1167531020105
 20
646
 30
0
 11
687.8667531020105
 21
644.9592883555679
 31
0
 12
687.8667531020105
 22
647.0407116444321
 32
0
 13
687.8667531020105
 23
647.0407116444321
 33
0
  0
SOLID
  5
A3
100
AcDbEntity
  8
couple6-quotes
  6
ByBlock
 62
    0
370
   -2
100
AcDbTrace
 10
709.6772972403469
 20
646
 30
0
 11
715.9272972403469
 21
647.0407116444321
 31
0
 12
715.9272972403469
 22
644.9592883555679
 32
0
 13
715.9272972403469
 23
644.9592883555679
 33
0
  0
MTEXT
  5
A4
100
AcDbEntity
  8
couple6-quotes
  6
CONTINUOUS
 62
    0
370
   -2
100
AcDbMText
 10
701.8970251711787
 20
650.6875
 30
0
 40
6.25
 41
13.54166666666744
 71
    5
 72
    1
  1
15,6
  7
STANDARD
210
0
220
0
230
1
 50
0
 73
    2
 44
1
  0
LINE
  5
A5
100
AcDbEntity
  8
couple6-quotes
  6
ByBlock
 62
    0
370
   -2
100
AcDbLine
 10
694.1167531020105
 20
587.5624999999993
 11
694.1167531020105
 21
649.125
  0
LINE
  5
A6
100
AcDbEntity
  8
couple6-quotes
  6
ByBlock
 62
    0
370
   -2
100
AcDbLine
 10
709.6772972403469
 20
627.5624999999993
 11
709.6772972403469
 21
649.125
  0
ENDBLK
  5
67
330
65
100
AcDbEntity
  8
0
100
AcDbBlockEnd
  0
BLOCK
  5
69
330
68
100
AcDbEntity
  8
0
100
AcDbBlockBegin
  2
*D12
 70
    1
 10
0
 20
0
  3
*D12
  1

  0
LINE
  5
A7
100
AcDbEntity
  8
couple6-quotes
  6
ByBlock
 62
    0
370
   -2
100
AcDbLine
 10
721.5418240473068
 20
486
 11
721.5418240473068
 21
40
  0
SOLID
  5
A8
100
AcDbEntity
  8
couple6-quotes
  6
ByBlock
 62
    0
370
   -2
100
AcDbTrace
 10
721.5418240473068
 20
486
 30
0
 11
722.5825356917389
 21
479.75
 31
0
 12
720.5011124028747
 22
479.75
 32
0
 13
720.5011124028747
 23
479.75
 33
0
  0
SOLID
  5
A9
100
AcDbEntity
  8
couple6-quotes
  6
ByBlock
 62
    0
370
   -2
100
AcDbTrace
 10
721.5418240473068
 20
40
 30
0
 11
720.5011124028747
 21
46.25
 31
0
 12
722.5825356917389
 22
46.25
 32
0
 13
722.5825356917389
 23
46.25
 33
0
  0
MTEXT
  5
AA
100
AcDbEntity
  8
couple6-quotes
  6
CONTINUOUS
 62
    0
370
   -2
100
AcDbMText
 10
716.8543240473068
 20
263
 30
0
 40
6.25
 41
13.88888888888928
 71
    5
 72
    1
  1
446
  7
STANDARD
210
0
220
0
230
1
 50
90
 73
    2
 44
1
  0
LINE
  5
AB
100
AcDbEntity
  8
couple6-quotes
  6
ByBlock
 62
    0
370
   -2
100
AcDbLine
 10
662.3747603051222
 20
486
 11
724.6668240473068
 21
486
  0
LINE
  5
AC
100
AcDbEntity
  8
couple6-quotes
  6
ByBlock
 62
    0
370
   -2
100
AcDbLine
 10
542.8694204808415
 20
40
 11
724.6668240473068
 21
40
  0
ENDBLK
  5
6A
330
68
100
AcDbEntity
  8
0
100
AcDbBlockEnd
  0
BLOCK
  5
6C
330
6B
100
AcDbEntity
  8
0
100
AcDbBlockBegin
  2
*D1
 70
    1
 10
0
 20
0
  3
*D1
  1

  0
LINE
  5
AD
100
AcDbEntity
  8
couple6-quotes
  6
ByBlock
 62
    0
370
   -2
100
AcDbLine
 10
-150.4361162854502
 20
646
 11
-109.8755721471136
 21
646
  0
SOLID
  5
AE
100
AcDbEntity
  8
couple6-quotes
  6
ByBlock
 62
    0
370
   -2
100
AcDbTrace
 10
-137.9361162854502
 20
646
 30
0
 11
-144.1861162854502
 21
644.9592883555679
 31
0
 12
-144.1861162854502
 22
647.0407116444321
 32
0
 13
-144.1861162854502
 23
647.0407116444321
 33
0
  0
SOLID
  5
AF
100
AcDbEntity
  8
couple6-quotes
  6
ByBlock
 62
    0
370
   -2
100
AcDbTrace
 10
-122.3755721471136
 20
646
 30
0
 11
-116.1255721471136
 21
647.0407116444321
 31
0
 12
-116.1255721471136
 22
644.9592883555679
 32
0
 13
-116.1255721471136
 23
644.9592883555679
 33
0
  0
MTEXT
  5
B0
100
AcDbEntity
  8
couple6-quotes
  6
CONTINUOUS
 62
    0
370
   -2
100
AcDbMText
 10
-130.1558442162819
 20
650.6875
 30
0
 40
6.25
 41
13.54166666666744
 71
    5
 72
    1
  1
15,6
  7
STANDARD
210
0
220
0
230
1
 50
0
 73
    2
 44
1
  0
LINE
  5
B1
100
AcDbEntity
  8
couple6-quotes
  6
ByBlock
 62
    0
370
   -2
100
AcDbLine
 10
-137.9361162854502
 20
627.5625000000005
 11
-137.9361162854502
 21
649.125
  0
LINE
  5
B2
100
AcDbEntity
  8
couple6-quotes
  6
ByBlock
 62
    0
370
   -2
100
AcDbLine
 10
-122.3755721471136
 20
587.5625
 11
-122.3755721471136
 21
649.125
  0
ENDBLK
  5
6D
330
6B
100
AcDbEntity
  8
0
100
AcDbBlockEnd
  0
BLOCK
  5
6F
330
6E
100
AcDbEntity
  8
0
100
AcDbBlockBegin
  2
*D8
 70
    1
 10
0
 20
0
  3
*D8
  1

  0
LINE
  5
B3
100
AcDbEntity
  8
couple6-quotes
  6
ByBlock
 62
    0
370
   -2
100
AcDbLine
 10
-137.9361162854502
 20
666
 11
709.6772972403472
 21
666
  0
SOLID
  5
B4
100
AcDbEntity
  8
couple6-quotes
  6
ByBlock
 62
    0
370
   -2
100
AcDbTrace
 10
-137.9361162854502
 20
666
 30
0
 11
-131.6861162854502
 21
667.0407116444321
 31
0
 12
-131.6861162854502
 22
664.9592883555679
 32
0
 13
-131.6861162854502
 23
664.9592883555679
 33
0
  0
SOLID
  5
B5
100
AcDbEntity
  8
couple6-quotes
  6
ByBlock
 62
    0
370
   -2
100
AcDbTrace
 10
709.6772972403472
 20
666
 30
0
 11
703.4272972403472
 21
664.9592883555679
 31
0
 12
703.4272972403472
 22
667.0407116444321
 32
0
 13
703.4272972403472
 23
667.0407116444321
 33
0
  0
MTEXT
  5
B6
100
AcDbEntity
  8
couple6-quotes
  6
CONTINUOUS
 62
    0
370
   -2
100
AcDbMText
 10
285.8705904774485
 20
670.6875
 30
0
 40
6.25
 41
20.4861111111115
 71
    5
 72
    1
  1
847,6
  7
STANDARD
210
0
220
0
230
1
 50
0
 73
    2
 44
1
  0
LINE
  5
B7
100
AcDbEntity
  8
couple6-quotes
  6
ByBlock
 62
    0
370
   -2
100
AcDbLine
 10
-137.9361162854501
 20
627.5625
 11
-137.9361162854502
 21
669.125
  0
LINE
  5
B8
100
AcDbEntity
  8
couple6-quotes
  6
ByBlock
 62
    0
370
   -2
100
AcDbLine
 10
709.6772972403472
 20
627.5625
 11
709.6772972403472
 21
669.125
  0
ENDBLK
  5
70
330
6E
100
AcDbEntity
  8
0
100
AcDbBlockEnd
  0
BLOCK
  5
72
330
71
100
AcDbEntity
  8
0
100
AcDbBlockBegin
  2
*D10
 70
    1
 10
0
 20
0
  3
*D10
  1

  0
LINE
  5
B9
100
AcDbEntity
  8
couple6-quotes
  6
ByBlock
 62
    0
370
   -2
100
AcDbLine
 10
-131.7325666251023
 20
485.5955952420273
 11
-171.8788587802419
 21
474.8384286799537
  0
LINE
  5
BA
100
AcDbEntity
  8
couple6-quotes
  6
ByBlock
 62
    0
370
   -2
100
AcDbLine
 10
-1.509259103576669
 20
-0.404404757972688
 11
-41.65555125871633
 21
-11.16157132004626
  0
LINE
  5
BB
100
AcDbEntity
  8
couple6-quotes
  6
ByBlock
 62
    0
370
   -2
100
AcDbLine
 10
-168.8603405730886
 20
475.6472381958991
 11
-38.63703305156299
 21
-10.35276180410088
  0
SOLID
  5
BC
100
AcDbEntity
  8
couple6-quotes
  6
ByBlock
 62
    0
370
   -2
100
AcDbTrace
 10
-168.8603405730886
 20
475.6472381958991
 30
0
 11
-166.2374712861211
 21
469.8795577756314
 31
0
 12
-168.2479717962746
 22
469.3408457875534
 32
0
 13
-168.2479717962746
 23
469.3408457875534
 33
0
  0
SOLID
  5
BD
100
AcDbEntity
  8
couple6-quotes
  6
ByBlock
 62
    0
370
   -2
100
AcDbTrace
 10
-38.63703305156299
 20
-10.35276180410088
 30
0
 11
-41.25990233853047
 21
-4.585081383833193
 31
0
 12
-39.249401828377
 22
-4.046369395755213
 32
0
 13
-39.249401828377
 23
-4.046369395755213
 33
0
  0
MTEXT
  5
BE
100
AcDbEntity
  8
couple6-quotes
  6
CONTINUOUS
 62
    0
370
   -2
100
AcDbMText
 10
-99.22090950159577
 20
233.8604524698171
 30
0
 40
6.25
 41
18.40277777777855
 71
    5
 72
    1
  1
503,1
  7
STANDARD
210
0
220
0
230
1
 50
285
 73
    2
 44
1
  0
ENDBLK
  5
73
330
71
100
AcDbEntity
  8
0
100
AcDbBlockEnd
  0
BLOCK
  5
75
330
74
100
AcDbEntity
  8
0
100
AcDbBlockBegin
  2
*D6
 70
    1
 10
0
 20
0
  3
*D6
  1

  0
LINE
  5
BF
100
AcDbEntity
  8
couple6-quotes
  6
ByBlock
 62
    0
370
   -2
100
AcDbLine
 10
660.5534412600197
 20
646
 11
694.1167531020108
 21
646
  0
SOLID
  5
C0
100
AcDbEntity
  8
couple6-quotes
  6
ByBlock
 62
    0
370
   -2
100
AcDbTrace
 10
660.5534412600197
 20
646
 30
0
 11
666.8034412600197
 21
647.0407116444321
 31
0
 12
666.8034412600197
 22
644.9592883555679
 32
0
 13
666.8034412600197
 23
644.9592883555679
 33
0
  0
SOLID
  5
C1
100
AcDbEntity
  8
couple6-quotes
  6
ByBlock
 62
    0
370
   -2
100
AcDbTrace
 10
694.1167531020108
 20
646
 30
0
 11
687.8667531020108
 21
644.9592883555679
 31
0
 12
687.8667531020108
 22
647.0407116444321
 32
0
 13
687.8667531020108
 23
647.0407116444321
 33
0
  0
MTEXT
  5
C2
100
AcDbEntity
  8
couple6-quotes
  6
CONTINUOUS
 62
    0
370
   -2
100
AcDbMText
 10
677.3350971810153
 20
650.6875
 30
0
 40
6.25
 41
14.93055555555672
 71
    5
 72
    1
  1
33,6
  7
STANDARD
210
0
220
0
230
1
 50
0
 73
    2
 44
1
  0
LINE
  5
C3
100
AcDbEntity
  8
couple6-quotes
  6
ByBlock
 62
    0
370
   -2
100
AcDbLine
 10
660.5534412600197
 20
627.5625
 11
660.5534412600197
 21
649.125
  0
LINE
  5
C4
100
AcDbEntity
  8
couple6-quotes
  6
ByBlock
 62
    0
370
   -2
100
AcDbLine
 10
694.1167531020108
 20
587.5625
 11
694.1167531020108
 21
649.125
  0
ENDBLK
  5
76
330
74
100
AcDbEntity
  8
0
100
AcDbBlockEnd
  0
ENDSEC
  0
SECTION
  2
ENTITIES
  0
LINE
  5
C5
100
AcDbEntity
  8
couple 6
  6
ByLayer
 62
  256
370
   -1
100
AcDbLine
 10
0
 20
0
 11
572
 21
0
  0
LINE
  5
C6
100
AcDbEntity
  8
couple 6
  6
ByLayer
 62
  256
370
   -1
100
AcDbLine
 10
-130.2233075215256
 20
486
 11
0
 21
0
  0
LINE
  5
C7
100
AcDbEntity
  8
couple 6
  6
ByLayer
 62
  256
370
   -1
100
AcDbLine
 10
-130.2233075215256
 20
486
 11
-88.81226030512227
 21
486
  0
LINE
  5
C8
100
AcDbEntity
  8
couple 6
  6
ByLayer
 62
  256
370
   -1
100
AcDbLine
 10
-88.81226030512227
 20
486
 11
30.69307951915842
 21
40
  0
LINE
  5
C9
100
AcDbEntity
  8
couple 6
  6
ByLayer
 62
  256
370
   -1
100
AcDbLine
 10
702.2233075215256
 20
486
 11
572
 21
0
  0
LINE
  5
CA
100
AcDbEntity
  8
couple 6
  6
ByLayer
 62
  256
370
   -1
100
AcDbLine
 10
702.2233075215256
 20
486
 11
660.8122603051222
 21
486
  0
LINE
  5
CB
100
AcDbEntity
  8
couple 6
  6
ByLayer
 62
  256
370
   -1
100
AcDbLine
 10
660.8122603051222
 20
486
 11
541.3069204808415
 21
40
  0
LINE
  5
CC
100
AcDbEntity
  8
couple 6
  6
ByLayer
 62
  256
370
   -1
100
AcDbLine
 10
30.4342604740559
 20
40.96592582628907
 11
541.3069204808415
 21
40
  0
LINE
  5
CD
100
AcDbEntity
  8
couple 6
  6
ByLayer
 62
  256
370
   -1
100
AcDbLine
 10
540.3069222682799
 20
586
 11
540.3069222682799
 21
626
  0
LINE
  5
CE
100
AcDbEntity
  8
couple 6
  6
ByLayer
 62
  256
370
   -1
100
AcDbLine
 10
660.5534412600197
 20
586
 11
660.5534412600197
 21
626
  0
LINE
  5
CF
100
AcDbEntity
  8
couple 6
  6
ByLayer
 62
  256
370
   -1
100
AcDbLine
 10
31.43425868661745
 20
586
 11
31.43425868661745
 21
626
  0
LINE
  5
D0
100
AcDbEntity
  8
couple 6
  6
ByLayer
 62
  256
370
   -1
100
AcDbLine
 10
-88.81226030512232
 20
586
 11
-88.81226030512232
 21
626
  0
ARC
  5
D1
100
AcDbEntity
  8
couple 6
  6
ByLayer
 62
  256
370
   -1
100
AcDbCircle
 10
3283.018773509782
 20
1933.771357274401
 40
3662.403347655913
100
AcDbArc
 50
200.920982936755
 51
201.5924413903587
  0
LINE
  5
D2
100
AcDbEntity
  8
couple 6
  6
ByLayer
 62
  256
370
   -1
100
AcDbLine
 10
-122.3755721471136
 20
586
 11
694.1167531020108
 21
586
  0
ARC
  5
D3
100
AcDbEntity
  8
couple 6
  6
ByLayer
 62
  256
370
   -1
100
AcDbCircle
 10
-2711.277592554885
 20
1933.771357274401
 40
3662.403347655913
100
AcDbArc
 50
338.4075586096413
 51
339.079017063245
  0
LINE
  5
D4
100
AcDbEntity
  8
couple 6
  6
ByLayer
 62
  256
370
   -1
100
AcDbLine
 10
-137.9361162854501
 20
626
 11
709.6772972403472
 21
626
  0
LINE
  5
D5
100
AcDbEntity
  8
couple 6
  6
ByLayer
 62
  256
370
   -1
100
AcDbLine
 10
-122.3755721471136
 20
486
 11
7.847735374411969
 21
0
  0
LINE
  5
D6
100
AcDbEntity
  8
couple 6
  6
ByLayer
 62
  256
370
   -1
100
AcDbLine
 10
694.1167531020106
 20
486
 11
563.8934455804849
 21
0
  0
DIMENSION
  5
D7
100
AcDbEntity
  8
couple6-quotes
  6
ByLayer
 62
  256
370
   -1
100
AcDbDimension
  2
*D1
 10
-122.3755721471136
 20
646
 30
0
 11
-130.1558442162819
 21
650.6875
 31
0
 70
   32
 71
    5
  3
Standard
 53
0
210
0
220
0
230
1
100
AcDbAlignedDimension
 13
-137.9361162854502
 23
626.0000000000005
 33
0
 14
-122.3755721471136
 24
586
 34
0
100
AcDbRotatedDimension
  0
DIMENSION
  5
D8
100
AcDbEntity
  8
couple6-quotes
  6
ByLayer
 62
  256
370
   -1
100
AcDbDimension
  2
*D2
 10
-88.81226030512232
 20
646
 30
0
 11
-105.593916226118
 21
650.6875
 31
0
 70
   32
 71
    5
  3
Standard
 53
0
210
0
220
0
230
1
100
AcDbAlignedDimension
 13
-122.3755721471136
 23
586
 33
0
 14
-88.81226030512232
 24
586
 34
0
100
AcDbRotatedDimension
  0
DIMENSION
  5
D9
100
AcDbEntity
  8
couple6-quotes
  6
ByLayer
 62
  256
370
   -1
100
AcDbDimension
  2
*D3
 10
31.43425868661745
 20
646
 30
0
 11
-28.68900080925243
 21
650.6875
 31
0
 70
   32
 71
    5
  3
Standard
 53
0
210
0
220
0
230
1
100
AcDbAlignedDimension
 13
-88.81226030512232
 23
626
 33
0
 14
31.43425868661745
 24
626
 34
0
100
AcDbRotatedDimension
  0
DIMENSION
  5
DA
100
AcDbEntity
  8
couple6-quotes
  6
ByLayer
 62
  256
370
   -1
100
AcDbDimension
  2
*D4
 10
540.3069222682799
 20
646
 30
0
 11
285.8705904774487
 21
650.6875
 31
0
 70
   32
 71
    5
  3
Standard
 53
0
210
0
220
0
230
1
100
AcDbAlignedDimension
 13
31.43425868661745
 23
626
 33
0
 14
540.3069222682799
 24
626
 34
0
100
AcDbRotatedDimension
  0
DIMENSION
  5
DB
100
AcDbEntity
  8
couple6-quotes
  6
ByLayer
 62
  256
370
   -1
100
AcDbDimension
  2
*D5
 10
540.3069222682799
 20
646
 30
0
 11
600.4301817641498
 21
650.6875
 31
0
 70
   32
 71
    5
  3
Standard
 53
0
210
0
220
0
230
1
100
AcDbAlignedDimension
 13
660.5534412600197
 23
626
 33
0
 14
540.3069222682799
 24
626
 34
0
100
AcDbRotatedDimension
  0
DIMENSION
  5
DC
100
AcDbEntity
  8
couple6-quotes
  6
ByLayer
 62
  256
370
   -1
100
AcDbDimension
  2
*D6
 10
694.1167531020108
 20
646
 30
0
 11
677.3350971810153
 21
650.6875
 31
0
 70
   32
 71
    5
  3
Standard
 53
0
210
0
220
0
230
1
100
AcDbAlignedDimension
 13
660.5534412600197
 23
626
 33
0
 14
694.1167531020108
 24
586
 34
0
100
AcDbRotatedDimension
  0
DIMENSION
  5
DD
100
AcDbEntity
  8
couple6-quotes
  6
ByLayer
 62
  256
370
   -1
100
AcDbDimension
  2
*D7
 10
709.6772972403469
 20
646
 30
0
 11
701.8970251711787
 21
650.6875
 31
0
 70
   32
 71
    5
  3
Standard
 53
0
210
0
220
0
230
1
100
AcDbAlignedDimension
 13
694.1167531020105
 23
585.9999999999993
 33
0
 14
709.6772972403469
 24
625.9999999999993
 34
0
100
AcDbRotatedDimension
  0
DIMENSION
  5
DE
100
AcDbEntity
  8
couple6-quotes
  6
ByLayer
 62
  256
370
   -1
100
AcDbDimension
  2
*D8
 10
709.6772972403472
 20
666
 30
0
 11
285.8705904774485
 21
670.6875
 31
0
 70
   32
 71
    5
  3
Standard
 53
0
210
0
220
0
230
1
100
AcDbAlignedDimension
 13
-137.9361162854501
 23
626
 33
0
 14
709.6772972403472
 24
626
 34
0
100
AcDbRotatedDimension
  0
DIMENSION
  5
DF
100
AcDbEntity
  8
couple6-quotes
  6
ByLayer
 62
  256
370
   -1
100
AcDbDimension
  2
*D9
 10
-27.26247005818589
 20
24.47085729384872
 30
0
 11
-82.48736265959624
 21
248.6840715677668
 31
0
 70
   33
 71
    5
  3
Standard
 53
0
210
0
220
0
230
1
100
AcDbAlignedDimension
 13
-88.81226030512227
 23
485.9999999999999
 33
0
 14
30.69307951915842
 24
40
 34
0
  0
DIMENSION
  5
E0
100
AcDbEntity
  8
couple6-quotes
  6
ByLayer
 62
  256
370
   -1
100
AcDbDimension
  2
*D10
 10
-38.63703305156299
 20
-10.35276180410088
 30
0
 11
-99.22090950159577
 21
233.8604524698171
 31
0
 70
   33
 71
    5
  3
Standard
 53
0
210
0
220
0
230
1
100
AcDbAlignedDimension
 13
-130.2233075215256
 23
486
 33
0
 14
0
 24
0
 34
0
  0
DIMENSION
  5
E1
100
AcDbEntity
  8
couple6-quotes
  6
ByLayer
 62
  256
370
   -1
100
AcDbDimension
  2
*D11
 10
-1.224646799147353e-15
 20
-20
 30
0
 11
286
 21
-15.3125
 31
0
 70
   32
 71
    5
  3
Standard
 53
0
210
0
220
0
230
1
100
AcDbAlignedDimension
 13
572
 23
0
 33
0
 14
0
 24
0
 34
0
100
AcDbRotatedDimension
  0
DIMENSION
  5
E2
100
AcDbEntity
  8
couple6-quotes
  6
ByLayer
 62
  256
370
   -1
100
AcDbDimension
  2
*D12
 10
721.5418240473068
 20
39.99999999999997
 30
0
 11
716.8543240473068
 21
263
 31
0
 70
   32
 71
    5
  3
Standard
 53
0
210
0
220
0
230
1
100
AcDbAlignedDimension
 13
660.8122603051222
 23
486
 33
0
 14
541.3069204808415
 24
40
 34
0
 50
90
100
AcDbRotatedDimension
  0
DIMENSION
  5
E3
100
AcDbEntity
  8
couple6-quotes
  6
ByLayer
 62
  256
370
   -1
100
AcDbDimension
  2
*D13
 10
740.8603405730881
 20
-2.067942755857644e-14
 30
0
 11
736.1728405730881
 21
243
 31
0
 70
   32
 71
    5
  3
Standard
 53
0
210
0
220
0
230
1
100
AcDbAlignedDimension
 13
702.2233075215256
 23
486
 33
0
 14
572
 24
0
 34
0
 50
90
100
AcDbRotatedDimension
  0
MTEXT
  5
E4
100
AcDbEntity
  8
couple6-quotes
  6
ByLayer
 62
  256
370
   -1
100
AcDbMText
 10
381.3588030532575
 20
329.5693359719509
 30
0
 40
20
 41
135.0000000000031
 71
    1
 72
    1
  1
Couple 6\Pechelle 1:5
  7

210
0
220
0
230
1
 50
0
 73
    2
 44
1
  0
LINE
  5
E5
100
AcDbEntity
  8
profiloscad1
  6
ByLayer
 62
  256
370
   -1
100
AcDbLine
 10
-416.2233075215256
 20
486
 11
-374.8122603051223
 21
485.9999999999999
  0
LINE
  5
E6
100
AcDbEntity
  8
profiloscad1
  6
ByLayer
 62
  256
370
   -1
100
AcDbLine
 10
-374.8122603051223
 20
485.9999999999999
 11
-255.5657395259441
 21
40.96592582628907
  0
LINE
  5
E7
100
AcDbEntity
  8
profiloscad1
  6
ByLayer
 62
  256
370
   -1
100
AcDbLine
 10
-255.5657395259441
 20
40.96592582628907
 11
255.3069204808415
 21
40
  0
LINE
  5
E8
100
AcDbEntity
  8
profiloscad1
  6
ByLayer
 62
  256
370
   -1
100
AcDbLine
 10
255.3069204808415
 20
40
 11
374.8122603051222
 21
486
  0
LINE
  5
E9
100
AcDbEntity
  8
profiloscad1
  6
ByLayer
 62
  256
370
   -1
100
AcDbLine
 10
374.8122603051222
 20
486
 11
416.2233075215256
 21
486
  0
LINE
  5
EA
100
AcDbEntity
  8
profiloscad1
  6
ByLayer
 62
  256
370
   -1
100
AcDbLine
 10
416.2233075215256
 20
486
 11
286
 21
0
  0
LINE
  5
EB
100
AcDbEntity
  8
profiloscad1
  6
ByLayer
 62
  256
370
   -1
100
AcDbLine
 10
286
 20
0
 11
-286
 21
0
  0
LINE
  5
EC
100
AcDbEntity
  8
profiloscad1
  6
ByLayer
 62
  256
370
   -1
100
AcDbLine
 10
-286
 20
0
 11
-416.2233075215256
 21
486
  0
ENDSEC
  0
SECTION
  2
OBJECTS
  0
DICTIONARY
  5
C
330
0
100
AcDbDictionary
281
    1
  3
ACAD_GROUP
350
D
  0
DICTIONARY
  5
D
330
C
100
AcDbDictionary
281
    1
  0
ENDSEC
  0
EOF
